#N canvas 891 89 958 990 10;
#X obj 901 307 bng 25 250 50 0 empty empty empty 17 7 0 10 -237178
-91543 -91543;
#X obj 1009 253 cyclone/prepend symbol;
#X obj 313 291 cnv 15 160 320 empty empty empty 20 12 0 14 -261682
-66577 0;
#X obj 520 291 cnv 15 160 320 empty empty empty 20 12 0 14 -262130
-66577 0;
#X obj 723 289 cnv 15 160 320 empty empty empty 20 12 0 14 -204800
-66577 0;
#X obj 85 108 cnv 15 160 180 empty empty empty 20 12 0 14 -261234 -66577
0;
#X obj 330 354 cyclone/prepend connect;
#X obj 330 329 pack s f;
#X msg 561 423 disconnect;
#X obj 537 344 cyclone/prepend connect;
#X obj 537 318 pack s f;
#X text 361 282 PORT_1;
#X text 570 275 PORT_2;
#X obj 556 552 r osc_msg_tosend2;
#X obj 354 554 r osc_msg_tosend;
#X obj 561 450 s dsc;
#X obj 129 142 s osc_msg_tosend;
#X obj 561 396 delay 200;
#X msg 105 117 /disconnect 1;
#X obj 537 48 inlet;
#X obj 11 43 inlet;
#X obj 105 45 inlet;
#X text 13 17 Con;
#X text 107 15 Disc;
#X obj 117 165 s osc_msg_tosend2;
#X text 535 25 IP of board;
#X obj 330 576 _osc_sender;
#X obj 537 577 _osc_sender;
#X text 765 272 PORT_3;
#X obj 732 343 cyclone/prepend connect;
#X obj 732 317 pack s f;
#X obj 732 576 _osc_sender;
#X obj 751 551 r osc_msg_tosend3;
#X obj 105 188 s osc_msg_tosend3;
#X text 95 216 Opposite to handshake OSC message to announce disconnect
, f 22;
#X obj 901 281 delay 1000;
#X msg 564 296 8042;
#X msg 357 300 24024;
#X msg 759 291 6042;
#X obj 1150 53 inlet;
#X text 1148 30 IP of computer;
#X obj 1150 253 cyclone/prepend symbol;
#X obj 901 341 pack s s s;
#X msg 901 369 /pyshake \$2 \$3;
#X obj 11 66 s \$0-inlet_conn;
#X obj 900 253 r \$0-inlet_conn;
#X obj 330 377 print ms;
#X obj 330 257 t a b;
#X obj 537 253 t a b;
#X obj 732 250 t a b;
#X obj 1342 55 inlet;
#X text 1340 32 Bang for handshake;
#X obj 1105 413 pack s s;
#X obj 1345 103 bng 15 250 50 0 empty empty empty 17 7 0 10 -262144
-1 -1;
#X msg 1080 438 /handshake \$2;
#X obj 537 184 cyclone/prepend symbol;
#X obj 504 208 symbol;
#X obj 504 182 bng 15 250 50 0 empty empty empty 17 7 0 10 -262144
-1 -1;
#X obj 1266 34 inlet;
#X obj 1266 76 bng 15 250 50 0 empty empty empty 17 7 0 10 -262144
-1 -1;
#X text 1264 11 Connect to plugin;
#X connect 0 0 42 0;
#X connect 1 0 42 1;
#X connect 6 0 26 0;
#X connect 6 0 46 0;
#X connect 7 0 6 0;
#X connect 8 0 15 0;
#X connect 8 0 26 0;
#X connect 8 0 27 0;
#X connect 8 0 31 0;
#X connect 9 0 27 0;
#X connect 10 0 9 0;
#X connect 13 0 27 1;
#X connect 14 0 26 1;
#X connect 17 0 8 0;
#X connect 18 0 16 0;
#X connect 18 0 24 0;
#X connect 18 0 33 0;
#X connect 19 0 1 0;
#X connect 19 0 49 0;
#X connect 19 0 55 0;
#X connect 20 0 44 0;
#X connect 21 0 17 0;
#X connect 21 0 18 0;
#X connect 29 0 31 0;
#X connect 30 0 29 0;
#X connect 32 0 31 1;
#X connect 35 0 0 0;
#X connect 36 0 10 1;
#X connect 37 0 7 1;
#X connect 38 0 30 1;
#X connect 39 0 41 0;
#X connect 41 0 42 2;
#X connect 41 0 52 1;
#X connect 42 0 43 0;
#X connect 43 0 31 1;
#X connect 45 0 35 0;
#X connect 47 0 7 0;
#X connect 47 1 37 0;
#X connect 48 0 10 0;
#X connect 48 1 36 0;
#X connect 49 0 30 0;
#X connect 49 1 38 0;
#X connect 50 0 53 0;
#X connect 52 0 54 0;
#X connect 53 0 52 0;
#X connect 54 0 27 1;
#X connect 55 0 56 1;
#X connect 56 0 48 0;
#X connect 56 0 47 0;
#X connect 57 0 56 0;
#X connect 58 0 59 0;
#X connect 59 0 57 0;
