#N canvas 2118 503 1432 717 10;
#X declare -lib zexy;
#X declare -path mrpeach;
#X obj 15 47 cnv 15 600 400 empty empty Receiver_1 20 12 1 15 -204800
-66577 0;
#X obj 36 112 mrpeach/unpackOSC;
#X floatatom 36 372 5 0 0 0 - - -;
#X floatatom 178 311 5 0 0 0 - - -;
#X floatatom 321 186 5 0 0 0 - - -;
#X obj 393 186 print warning_message_not_routed;
#X obj 15 12 declare -lib zexy;
#X obj 137 12 declare -path mrpeach;
#X obj 36 400 s oscrx_state;
#X obj 107 371 s oscrx_emotion;
#X obj 178 342 s oscrx_meter;
#X obj 250 310 s oscrx_handshake;
#X obj 36 86 netreceive -u -b 9042;
#X obj 321 286 s oscrx_silence;
#X obj 321 208 - 1;
#X obj 321 231 abs;
#X floatatom 321 262 5 0 0 0 - - -;
#X obj 36 155 mrpeach/routeOSC /state /emotion /meter /handshake /silence
, f 60;
#X obj 624 47 cnv 15 600 400 empty empty Receiver_2 20 12 1 15 -204786
-66577 0;
#X obj 656 163 mrpeach/unpackOSC;
#X obj 656 137 netreceive -u -b 7042;
#X obj 656 242 s pyshake_back;
#X obj 759 240 s py_stopped;
#X obj 656 206 mrpeach/routeOSC /pyshake /stopped /renamed, f 52;
#X obj 862 240 s py_renamed;
#X connect 1 0 17 0;
#X connect 2 0 8 0;
#X connect 3 0 10 0;
#X connect 4 0 14 0;
#X connect 12 0 1 0;
#X connect 14 0 15 0;
#X connect 15 0 16 0;
#X connect 16 0 13 0;
#X connect 17 0 2 0;
#X connect 17 1 9 0;
#X connect 17 2 3 0;
#X connect 17 3 11 0;
#X connect 17 4 4 0;
#X connect 17 5 5 0;
#X connect 19 0 23 0;
#X connect 20 0 19 0;
#X connect 23 0 21 0;
#X connect 23 1 22 0;
#X connect 23 2 24 0;
