#N canvas 1 120 1918 1051 12;
#X obj 720 326 osc~;
#X obj 720 400 *~;
#X msg 721 163 440;
#X obj 721 258 +~;
#X floatatom 721 216 5 0 0 0 - - -;
#X obj 861 222 vsl 15 128 0.01 1 1 0 empty empty empty 0 -9 0 10 -262144
-1 -1 0 1;
#X obj 861 408 line~;
#X obj 721 122 loadbang;
#X obj 720 534 *~;
#X obj 377 486 vline~;
#X obj 720 589 dac~;
#X msg 377 437 1 \, \$2 \, \$4 \$3 \$2;
#X msg 512 438 0 \$2;
#X obj 435 219 vsl 15 128 0 300 0 0 empty empty empty 0 -9 0 10 -262144
-1 -1 3900 1;
#X obj 492 218 vsl 15 128 0 500 0 0 empty empty empty 0 -9 0 10 -262144
-1 -1 4399 1;
#X floatatom 435 355 5 0 0 0 - - -;
#X floatatom 492 354 5 0 0 0 - - -;
#X floatatom 550 353 5 0 0 0 - - -;
#X obj 378 405 pack f f f f, f 25;
#X obj 380 88 bng 15 250 50 0 empty empty empty 17 7 0 10 -262144 -1
-1;
#X text 389 192 Attack;
#X msg 552 145 0;
#X msg 492 145 173.2;
#X obj 435 121 loadbang;
#X msg 435 146 92.12;
#X text 454 191 Decay;
#X text 363 61 Trigger;
#X obj 196 176 bng 15 250 50 0 empty empty empty 17 7 0 10 -204786
-1 -1;
#X obj 229 210 delay 200;
#X obj 229 254 delay 200;
#X obj 196 331 bng 15 250 50 0 empty empty empty 17 7 0 10 -262144
-1 -1;
#X obj 196 75 inlet;
#X msg 759 165 442;
#X msg 861 383 \$1 50;
#X obj 379 37 inlet;
#X obj 841 43 inlet;
#X obj 900 43 inlet;
#X msg 856 176 0.01;
#X connect 0 0 1 0;
#X connect 1 0 8 0;
#X connect 2 0 4 0;
#X connect 3 0 0 0;
#X connect 4 0 3 0;
#X connect 5 0 33 0;
#X connect 6 0 1 1;
#X connect 7 0 2 0;
#X connect 7 0 37 0;
#X connect 8 0 10 0;
#X connect 8 0 10 1;
#X connect 9 0 8 1;
#X connect 11 0 9 0;
#X connect 12 0 9 0;
#X connect 13 0 15 0;
#X connect 14 0 16 0;
#X connect 15 0 18 1;
#X connect 16 0 18 2;
#X connect 17 0 18 3;
#X connect 18 0 11 0;
#X connect 19 0 18 0;
#X connect 21 0 17 0;
#X connect 22 0 14 0;
#X connect 23 0 22 0;
#X connect 23 0 24 0;
#X connect 23 0 21 0;
#X connect 24 0 13 0;
#X connect 27 0 28 0;
#X connect 27 0 30 0;
#X connect 28 0 29 0;
#X connect 28 0 30 0;
#X connect 29 0 30 0;
#X connect 30 0 18 0;
#X connect 31 0 27 0;
#X connect 32 0 4 0;
#X connect 33 0 6 0;
#X connect 34 0 19 0;
#X connect 35 0 4 0;
#X connect 36 0 5 0;
#X connect 37 0 5 0;
