#N canvas -8 -8 1920 997 12;
#X obj 101 219 + 1;
#X obj 142 219 f;
#X msg 162 186 1;
#X msg 99 169 1;
#X floatatom 142 314 5 0 0 0 - - -;
#X floatatom 100 270 5 0 0 0 - - -;
#X floatatom 143 251 5 0 0 0 - - -;
#X msg 328 193 4;
#X msg 143 137 0;
#X obj 88 80 inlet;
#X obj 153 80 inlet;
#X obj 231 83 inlet;
#X floatatom 231 107 5 0 0 0 - - -;
#X obj 90 119 bng 15 250 50 0 empty empty empty 17 7 0 10 -262144 -1
-1;
#X obj 151 115 bng 15 250 50 0 empty empty empty 17 7 0 10 -262144
-1 -1;
#X obj 142 290 expr if($f1 >= $f2 \, 0 \, $f1);
#X obj 142 337 outlet;
#X connect 0 0 1 0;
#X connect 0 0 5 0;
#X connect 1 0 6 0;
#X connect 2 0 1 1;
#X connect 3 0 0 0;
#X connect 4 0 0 1;
#X connect 4 0 16 0;
#X connect 6 0 15 0;
#X connect 7 0 8 0;
#X connect 7 0 15 1;
#X connect 8 0 1 0;
#X connect 8 0 5 0;
#X connect 9 0 13 0;
#X connect 10 0 14 0;
#X connect 11 0 12 0;
#X connect 12 0 15 1;
#X connect 12 0 8 0;
#X connect 13 0 3 0;
#X connect 14 0 8 0;
#X connect 15 0 4 0;
