#N canvas 1 89 1918 990 10;
#X declare -lib zexy -lib mrpeach;
#X obj 909 9 cnv 15 277 270 empty empty 3._Control 8 16 1 15 -257562
-1 0;
#X obj 419 9 cnv 15 230 270 empty empty 1_Establish_Connection 8 16
1 15 -212671 -1 0;
#X obj 420 294 cnv 15 460 355 empty empty Monitor 12 18 1 18 -261682
-1 0;
#X obj 440 53 bng 25 250 50 0 \$0-conn_m empty <----Connect_to_board
30 13 1 12 -150464 -1 -1;
#X obj 1573 735 declare -lib zexy -lib mrpeach;
#X obj 887 294 cnv 15 350 355 empty empty Results(Predicted_Emotion)
12 18 1 18 -208051 -1 0;
#X obj 906 350 cnv 15 100 60 empty empty empty 20 12 0 14 -262144 -91543
0;
#X obj 906 417 cnv 15 100 60 empty empty empty 20 12 0 14 -262144 -91543
0;
#X obj 906 484 cnv 15 100 60 empty empty empty 20 12 0 14 -262144 -91543
0;
#X obj 906 551 cnv 15 100 60 empty empty empty 20 12 0 14 -262144 -91543
0;
#X obj 909 368 tgl 40 0 empty oscrx_res_aggressive Aggressive 0 -10
1 15 -213249 -1 -1 0 1;
#X obj 908 436 tgl 40 0 empty oscrx_res_relaxed Relaxed 0 -10 1 15
-2676 -1 -1 0 1;
#X obj 908 503 tgl 40 0 empty oscrx_res_happy Happy 0 -10 1 15 -47873
-1 -1 0 1;
#X obj 909 570 tgl 40 0 empty oscrx_res_sad Sad 0 -10 1 15 -174763
-1 -1 0 1;
#X obj 1275 597 bng 20 250 50 0 main_reset empty Main_Reset 23 13 1
11 -261234 -1 -1;
#N canvas 567 173 1272 678 control_logic 0;
#X msg 39 85 1;
#X msg 118 86 0;
#X obj 39 63 r b_startrec;
#X obj 118 63 r b_stoprec;
#N canvas 0 50 450 300 round1 0;
#X floatatom 47 157 11 0 0 1 - - -;
#X obj 47 57 * 10, f 6;
#X obj 47 107 int, f 6;
#X obj 47 131 / 10, f 6;
#X obj 47 82 0.499999, f 26;
#X obj 48 24 inlet;
#X obj 47 184 outlet;
#X connect 0 0 6 0;
#X connect 1 0 4 0;
#X connect 2 0 3 0;
#X connect 3 0 0 0;
#X connect 4 0 2 0;
#X connect 5 0 1 0;
#X restore 91 252 pd round1;
#X obj 104 278 s vis_gain;
#X obj 91 220 r s_gain;
#X obj 39 148 s osc_msg_tosend;
#X obj 91 305 expr pow(10\\\, $f1/20);
#X floatatom 91 334 22 0 0 0 empty - -;
#X obj 91 385 s osc_msg_tosend;
#X msg 91 358 /parameter/emotionclassifier/gain \$1, f 47;
#X msg 39 125 sendtyped /parameter/emotionclassifier/recstate f \$1
;
#N canvas 1 89 450 300 round1 0;
#X floatatom 47 157 11 0 0 1 - - -;
#X obj 47 57 * 10, f 6;
#X obj 47 107 int, f 6;
#X obj 47 131 / 10, f 6;
#X obj 47 82 0.499999, f 26;
#X obj 48 24 inlet;
#X obj 47 184 outlet;
#X connect 0 0 6 0;
#X connect 1 0 4 0;
#X connect 2 0 3 0;
#X connect 3 0 0 0;
#X connect 4 0 2 0;
#X connect 5 0 1 0;
#X restore 47 514 pd round1;
#X obj 47 488 r oscrx_meter;
#X obj 47 537 s roundedmeter;
#X connect 0 0 12 0;
#X connect 1 0 12 0;
#X connect 2 0 0 0;
#X connect 3 0 1 0;
#X connect 4 0 5 0;
#X connect 4 0 8 0;
#X connect 6 0 4 0;
#X connect 8 0 9 0;
#X connect 9 0 11 0;
#X connect 11 0 10 0;
#X connect 12 0 7 0;
#X connect 13 0 15 0;
#X connect 14 0 13 0;
#X restore 1573 759 pd control_logic;
#X text 1273 547 You shouldn´t need this \; It disconnects the osc
target \; and resets initial slider values;
#X obj 563 331 cnv 15 310 125 empty empty Connection_State 13 19 1
14 -248615 -1 0;
#X obj 571 406 cnv 15 120 25 empty empty empty 20 12 1 15 -204786 -66577
0;
#X obj 571 381 cnv 15 120 25 empty empty empty 20 12 0 14 -261234 -66577
0;
#X obj 571 381 tgl 25 0 empty disconnected Disconnected 28 15 1 10
-261234 -91543 -258113 0 1;
#X obj 571 406 tgl 25 0 empty connected CONNECTED! 28 15 1 10 -237178
-91543 -13381 1 1;
#X obj 426 331 cnv 15 125 300 empty empty empty 8 12 1 14 -248615 -66577
0;
#X floatatom 461 601 10 0 0 1 dB roundedmeter -;
#X obj 563 467 cnv 15 310 165 empty empty empty 8 12 1 14 -248615 -66577
0;
#X obj 658 502 vradio 40 1 0 3 empty oscrx_state PluginState 0 -16
1 15 -237178 -91543 -1 0;
#X obj 1012 350 cnv 15 200 261 empty empty empty 20 12 0 14 -228856
-91543 0;
#X obj 1278 489 bng 20 250 50 0 emo_reset main_reset Reset_Display_manually
23 10 1 10 -261234 -1 -86277;
#X obj 1016 459 tgl 40 0 empty oscrx_noemo empty 46 21 1 14 -262144
-258113 -1 0 1;
#X obj 9 8 cnv 15 400 642 empty empty How_To 150 22 1 18 -233017 -66577
0;
#X obj 19 50 cnv 15 380 580 empty empty empty 150 22 1 18 -262144 -66577
0;
#X floatatom 928 242 8 0 0 1 dB vis_gain -;
#X obj 1017 38 cnv 15 150 70 empty empty empty 20 12 0 14 -262144 -66577
0;
#X obj 1031 59 bng 40 250 50 0 b_startrec empty Start_Recording 0 -10
1 11 -204786 -1 -1;
#X obj 1017 112 cnv 15 150 70 empty empty empty 20 12 0 14 -262144
-66577 0;
#X obj 1031 133 bng 40 250 50 0 b_stoprec empty Stop_and_classify 0
-10 1 11 -261234 -1 -1;
#X text 29 56 To control the Emotion Classification on the ElkPI follow
these instructions \; \; 1 Connect the ElkPI and this Laptop to the
same network. You ~~can use a direct ethernet cable or a common router.
In the ~~first case you might need to tell the laptop to create a ~~shared
connection. Switch on the ElkPI or reboot \; ~~if it was already on
\; \; 2 Find the IP of the ElkPI in the shared network. In a \; --unix
terminal use the following \; --> ping elk-pi.local # This can be useful
\; --> arp -a # This helps if the hostname is not resolved \; \; 3
Find the IP of this laptop IN THE NETWORK shared with the --ElkPI.
One way to do this is to carefully examine the --output of the following
terminal commands: \; --> ifconfig \; --> ip a s \; \; 4 Plug both
the Board_IP and the Controller_IP in the two --message objects on
the right of these instructions. --Hostnames don't seem to work so
use the actual IPs. Leave --the PORT messages untouched. \; \; 5 SSH
into the ElkPI board. From a terminal write: \; -->ssh mind@elk-pi.local
\; --Or replace elk-pi.local with the IP found at 2 \; --Password:
elk \; \; 6 In the ssh terminal \, go into the emotion classification
--directory and run the script call run \; --> cd EmotionClassification
\; --> ./run \; \; 7 From this patch \, exit edit mode and press "Connect
to the --board". Wait for a few seconds and check for a green light
--from the "Connected" toggle button. \; --Now the Record_level meter
should start moving when audio --is fed to the input of the board.
;
#X obj 1572 783 _osc_receiver;
#X obj 1571 808 _emotion_toggler;
#X obj 705 513 cnv 15 50 18 empty empty Idle 8 12 1 14 -248615 -1 0
;
#X obj 706 552 cnv 15 50 18 empty empty Recording 8 12 1 14 -248615
-1 0;
#X obj 706 589 cnv 15 50 18 empty empty Classifying 8 12 1 14 -248615
-1 0;
#X text 1275 466 Reset only the emotion display;
#X obj 504 362 cnv 15 30 18 empty empty ----|0dB 0 12 1 8 -248615 -1
0;
#X obj 503 565 cnv 15 30 18 empty empty ----|-90dB 0 12 1 8 -248615
-1 0;
#X obj 475 374 vsl 25 200 -90 0 0 0 empty oscrx_meter Record_level
-43 -26 1 15 -262144 -1 -1 0 1;
#X obj 440 92 bng 25 250 50 0 \$0-disc_m empty <----Disconnect 30 13
1 12 -261234 -1 -1;
#X obj 437 158 cnv 15 70 20 empty empty empty 20 12 0 14 -204786 -66577
0;
#X obj 941 73 vsl 20 160 -100 0 0 0 s_gain initial_gain Recording_gain
-28 -12 1 10 -262144 -1 -1 15900 1;
#X text 521 137 Computer IP;
#X obj 700 384 tgl 18 0 empty plg_electric Electric_Plugin_Started
22 11 1 10 -262144 -1 -1 0 1;
#X obj 700 434 tgl 18 0 empty plg_piano Piano_Plugin_Started 22 11
1 10 -262144 -1 -1 0 1;
#X obj 700 409 tgl 18 0 empty plg_acoustic Acoustic_Plugin_Started
22 11 1 10 -262144 -1 -1 0 1;
#X obj 700 360 tgl 18 0 empty plg_no NO_PLUGIN_STARTED 22 11 1 10 -261234
-1 -1 1 1;
#X obj 522 158 cnv 15 70 20 empty empty empty 20 12 0 14 -204786 -66577
0;
#X text 450 138 Board IP;
#X obj 493 257 _osc_conn2;
#X obj 427 208 r \$0-conn_m;
#X obj 504 240 r \$0-disc_m;
#X obj 659 9 cnv 15 240 270 empty empty 2._Start_A_Plugin 8 16 1 15
-233467 -66577 0;
#X obj 675 87 bng 25 250 50 0 start_electric empty Start_Electric_Guitar_Plugin
30 14 1 11 -204786 -1 -1;
#X obj 675 118 bng 25 250 50 0 start_acoustic empty Start_Acoustic_Guitar_Plugin
30 14 1 11 -204786 -1 -1;
#X obj 675 149 bng 25 250 50 0 start_piano empty Start_Piano_Plugin
30 14 1 11 -204786 -1 -1;
#X obj 675 203 bng 25 250 50 0 stop_plugin empty Stop_Plugin 30 14
1 11 -261234 -1 -1;
#X obj 550 206 r \$0-handshake;
#X obj 1233 1191 cnv 15 360 355 empty empty Renamer_logic 20 12 1 14
-228856 -33289 0;
#X obj 1244 1251 cnv 25 160 25 empty empty empty 20 12 0 14 -204786
-66577 0;
#X obj 1344 1358 cnv 25 100 25 empty empty empty 20 12 0 14 -262130
-66577 0;
#X obj 1394 1481 cnv 25 100 25 empty empty empty 20 12 0 14 -262130
-66577 0;
#X obj 1300 1323 cnv 25 160 25 empty empty empty 20 12 0 14 -204786
-66577 0;
#X obj 1366 1412 cnv 25 100 25 empty empty empty 20 12 0 14 -262130
-66577 0;
#X obj 1375 1447 cnv 25 100 25 empty empty empty 20 12 0 14 -262130
-66577 0;
#X obj 1408 1514 cnv 25 70 25 empty empty empty 20 12 0 14 -204786
-66577 0;
#X obj 1252 1525 s \$0-ns;
#X msg 1252 1257 read data/filenames.csv;
#X obj 1252 1222 loadbang;
#X msg 1391 1451 nextName;
#X msg 1407 1485 prevName;
#X msg 1380 1417 resetName;
#X msg 1321 1325 customname ciao.wav;
#X obj 1380 1392 loadbang;
#X msg 1420 1517 SELECT;
#X obj 1275 1287 cnv 25 120 25 empty empty empty 20 12 0 14 -204786
-66577 0;
#X msg 1291 1292 SELECT_AND_NEXT;
#X obj 15 733 cnv 15 670 330 empty empty Script_handshake_+_plugin_start_mechanism
20 12 1 14 -233017 -66577 0;
#X obj 53 797 r pyshake_back;
#X obj 53 826 bng 15 250 50 0 empty empty empty 17 7 0 10 -262144 -1
-1;
#N canvas 1 89 920 689 4waytoggler 0;
#X obj 516 205 inlet;
#X text 516 170 Reset;
#X text 245 170 Value 0-3;
#X obj 329 241 hradio 20 1 0 4 empty empty empty 0 -8 0 10 -237178
-91543 -91543 0;
#X obj 441 379 select 0 1 2 3;
#X msg 408 467 0;
#X msg 385 443 1;
#X msg 457 467 0;
#X msg 434 443 1;
#X msg 516 467 0;
#X msg 493 443 1;
#X msg 576 467 0;
#X msg 553 443 1;
#X obj 597 379 bng 25 250 50 0 empty empty empty 17 7 0 10 -237178
-91543 -91543;
#X text 630 378 Reset;
#X obj 254 205 inlet;
#X obj 245 556 outlet;
#X obj 382 556 outlet;
#X obj 522 556 outlet;
#X obj 652 556 outlet;
#X connect 0 0 13 0;
#X connect 4 0 6 0;
#X connect 4 0 5 0;
#X connect 4 1 8 0;
#X connect 4 1 7 0;
#X connect 4 2 10 0;
#X connect 4 2 9 0;
#X connect 4 3 12 0;
#X connect 4 3 11 0;
#X connect 5 0 17 0;
#X connect 5 0 18 0;
#X connect 5 0 19 0;
#X connect 6 0 16 0;
#X connect 7 0 16 0;
#X connect 7 0 18 0;
#X connect 7 0 19 0;
#X connect 8 0 7 0;
#X connect 8 0 17 0;
#X connect 9 0 16 0;
#X connect 9 0 17 0;
#X connect 9 0 19 0;
#X connect 10 0 18 0;
#X connect 11 0 16 0;
#X connect 11 0 17 0;
#X connect 11 0 18 0;
#X connect 12 0 19 0;
#X connect 13 0 5 0;
#X connect 13 0 7 0;
#X connect 13 0 9 0;
#X connect 13 0 11 0;
#X connect 15 0 3 0;
#X connect 15 0 4 0;
#X restore 53 947 pd 4waytoggler;
#X obj 53 1032 s plg_no;
#X obj 80 1010 s plg_electric;
#X obj 107 989 s plg_acoustic;
#X obj 134 968 s plg_piano;
#X msg 53 853 0;
#X obj 151 782 r oscrx_handshake;
#X obj 196 804 r start_electric;
#X obj 231 825 r start_acoustic;
#X obj 265 847 r start_piano;
#X msg 196 825 1;
#X msg 231 846 2;
#X msg 265 868 3;
#X obj 151 865 bng 15 250 50 0 empty empty empty 17 7 0 10 -262144
-1 -1;
#X msg 151 917 \$2;
#X obj 31 772 r py_stopped;
#X obj 31 795 bng 15 250 50 0 empty empty empty 17 7 0 10 -262144 -1
-1;
#X text 363 776 1 We send pyshake \; 2 We receive pyshake from python
script \; 3 We send start plugin \; 4 We receive started plugin \,
we send handshake \; 5 We receive handshake and show plugin as started
\;, f 51;
#X obj 694 734 cnv 15 370 330 empty empty Filename_selector/renamer
20 12 1 14 -233017 -66577 0;
#X obj 732 882 nameselector, f 16;
#X obj 825 920 print Next file will be named;
#X obj 813 946 print Renaming;
#X obj 732 856 r \$0-ns;
#X obj 732 991 s osc_msg_tosend3;
#X msg 732 968 /rename \$1;
#X obj 732 945 pack s;
#X text 730 821 Filename selector/renamer \; Control from the purple
canvas controls;
#X obj 1067 452 cnv 15 140 20 empty empty Recording_too 0 12 1 14 -228856
-33289 0;
#X obj 1067 474 cnv 15 140 20 empty empty short_or 0 12 1 14 -228856
-33289 0;
#X obj 1067 497 cnv 15 140 20 empty empty silent 0 12 1 14 -228856
-33289 0;
#X obj 151 894 pack f f;
#X obj 1073 734 cnv 15 490 330 empty empty React_to_response_to_/rename
20 12 1 14 -233017 -66577 0;
#X obj 1187 761 r py_renamed;
#X obj 1187 806 bng 15 250 50 0 empty empty empty 17 7 0 10 -262144
-1 -1;
#X obj 1264 807 bng 15 250 50 0 empty empty empty 17 7 0 10 -262144
-1 -1;
#X obj 1344 807 bng 15 250 50 0 empty empty empty 17 7 0 10 -262144
-1 -1;
#N canvas 2269 302 863 427 blinlyErrorLight 0;
#X obj 118 155 bng 15 250 50 0 empty empty empty 17 7 0 10 -262144
-1 -1;
#X obj 118 198 int;
#X obj 177 225 + 1;
#X floatatom 190 193 5 0 0 0 - - -;
#X floatatom 118 220 5 0 0 0 - - -;
#X msg 161 148 0;
#X msg 161 170 1;
#X obj 50 251 metro;
#X obj 50 204 bng 15 250 50 0 empty empty empty 17 7 0 10 -262144 -1
-1;
#X obj 50 276 bng 15 250 50 0 empty empty empty 17 7 0 10 -262144 -1
-1;
#X msg 76 198 stop;
#X msg 74 224 200;
#X obj 50 30 inlet;
#X obj 50 296 outlet;
#X obj 142 30 inlet reset;
#X text 281 188 Blink 40 times (or see moses) when bang is received
;
#X obj 118 241 moses 40;
#X connect 0 0 1 0;
#X connect 1 0 2 0;
#X connect 1 0 4 0;
#X connect 2 0 1 1;
#X connect 3 0 2 1;
#X connect 4 0 16 0;
#X connect 5 0 4 0;
#X connect 5 0 6 0;
#X connect 6 0 1 1;
#X connect 7 0 9 0;
#X connect 8 0 7 0;
#X connect 8 0 11 0;
#X connect 9 0 1 0;
#X connect 9 0 13 0;
#X connect 10 0 7 0;
#X connect 11 0 7 1;
#X connect 12 0 8 0;
#X connect 14 0 5 0;
#X connect 14 0 10 0;
#X connect 16 1 5 0;
#X connect 16 1 10 0;
#X restore 1438 852 pd blinlyErrorLight;
#X obj 1486 827 r \$0-reserr;
#X obj 1438 874 s \$0-blinker;
#X msg 1187 826 1;
#X msg 1139 863 0;
#X obj 1187 889 s \$0-rnm_ok_toggle;
#X obj 1081 814 r b_startrec;
#X obj 1099 834 r b_stoprec;
#X msg 1189 914 Error in renaming last recording: There are multiple
recordings that have not been renamed yet. I don't know if you want
to keep the last or one of the previous ones, f 21;
#X msg 1344 914 Error in renaming: There are no recordings, f 10;
#X obj 1344 1043 print, f 7;
#X obj 1946 1379 print;
#X obj 1231 1073 cnv 15 130 110 empty empty empty 20 12 0 14 -233017
-66577 0;
#X obj 1244 1083 r \$0-b_deletelast;
#X obj 1244 1106 bng 15 250 50 0 empty empty empty 17 7 0 10 -262144
-1 -1;
#X obj 1244 1150 s osc_msg_tosend3;
#X obj 1021 197 cnv 15 150 77 empty empty DANGER:Delete_recordings
4 11 1 8 -261234 -1 0;
#X obj 1028 224 bng 20 250 50 0 \$0-b_deletelast empty Delete_unnamed
22 10 1 11 -261234 -1 -1;
#X obj 1028 249 bng 20 250 50 0 \$0-b_deleteallbutlast empty Delete_AllButLast
22 10 1 11 -261234 -1 -1;
#X msg 1244 1127 /deleteUnnamed;
#X obj 1367 1073 cnv 15 160 110 empty empty empty 20 12 0 14 -233017
-66577 0;
#X obj 1377 1106 bng 15 250 50 0 empty empty empty 17 7 0 10 -262144
-1 -1;
#X obj 1377 1150 s osc_msg_tosend3;
#X obj 1377 1083 r \$0-b_deleteallbutlast;
#X msg 1377 1127 /deleteAllButLast;
#X obj 1187 783 route ok errorTooManyFiles errorNoFile errorOverwrite
;
#X obj 1423 806 bng 15 250 50 0 empty empty empty 17 7 0 10 -262144
-1 -1;
#X msg 1423 914 Error in renaming: Name already exists!, f 9;
#X obj 14 1072 cnv 15 290 230 empty empty Set_Date_on_board 20 12 1
14 -233017 -66577 0;
#X floatatom 239 1187 0 0 0 0 - - -;
#X floatatom 204 1187 0 0 0 0 - - -;
#X floatatom 170 1187 0 0 0 0 - - -;
#X obj 137 1159 time, f 11;
#X obj 66 1159 date, f 10;
#X floatatom 135 1187 0 0 0 0 - - -;
#X floatatom 101 1187 0 0 0 0 - - -;
#X floatatom 66 1187 0 0 0 0 - - -;
#X obj 32 1100 r \$0-b_setDate;
#X obj 32 1122 bng 15 250 50 0 empty empty empty 17 7 0 10 -262144
-1 -1;
#X obj 32 1218 pack f f f f f f f, f 35;
#X obj 32 1266 s osc_msg_tosend3;
#X msg 32 1244 /setDate \$2 \$3 \$4 \$5 \$6 \$7;
#X obj 149 1118 bng 20 250 50 0 \$0-b_setDate empty SetDateOnBoard
23 12 1 10 -262144 -1 -1;
#X obj 538 223 r \$0-connplug;
#X obj 242 899 bng 15 250 50 0 empty empty empty 17 7 0 10 -262144
-1 -1;
#X obj 242 977 s \$0-connplug;
#X obj 242 919 delay 1000;
#X obj 331 977 s \$0-handshake;
#X obj 331 954 delay 500;
#X obj 427 225 t b b;
#X obj 315 1073 cnv 15 160 230 empty empty Start_DSP 20 12 1 14 -233017
-66577 0;
#X obj 329 1110 loadbang;
#X obj 329 1136 delay 1000;
#X msg 329 1203 \; pd dsp \$1;
#X obj 329 1164 tgl 30 0 empty empty empty 17 7 0 10 -162280 -1 -1
1 1;
#X text 368 1154 <-Click to \; start/stop DSP;
#X obj 484 1073 cnv 15 190 230 empty empty Init+reset 20 12 1 14 -233017
-66577 0;
#X obj 493 1270 s disc_m;
#X obj 493 1115 r main_reset;
#X obj 493 1249 bng 15 250 50 0 empty empty empty 17 7 0 10 -237178
-91543 -91543;
#X obj 504 1140 loadbang;
#X obj 504 1224 s initial_gain;
#X msg 504 1173 0;
#X obj 514 1202 s oscrx_state;
#X obj 682 1073 cnv 15 210 230 empty empty Connected_Toggles 20 12
1 14 -233017 -66577 0;
#N canvas 1 89 450 300 2waytoggler 0;
#X obj 516 205 inlet;
#X text 516 170 Reset;
#X obj 329 241 hradio 20 1 0 2 empty empty empty 0 -8 0 10 -237178
-91543 -91543 1;
#X msg 308 463 0;
#X msg 285 439 1;
#X msg 357 463 0;
#X msg 334 439 1;
#X obj 516 375 bng 25 250 50 0 empty empty empty 17 7 0 10 -237178
-91543 -91543;
#X obj 254 205 inlet;
#X obj 245 556 outlet;
#X obj 382 556 outlet;
#X obj 308 375 select 0 1;
#X text 245 170 Value 0-2;
#X text 549 374 Manual Reset;
#X connect 0 0 7 0;
#X connect 3 0 10 0;
#X connect 4 0 9 0;
#X connect 5 0 9 0;
#X connect 6 0 5 0;
#X connect 6 0 10 0;
#X connect 7 0 3 0;
#X connect 7 0 5 0;
#X connect 8 0 2 0;
#X connect 8 0 11 0;
#X connect 11 0 4 0;
#X connect 11 0 3 0;
#X connect 11 1 6 0;
#X connect 11 1 5 0;
#X restore 694 1207 pd 2waytoggler;
#X obj 694 1151 hradio 20 1 0 2 empty empty empty 0 -8 0 10 -228856
-91543 -91543 1;
#X msg 694 1127 0;
#X obj 694 1102 r dsc;
#X msg 733 1128 1;
#X obj 694 1179 s radio_conn;
#X obj 802 1213 loadbang;
#X obj 788 1275 s disconnected;
#X obj 713 1231 s connected;
#X text 784 1131 Mutual exclusive Toggles as better visualizers than
array, f 17;
#X obj 694 1275 s oscrx_state;
#X msg 694 1253 0;
#X obj 733 1102 r pyshake_back;
#X msg 802 1236 1;
#X obj 902 1073 cnv 15 320 230 empty empty Send_Start_plugin 20 12
1 14 -233017 -66577 0;
#X obj 916 1099 r start_electric;
#X obj 996 1124 r start_acoustic;
#X obj 1034 1205 r start_piano;
#X obj 924 1123 bng 15 250 50 0 empty empty empty 17 7 0 10 -262144
-1 -1;
#X obj 1004 1146 bng 15 250 50 0 empty empty empty 17 7 0 10 -262144
-1 -1;
#X obj 1042 1227 bng 15 250 50 0 empty empty empty 17 7 0 10 -262144
-1 -1;
#X msg 996 1166 acoustic;
#X msg 915 1252 /startPlugin \$1;
#X obj 915 1275 s osc_msg_tosend3;
#X obj 915 1230 pack s;
#X obj 1105 1163 s osc_msg_tosend3;
#X obj 1105 1098 r stop_plugin;
#X obj 1105 1120 bng 15 250 50 0 empty empty empty 17 7 0 10 -262144
-1 -1;
#X msg 916 1141 electric;
#X msg 1034 1246 piano;
#X msg 1105 1140 /stopPlugin;
#X obj 583 1106 r disc_m;
#X msg 583 1150 -100;
#X obj 583 1173 s oscrx_meter;
#X obj 583 1128 delay 1000;
#X obj 1470 1296 r \$0-printfilename;
#X obj 1470 1320 bng 15 250 50 0 empty empty empty 17 7 0 10 -262144
-1 -1;
#X obj 1424 1263 bng 15 250 50 0 empty empty empty 17 7 0 10 -262144
-1 -1;
#X obj 1424 1240 r \$0-rename;
#X obj 1491 1403 r \$0-prevname;
#X obj 1480 1345 r \$0-nextname;
#X obj 1491 1430 bng 15 250 50 0 empty empty empty 17 7 0 10 -262144
-1 -1;
#X obj 1480 1370 bng 15 250 50 0 empty empty empty 17 7 0 10 -262144
-1 -1;
#X obj 1194 10 cnv 15 420 270 empty empty Renamer 12 18 1 18 -228856
-1 0;
#X obj 1409 166 bng 50 250 50 0 empty \$0-blinker empty 17 7 0 10 -232576
-258113 -1;
#X obj 1215 256 bng 15 250 50 0 \$0-reserr empty Reset_ERR 20 9 1 8
-232576 -1 -1;
#X obj 1409 222 tgl 50 0 \$0-resetme \$0-rnm_ok_toggle Renamed_OK 54
27 1 17 -232576 -13381 -33289 0 1;
#X obj 1212 98 bng 19 250 50 0 \$0-printfilename empty Print_next_filename
25 11 1 10 -232576 -1 -1;
#X obj 1212 53 bng 21 250 50 0 \$0-rename empty Rename_&_prepare_NextName
25 11 1 10 -232576 -1 -1;
#X obj 1215 211 bng 15 250 50 0 \$0-prevname empty Prev.Name 25 11
1 10 -232576 -1 -1;
#X obj 1215 233 bng 15 250 50 0 \$0-nextname empty Next.Name 25 11
1 10 -232576 -1 -1;
#X msg 1213 147 customname ciao.wav;
#X obj 1213 170 s \$0-ns;
#X obj 1213 123 bng 19 250 50 0 empty empty Prepare_Custom_name 25
11 1 10 -232576 -1 -1;
#X text 1473 167 Rename error if blinking: look at Pd console, f 15
;
#X msg 440 159 127.0.0.1;
#X msg 527 159 127.0.0.2;
#X msg 1369 1361 preselect;
#X connect 57 0 172 0;
#X connect 58 0 56 1;
#X connect 64 0 56 5;
#X connect 74 0 73 0;
#X connect 75 0 74 0;
#X connect 76 0 73 0;
#X connect 77 0 73 0;
#X connect 78 0 73 0;
#X connect 79 0 73 0;
#X connect 80 0 78 0;
#X connect 81 0 73 0;
#X connect 83 0 73 0;
#X connect 85 0 86 0;
#X connect 86 0 92 0;
#X connect 87 0 88 0;
#X connect 87 1 89 0;
#X connect 87 2 90 0;
#X connect 87 3 91 0;
#X connect 92 0 87 0;
#X connect 93 0 100 0;
#X connect 94 0 97 0;
#X connect 94 0 167 0;
#X connect 95 0 98 0;
#X connect 95 0 167 0;
#X connect 96 0 99 0;
#X connect 96 0 167 0;
#X connect 97 0 117 1;
#X connect 98 0 117 1;
#X connect 99 0 117 1;
#X connect 100 0 117 0;
#X connect 101 0 87 0;
#X connect 102 0 103 0;
#X connect 103 0 92 0;
#X connect 106 0 108 0;
#X connect 106 0 112 0;
#X connect 106 1 107 0;
#X connect 109 0 106 0;
#X connect 111 0 110 0;
#X connect 112 0 111 0;
#X connect 117 0 101 0;
#X connect 119 0 148 0;
#X connect 120 0 126 0;
#X connect 121 0 123 0;
#X connect 121 0 127 0;
#X connect 121 0 131 0;
#X connect 122 0 123 0;
#X connect 122 0 127 0;
#X connect 122 0 132 0;
#X connect 123 0 125 0;
#X connect 124 0 123 1;
#X connect 124 0 127 0;
#X connect 126 0 128 0;
#X connect 127 0 128 0;
#X connect 129 0 127 0;
#X connect 130 0 127 0;
#X connect 131 0 133 0;
#X connect 132 0 133 0;
#X connect 136 0 137 0;
#X connect 137 0 142 0;
#X connect 142 0 138 0;
#X connect 144 0 147 0;
#X connect 146 0 144 0;
#X connect 147 0 145 0;
#X connect 148 0 120 0;
#X connect 148 1 121 0;
#X connect 148 2 122 0;
#X connect 148 3 149 0;
#X connect 149 0 123 0;
#X connect 149 0 127 0;
#X connect 149 0 150 0;
#X connect 150 0 133 0;
#X connect 152 0 162 6;
#X connect 153 0 162 5;
#X connect 154 0 162 4;
#X connect 155 0 154 0;
#X connect 155 1 153 0;
#X connect 155 2 152 0;
#X connect 156 0 159 0;
#X connect 156 1 158 0;
#X connect 156 2 157 0;
#X connect 157 0 162 3;
#X connect 158 0 162 2;
#X connect 159 0 162 1;
#X connect 160 0 161 0;
#X connect 161 0 156 0;
#X connect 161 0 155 0;
#X connect 161 0 162 0;
#X connect 162 0 164 0;
#X connect 164 0 163 0;
#X connect 166 0 56 4;
#X connect 167 0 169 0;
#X connect 169 0 168 0;
#X connect 169 0 171 0;
#X connect 171 0 170 0;
#X connect 172 0 56 0;
#X connect 172 0 243 0;
#X connect 172 1 244 0;
#X connect 174 0 175 0;
#X connect 175 0 177 0;
#X connect 177 0 176 0;
#X connect 181 0 182 0;
#X connect 181 0 185 0;
#X connect 182 0 180 0;
#X connect 183 0 185 0;
#X connect 185 0 184 0;
#X connect 185 0 186 0;
#X connect 188 0 195 0;
#X connect 188 0 199 0;
#X connect 188 1 196 0;
#X connect 189 0 188 0;
#X connect 189 0 193 0;
#X connect 190 0 189 0;
#X connect 191 0 190 0;
#X connect 192 0 189 0;
#X connect 194 0 201 0;
#X connect 199 0 198 0;
#X connect 200 0 192 0;
#X connect 201 0 195 0;
#X connect 203 0 206 0;
#X connect 203 0 216 0;
#X connect 204 0 207 0;
#X connect 204 0 209 0;
#X connect 205 0 208 0;
#X connect 205 0 217 0;
#X connect 209 0 212 0;
#X connect 210 0 211 0;
#X connect 212 0 210 0;
#X connect 214 0 215 0;
#X connect 215 0 218 0;
#X connect 216 0 212 0;
#X connect 217 0 212 0;
#X connect 218 0 213 0;
#X connect 219 0 222 0;
#X connect 220 0 221 0;
#X connect 222 0 220 0;
#X connect 223 0 224 0;
#X connect 224 0 245 0;
#X connect 225 0 83 0;
#X connect 226 0 225 0;
#X connect 227 0 229 0;
#X connect 228 0 230 0;
#X connect 229 0 77 0;
#X connect 230 0 76 0;
#X connect 239 0 240 0;
#X connect 241 0 239 0;
#X connect 243 0 56 2;
#X connect 244 0 56 3;
#X connect 245 0 73 0;
