#N canvas 226 296 1068 442 10;
#X obj 46 34 inlet;
#X obj 46 396 text define \$1;
#X obj 369 273 text set \$1;
#X obj 204 203 text get \$1;
#X obj 655 51 loadbang;
#X obj 130 262 r \$0-1st_arg;
#X obj 85 283 pack s s;
#X obj 516 398 text define \$1_buffer;
#X obj 165 395 outlet data;
#X obj 352 399 outlet line no + data;
#X obj 543 124 list length;
#X obj 516 80 t a a;
#X obj 543 153 == 2;
#X obj 516 192 list prepend;
#X obj 46 66 route read write recall store float bang;
#X obj 672 182 until;
#X obj 672 159 \$2;
#X msg 672 209 add2 0;
#X obj 655 77 t b b b b;
#X msg 689 125 set;
#X obj 421 110 inlet line no.;
#X text 379 90 for recall and store;
#X obj 369 176 text get \$1_buffer;
#X msg 369 139 0;
#X obj 243 176 text get \$1_buffer;
#X msg 243 143 0;
#X obj 125 202 text get \$1;
#X obj 125 231 s \$0-to_buffer;
#X obj 125 99 route bang;
#X obj 125 127 f;
#X obj 672 338 s \$0-to_buffer;
#X obj 516 48 r \$0-to_buffer;
#X obj 352 368 list prepend;
#X msg 46 362 read -c \$1;
#X obj 46 333 symbol;
#X obj 516 225 route 0 1;
#X obj 516 373 text set \$1_buffer;
#X obj 541 314 list split 1;
#X msg 541 289 \$2 \$1;
#X obj 516 256 list;
#X obj 575 342 route float;
#X msg 85 308 write -c \$1;
#X obj 390 232 moses \$3;
#X msg 672 237 0 0 0 0 0 0 0 0 0 0 0 0 0 0 0 0 0 0 0 0 0;
#X text 786 30 \$1 name for [text define] \; \$2 items per line \;
\$3 max number of lines;
#X connect 0 0 14 0;
#X connect 3 0 8 0;
#X connect 3 0 32 0;
#X connect 4 0 18 0;
#X connect 5 0 6 1;
#X connect 6 0 41 0;
#X connect 10 0 12 0;
#X connect 11 0 13 0;
#X connect 11 1 10 0;
#X connect 12 0 13 1;
#X connect 13 0 35 0;
#X connect 14 0 34 0;
#X connect 14 1 6 0;
#X connect 14 2 28 0;
#X connect 14 3 23 0;
#X connect 14 4 3 0;
#X connect 14 5 25 0;
#X connect 14 6 11 0;
#X connect 15 0 17 0;
#X connect 16 0 15 0;
#X connect 17 0 43 0;
#X connect 18 0 43 0;
#X connect 18 1 16 0;
#X connect 18 2 19 0;
#X connect 19 0 43 0;
#X connect 20 0 29 1;
#X connect 20 0 32 1;
#X connect 20 0 42 0;
#X connect 22 0 2 0;
#X connect 23 0 22 0;
#X connect 24 0 8 0;
#X connect 25 0 24 0;
#X connect 26 0 27 0;
#X connect 26 0 8 0;
#X connect 26 0 32 0;
#X connect 28 0 29 0;
#X connect 29 0 26 0;
#X connect 31 0 11 0;
#X connect 32 0 9 0;
#X connect 33 0 1 0;
#X connect 34 0 33 0;
#X connect 35 0 39 0;
#X connect 35 1 38 0;
#X connect 37 0 36 0;
#X connect 37 1 40 0;
#X connect 38 0 37 0;
#X connect 39 0 36 0;
#X connect 40 0 36 2;
#X connect 41 0 1 0;
#X connect 42 0 2 1;
#X connect 43 0 30 0;
