#N canvas 1921 96 958 1074 12;
#X msg 110 183 1;
#X msg 186 183 -1;
#X obj 110 225 +;
#X obj 148 226 i;
#X floatatom 128 303 5 0 0 0 - - -;
#X obj 198 251 pack i i;
#X msg 263 183 0;
#X obj 128 279 expr $i1 *($i1>0);
#X msg 329 319 \$1;
#X text 371 317 To get rid of symbol;
#X obj 329 358 print Next file will be named;
#X obj 334 291 pbank boff 21 64;
#X obj 320 171 bng 15 250 50 0 empty empty empty 17 7 0 10 -262144
-1 -1;
#X obj 379 235 pack s s;
#X msg 379 260 read \$1;
#X obj 355 170 bng 15 250 50 0 empty empty empty 17 7 0 10 -262144
-1 -1;
#X msg 355 190 0;
#X obj 111 147 route nextName prevName resetName read start customname
RENAME, f 74;
#X obj 554 391 pack s s;
#X msg 601 416 \$2;
#X obj 707 449 print RENAMINGTO;
#X obj 554 195 bng 15 250 50 0 empty empty empty 17 7 0 10 -262144
-1 -1;
#X msg 607 302 symbol \$1;
#X obj 478 208 pack s s;
#X obj 111 120 inlet;
#X obj 100 539 outlet, f 10;
#X obj 549 541 outlet;
#X connect 0 0 2 0;
#X connect 1 0 2 0;
#X connect 2 0 3 0;
#X connect 3 0 5 0;
#X connect 4 0 11 0;
#X connect 5 0 7 0;
#X connect 6 0 2 1;
#X connect 6 0 2 0;
#X connect 7 0 2 1;
#X connect 7 0 4 0;
#X connect 8 0 10 0;
#X connect 8 0 26 0;
#X connect 11 0 8 0;
#X connect 11 0 18 1;
#X connect 13 0 14 0;
#X connect 14 0 11 0;
#X connect 15 0 16 0;
#X connect 16 0 11 0;
#X connect 17 0 0 0;
#X connect 17 1 1 0;
#X connect 17 2 6 0;
#X connect 17 3 11 0;
#X connect 17 3 12 0;
#X connect 17 3 13 0;
#X connect 17 4 15 0;
#X connect 17 5 23 0;
#X connect 17 6 21 0;
#X connect 18 0 19 0;
#X connect 19 0 20 0;
#X connect 19 0 25 0;
#X connect 21 0 18 0;
#X connect 22 0 18 1;
#X connect 23 0 22 0;
#X connect 24 0 17 0;
