#N canvas 1921 94 1918 1077 10;
#X declare -lib zexy -lib mrpeach;
#X obj 875 9 cnv 15 387 270 empty empty 2._Control 8 16 1 15 -257562
-1 0;
#X obj 419 9 cnv 15 440 270 empty empty 1_Establish_Connection 8 16
1 15 -212671 -1 0;
#X obj 420 294 cnv 15 350 355 empty empty Monitor 12 18 1 18 -261682
-1 0;
#X obj 501 51 cnv 15 345 100 empty empty empty 20 12 0 14 -138231 -66577
0;
#X obj 537 72 bng 25 250 50 0 conn_m empty <----Connect_to_the_board
30 13 1 12 -204786 -1 -1;
#X obj 1270 535 declare -lib zexy -lib mrpeach;
#X obj 782 294 cnv 15 480 355 empty empty Results(Predicted_Emotion)
12 18 1 18 -208051 -1 0;
#X obj 802 350 cnv 15 100 60 empty empty empty 20 12 0 14 -262144 -91543
0;
#X obj 802 417 cnv 15 100 60 empty empty empty 20 12 0 14 -262144 -91543
0;
#X obj 802 484 cnv 15 100 60 empty empty empty 20 12 0 14 -262144 -91543
0;
#X obj 802 551 cnv 15 100 60 empty empty empty 20 12 0 14 -262144 -91543
0;
#X obj 805 368 tgl 40 0 empty oscrx_res_aggressive Aggressive 0 -10
1 15 -213249 -1 -1 0 1;
#X obj 804 436 tgl 40 0 empty oscrx_res_relaxed Relaxed 0 -10 1 15
-2676 -1 -1 0 1;
#X obj 804 503 tgl 40 0 empty oscrx_res_happy Happy 0 -10 1 15 -47873
-1 -1 0 1;
#X obj 805 570 tgl 40 0 empty oscrx_res_sad Sad 0 -10 1 15 -174763
-1 -1 0 1;
#X obj 1271 139 bng 20 250 50 0 main_reset empty Main_Reset 23 13 1
11 -261234 -1 -1;
#N canvas 1 89 1058 623 cable_management 0;
#X text 27 32 Background program logic for the EmotionClassifier Controller
;
#X obj 27 382 loadbang;
#X obj 27 408 delay 1000;
#X msg 27 475 \; pd dsp \$1;
#X obj 27 436 tgl 30 0 empty empty empty 17 7 0 10 -162280 -1 -1 1
1;
#X text 66 426 <-Click to \; start/stop DSP;
#N canvas 1 89 450 300 2waytoggler 0;
#X obj 516 205 inlet;
#X text 516 170 Reset;
#X obj 329 241 hradio 20 1 0 2 empty empty empty 0 -8 0 10 -237178
-91543 -91543 0;
#X msg 308 463 0;
#X msg 285 439 1;
#X msg 357 463 0;
#X msg 334 439 1;
#X obj 516 375 bng 25 250 50 0 empty empty empty 17 7 0 10 -237178
-91543 -91543;
#X obj 254 205 inlet;
#X obj 245 556 outlet;
#X obj 382 556 outlet;
#X obj 308 375 select 0 1;
#X text 245 170 Value 0-2;
#X text 549 374 Manual Reset;
#X connect 0 0 7 0;
#X connect 3 0 10 0;
#X connect 4 0 9 0;
#X connect 5 0 9 0;
#X connect 6 0 5 0;
#X connect 6 0 10 0;
#X connect 7 0 3 0;
#X connect 7 0 5 0;
#X connect 8 0 2 0;
#X connect 8 0 11 0;
#X connect 11 0 4 0;
#X connect 11 0 3 0;
#X connect 11 1 6 0;
#X connect 11 1 5 0;
#X restore 385 479 pd 2waytoggler;
#X obj 385 423 hradio 20 1 0 2 empty empty empty 0 -8 0 10 -237178
-91543 -91543 0;
#X msg 452 420 0;
#X obj 446 390 r dsc;
#X msg 498 419 1;
#X obj 498 390 r oscrx_handshake;
#X obj 385 451 s radio_conn;
#X obj 307 479 loadbang;
#X obj 354 513 s disconnected;
#X obj 465 513 s connected;
#X text 306 359 Mutual exclusive Toggles as better visualizers than
array;
#X obj 27 99 cnv 15 100 60 empty empty empty 20 12 0 14 -208051 -91543
0;
#X obj 43 181 s disc_m;
#X obj 43 119 r main_reset;
#X obj 43 148 bng 25 250 50 0 empty empty empty 17 7 0 10 -237178 -91543
-91543;
#X obj 289 119 loadbang;
#X obj 289 179 s initial_gain;
#X msg 289 152 0;
#X obj 198 119 r main_reset;
#X connect 1 0 2 0;
#X connect 2 0 4 0;
#X connect 4 0 3 0;
#X connect 6 0 14 0;
#X connect 6 1 15 0;
#X connect 7 0 6 0;
#X connect 7 0 12 0;
#X connect 8 0 7 0;
#X connect 9 0 8 0;
#X connect 10 0 7 0;
#X connect 11 0 10 0;
#X connect 13 0 14 0;
#X connect 19 0 20 0;
#X connect 20 0 18 0;
#X connect 21 0 23 0;
#X connect 23 0 22 0;
#X connect 24 0 23 0;
#X restore 1268 632 pd cable_management;
#N canvas 1 89 1272 678 control_logic 0;
#X msg 39 85 1;
#X msg 118 86 0;
#X obj 39 63 r b_startrec;
#X obj 118 63 r b_stoprec;
#N canvas 0 50 450 300 round1 0;
#X floatatom 47 157 11 0 0 1 - - -;
#X obj 47 57 * 10, f 6;
#X obj 47 107 int, f 6;
#X obj 47 131 / 10, f 6;
#X obj 47 82 0.499999, f 26;
#X obj 48 24 inlet;
#X obj 47 184 outlet;
#X connect 0 0 6 0;
#X connect 1 0 4 0;
#X connect 2 0 3 0;
#X connect 3 0 0 0;
#X connect 4 0 2 0;
#X connect 5 0 1 0;
#X restore 409 95 pd round1;
#X obj 409 124 s vis_gain;
#X obj 409 63 r s_gain;
#X obj 39 313 s osc_msg_tosend;
#X obj 941 63 r disc_m;
#X msg 941 138 -100;
#X obj 941 174 s oscrx_meter;
#X obj 941 92 delay 1000;
#X obj 526 125 expr pow(10\\\, $f1/20);
#X floatatom 526 154 22 0 0 0 empty - -;
#X obj 526 337 s osc_msg_tosend;
#X msg 526 306 /parameter/emotionclassifier/gain \$1, f 47;
#X msg 39 290 sendtyped /parameter/emotionclassifier/recstate f \$1
;
#N canvas 1 89 450 300 round1 0;
#X floatatom 47 157 11 0 0 1 - - -;
#X obj 47 57 * 10, f 6;
#X obj 47 107 int, f 6;
#X obj 47 131 / 10, f 6;
#X obj 47 82 0.499999, f 26;
#X obj 48 24 inlet;
#X obj 47 184 outlet;
#X connect 0 0 6 0;
#X connect 1 0 4 0;
#X connect 2 0 3 0;
#X connect 3 0 0 0;
#X connect 4 0 2 0;
#X connect 5 0 1 0;
#X restore 47 514 pd round1;
#X obj 47 488 r oscrx_meter;
#X obj 47 537 s roundedmeter;
#X connect 0 0 16 0;
#X connect 1 0 16 0;
#X connect 2 0 0 0;
#X connect 3 0 1 0;
#X connect 4 0 5 0;
#X connect 4 0 12 0;
#X connect 6 0 4 0;
#X connect 8 0 11 0;
#X connect 9 0 10 0;
#X connect 11 0 9 0;
#X connect 12 0 13 0;
#X connect 13 0 15 0;
#X connect 15 0 14 0;
#X connect 16 0 7 0;
#X connect 17 0 19 0;
#X connect 18 0 17 0;
#X restore 1270 559 pd control_logic;
#X text 1269 89 You shouldn´t need this \; It disconnects the osc
target \; and resets initial slider values;
#X obj 573 331 cnv 15 180 100 empty empty Connection_State 13 19 1
14 -248615 -1 0;
#X obj 598 394 cnv 15 120 25 empty empty empty 20 12 1 15 -204786 -66577
0;
#X obj 598 369 cnv 15 120 25 empty empty empty 20 12 0 14 -261234 -66577
0;
#X obj 598 369 tgl 25 0 empty disconnected Disconnected 28 15 1 10
-261234 -91543 -258113 1 1;
#X obj 598 394 tgl 25 0 empty connected CONNECTED! 28 15 1 10 -237178
-91543 -13381 0 1;
#X obj 426 331 cnv 15 125 300 empty empty empty 8 12 1 14 -248615 -66577
0;
#X floatatom 461 601 10 0 0 1 dB roundedmeter -;
#X obj 573 441 cnv 15 180 190 empty empty empty 8 12 1 14 -248615 -66577
0;
#X obj 589 478 vradio 48 1 0 3 empty oscrx_state PluginState 0 -16
1 15 -237178 -91543 -1 0;
#X obj 908 350 cnv 15 330 261 empty empty empty 20 12 0 14 -228856
-91543 0;
#X obj 1274 31 bng 20 250 50 0 emo_reset main_reset Reset_Display_manually
23 10 1 10 -261234 -1 -86277;
#X obj 920 459 tgl 40 0 empty oscrx_noemo Recording_too_short_or_silent
46 21 1 14 -262144 -258113 -1 0 1;
#X obj 9 8 cnv 15 400 642 empty empty How_To 150 22 1 18 -233017 -66577
0;
#X obj 19 50 cnv 15 380 580 empty empty empty 150 22 1 18 -262144 -66577
0;
#X obj 966 181 hsl 200 20 -100 0 0 0 s_gain initial_gain Recording_gain
-2 -8 1 10 -262144 -1 -1 19900 1;
#X floatatom 1034 210 8 0 0 1 dB vis_gain -;
#X obj 907 66 cnv 15 140 80 empty empty empty 20 12 0 14 -262144 -66577
0;
#X obj 926 94 bng 40 250 50 0 b_startrec empty Start_Recording 0 -10
1 11 -204786 -1 -1;
#X obj 1074 66 cnv 15 140 80 empty empty empty 20 12 0 14 -262144 -66577
0;
#X obj 1089 93 bng 40 250 50 0 b_stoprec empty Stop_and_classify 0
-10 1 11 -261234 -1 -1;
#X text 29 56 To control the Emotion Classification on the ElkPI follow
these instructions \; \; 1 Connect the ElkPI and this Laptop to the
same network. You ~~can use a direct ethernet cable or a common router.
In the ~~first case you might need to tell the laptop to create a ~~shared
connection. Switch on the ElkPI or reboot \; ~~if it was already on
\; \; 2 Find the IP of the ElkPI in the shared network. In a \; --unix
terminal use the following \; --> ping elk-pi.local # This can be useful
\; --> arp -a # This helps if the hostname is not resolved \; \; 3
Find the IP of this laptop IN THE NETWORK shared with the --ElkPI.
One way to do this is to carefully examine the --output of the following
terminal commands: \; --> ifconfig \; --> ip a s \; \; 4 Plug both
the Board_IP and the Controller_IP in the two --message objects on
the right of these instructions. --Hostnames don't seem to work so
use the actual IPs. Leave --the PORT messages untouched. \; \; 5 SSH
into the ElkPI board. From a terminal write: \; -->ssh mind@elk-pi.local
\; --Or replace elk-pi.local with the IP found at 2 \; --Password:
elk \; \; 6 In the ssh terminal \, go into the emotion classification
--directory and run the script call run \; --> cd EmotionClassification
\; --> ./run \; \; 7 From this patch \, exit edit mode and press "Connect
to the --board". Wait for a few seconds and check for a green light
--from the "Connected" toggle button. \; --Now the Record_level meter
should start moving when audio --is fed to the input of the board.
;
#X obj 1269 583 _osc_receiver;
#X obj 1268 608 _emotion_toggler;
#X obj 641 492 cnv 15 50 18 empty empty Idle 8 12 1 14 -248615 -1 0
;
#X obj 640 540 cnv 15 50 18 empty empty Recording 8 12 1 14 -248615
-1 0;
#X obj 641 591 cnv 15 50 18 empty empty Classifying 8 12 1 14 -248615
-1 0;
#X text 1271 8 Reset only the emotion display;
#X obj 504 362 cnv 15 30 18 empty empty ----|0dB 0 12 1 8 -248615 -1
0;
#X obj 503 565 cnv 15 30 18 empty empty ----|-90dB 0 12 1 8 -248615
-1 0;
#X obj 475 374 vsl 25 200 -90 0 0 0 empty oscrx_meter Record_level
-43 -26 1 15 -262144 -1 -1 0 1;
#X obj 537 102 bng 25 250 50 0 disc_m empty <----Disconnect 30 13 1
12 -261234 -1 -1;
#X obj 634 150 cnv 15 212 120 empty empty empty 20 12 0 14 -138231
-66577 0;
#X obj 652 186 cnv 15 70 20 empty empty empty 20 12 0 14 -204786 -66577
0;
#X obj 746 186 cnv 15 70 20 empty empty empty 20 12 0 14 -204786 -66577
0;
#X obj 420 170 t b b b;
#X text 527 166 PORT_1;
#X text 574 166 PORT_2;
#X obj 437 189 r disc_m;
#X obj 420 153 r conn_m;
#X msg 578 188 8042;
#X text 665 166 Board IP;
#X msg 530 188 24024;
#X text 664 218 IP of this computer on the network shared with the
board (do not use localhost), f 29;
#X text 740 166 Controller IP;
#X obj 420 206 _osc_conn;
#X msg 659 188 localhost;
#X msg 751 188 localhost;
#X connect 53 0 64 0;
#X connect 53 0 63 0;
#X connect 53 1 60 0;
#X connect 53 2 58 0;
#X connect 53 2 65 0;
#X connect 56 0 63 1;
#X connect 57 0 53 0;
#X connect 58 0 63 4;
#X connect 60 0 63 3;
#X connect 64 0 63 2;
#X connect 65 0 63 5;
