#N canvas 0 89 1920 1111 12;
#X text 118 130 Aggr;
#X obj 117 156 sel 0 1 2 3 4 5 6 7;
#X msg 117 186 249_aggressive_2_classical-guitar_CesSam_fingers_new4_20200720.wav
, f 66;
#X msg 117 216 332_aggressive_1_classical-guitar_AntDel_pick_new8_20200831.wav
, f 66;
#X msg 117 246 237_aggressive_2_classical-guitar_FedCer_fingers_new3_20200714.wav
, f 66;
#X msg 117 276 87_aggressive_3_steelstring-guitar_TomCan_pick_new1_20200707.wav
, f 66;
#X msg 117 306 160_aggressive_1_steelstring-guitar_MasChi_pick_new5_20200729.wav
, f 66;
#X msg 117 336 162_aggressive_3_steelstring-guitar_MasChi_pick_new5_20200729.wav
, f 66;
#X msg 117 366 163_aggressive_4_steelstring-guitar_MasChi_pick_new5_20200729.wav
, f 66;
#X msg 117 396 85_aggressive_1_steelstring-guitar_TomCan_pick_new1_20200707.wav
, f 66;
#X obj 117 426 list;
#X text 657 126 Aggr/Rel;
#X obj 607 156 sel 0 1 2 3;
#X msg 607 186 103_relaxed_1_steelstring-guitar_TizCam_pick_new5_20200715.wav
, f 66;
#X msg 607 216 77_happy_2_classical-guitar_MatRig_fingers_new3_20200618.wav
, f 66;
#X msg 607 246 186_sad_2_steelstring-guitar_FilMel_fingers_new6_20200729.wav
, f 66;
#X msg 607 276 323_happy_1_steelstring-guitar_NicCon_pick_new4_20200804.wav
, f 66;
#X obj 607 306 list;
#X obj 93 101 cycleCounter, f 13;
#X obj 181 48 loadbang;
#X msg 181 72 8;
#X obj 93 77 bng 15 250 50 0 empty empty empty 17 7 0 10 -262144 -1
-1;
#X obj 93 157 vradio 15 1 0 3 empty empty empty 0 -8 0 10 -262144 -1
-1 0;
#X obj 93 48 r \$0-replay;
#X text 216 72 Num of tracks below;
#X connect 1 0 2 0;
#X connect 1 1 3 0;
#X connect 1 2 4 0;
#X connect 1 3 5 0;
#X connect 1 4 6 0;
#X connect 1 5 7 0;
#X connect 1 6 8 0;
#X connect 1 7 9 0;
#X connect 2 0 10 0;
#X connect 3 0 10 0;
#X connect 4 0 10 0;
#X connect 5 0 10 0;
#X connect 6 0 10 0;
#X connect 7 0 10 0;
#X connect 8 0 10 0;
#X connect 9 0 10 0;
#X connect 12 0 13 0;
#X connect 12 1 14 0;
#X connect 12 2 15 0;
#X connect 12 3 16 0;
#X connect 13 0 17 0;
#X connect 14 0 17 0;
#X connect 15 0 17 0;
#X connect 16 0 17 0;
#X connect 18 0 22 0;
#X connect 19 0 20 0;
#X connect 20 0 18 2;
#X connect 21 0 18 0;
#X connect 22 0 1 0;
#X connect 23 0 21 0;
