#N canvas 1 89 1442 634 10;
#X obj 261 87 r oscrx_state;
#X obj 261 148 bng 25 250 50 0 empty empty empty 17 7 0 10 -237178
-91543 -91543;
#X obj 261 116 sel 1 2;
#X text 261 47 Reset results if state \; is rec or classf;
#X obj 325 116 r emo_reset;
#X obj 408 117 r disc_m;
#N canvas 1 89 450 300 4waytoggler 0;
#X obj 516 205 inlet;
#X text 516 170 Reset;
#X text 245 170 Value 0-3;
#X obj 329 241 hradio 20 1 0 4 empty empty empty 0 -8 0 10 -237178
-91543 -91543 0;
#X obj 441 379 select 0 1 2 3;
#X msg 408 467 0;
#X msg 385 443 1;
#X msg 457 467 0;
#X msg 434 443 1;
#X msg 516 467 0;
#X msg 493 443 1;
#X msg 576 467 0;
#X msg 553 443 1;
#X obj 597 379 bng 25 250 50 0 empty empty empty 17 7 0 10 -237178
-91543 -91543;
#X text 630 378 Reset;
#X obj 254 205 inlet;
#X obj 245 556 outlet;
#X obj 382 556 outlet;
#X obj 522 556 outlet;
#X obj 652 556 outlet;
#X connect 0 0 13 0;
#X connect 4 0 6 0;
#X connect 4 0 5 0;
#X connect 4 1 8 0;
#X connect 4 1 7 0;
#X connect 4 2 10 0;
#X connect 4 2 9 0;
#X connect 4 3 12 0;
#X connect 4 3 11 0;
#X connect 5 0 17 0;
#X connect 5 0 18 0;
#X connect 5 0 19 0;
#X connect 6 0 16 0;
#X connect 7 0 16 0;
#X connect 7 0 18 0;
#X connect 7 0 19 0;
#X connect 8 0 7 0;
#X connect 8 0 17 0;
#X connect 9 0 16 0;
#X connect 9 0 17 0;
#X connect 9 0 19 0;
#X connect 10 0 18 0;
#X connect 11 0 16 0;
#X connect 11 0 17 0;
#X connect 11 0 18 0;
#X connect 12 0 19 0;
#X connect 13 0 5 0;
#X connect 13 0 7 0;
#X connect 13 0 9 0;
#X connect 13 0 11 0;
#X connect 15 0 3 0;
#X connect 15 0 4 0;
#X restore 837 99 pd 4waytoggler;
#N canvas 1 89 682 415 5waytoggler 0;
#X obj 516 205 inlet;
#X text 516 170 Reset;
#X text 245 170 Value 0-3;
#X obj 329 241 hradio 20 1 0 4 empty empty empty 0 -8 0 10 -237178
-91543 -91543 1;
#X msg 408 467 0;
#X msg 385 443 1;
#X msg 457 467 0;
#X msg 434 443 1;
#X msg 516 467 0;
#X msg 493 443 1;
#X msg 576 467 0;
#X msg 553 443 1;
#X obj 597 379 bng 25 250 50 0 empty empty empty 17 7 0 10 -237178
-91543 -91543;
#X text 630 378 Reset;
#X obj 254 205 inlet;
#X obj 245 556 outlet;
#X obj 382 556 outlet;
#X obj 522 556 outlet;
#X obj 652 556 outlet;
#X obj 441 379 select 0 1 2 3 -1;
#X msg 646 467 0;
#X msg 623 443 1;
#X obj 773 556 outlet;
#X connect 0 0 12 0;
#X connect 4 0 16 0;
#X connect 4 0 17 0;
#X connect 4 0 18 0;
#X connect 4 0 22 0;
#X connect 5 0 15 0;
#X connect 6 0 15 0;
#X connect 6 0 17 0;
#X connect 6 0 18 0;
#X connect 6 0 22 0;
#X connect 7 0 6 0;
#X connect 7 0 16 0;
#X connect 8 0 15 0;
#X connect 8 0 16 0;
#X connect 8 0 18 0;
#X connect 8 0 22 0;
#X connect 9 0 17 0;
#X connect 10 0 15 0;
#X connect 10 0 16 0;
#X connect 10 0 17 0;
#X connect 10 0 22 0;
#X connect 11 0 18 0;
#X connect 12 0 4 0;
#X connect 12 0 6 0;
#X connect 12 0 8 0;
#X connect 12 0 10 0;
#X connect 14 0 3 0;
#X connect 14 0 19 0;
#X connect 19 0 5 0;
#X connect 19 0 4 0;
#X connect 19 1 7 0;
#X connect 19 1 6 0;
#X connect 19 2 9 0;
#X connect 19 2 8 0;
#X connect 19 3 11 0;
#X connect 19 3 10 0;
#X connect 19 4 21 0;
#X connect 19 4 20 0;
#X connect 20 0 18 0;
#X connect 20 0 17 0;
#X connect 20 0 16 0;
#X connect 20 0 15 0;
#X connect 21 0 22 0;
#X restore 837 78 pd 5waytoggler;
#X obj 18 99 r oscrx_emotion;
#X obj 18 171 unpack 0 0 0 0;
#X floatatom 18 210 5 0 0 0 - - -;
#X floatatom 85 210 5 0 0 0 - - -;
#X floatatom 129 210 5 0 0 0 - - -;
#X floatatom 173 210 5 0 0 0 - - -;
#X msg 18 310 0;
#X msg 217 337 1;
#X obj 261 179 bng 25 250 50 0 empty empty empty 17 7 0 10 -237178
-91543 -91543;
#X text 294 178 Reset;
#X obj 18 256 select -1;
#X msg 261 209 0;
#X obj 217 394 * 1;
#X obj 18 394 * 1;
#X obj 85 394 * 1;
#X obj 129 394 * 1;
#X obj 173 394 * 1;
#X floatatom 217 417 5 0 0 0 - - -;
#X floatatom 18 417 5 0 0 0 - - -;
#X floatatom 85 417 5 0 0 0 - - -;
#X floatatom 129 417 5 0 0 0 - - -;
#X floatatom 173 417 5 0 0 0 - - -;
#X msg 253 337 0;
#X obj 18 518 s oscrx_res_aggressive;
#X obj 85 498 s oscrx_res_relaxed;
#X obj 129 478 s oscrx_res_happy;
#X obj 173 458 s oscrx_res_sad;
#X obj 217 438 s oscrx_noemo;
#X obj 46 137 print received;
#X obj 469 116 r stop_plugin;
#X connect 0 0 2 0;
#X connect 1 0 16 0;
#X connect 2 0 1 0;
#X connect 2 1 1 0;
#X connect 4 0 1 0;
#X connect 5 0 1 0;
#X connect 8 0 9 0;
#X connect 8 0 36 0;
#X connect 9 0 10 0;
#X connect 9 1 11 0;
#X connect 9 2 12 0;
#X connect 9 3 13 0;
#X connect 10 0 18 0;
#X connect 11 0 22 0;
#X connect 12 0 23 0;
#X connect 13 0 24 0;
#X connect 14 0 21 0;
#X connect 14 0 22 0;
#X connect 14 0 23 0;
#X connect 14 0 24 0;
#X connect 15 0 20 0;
#X connect 16 0 19 0;
#X connect 18 0 15 0;
#X connect 18 0 14 0;
#X connect 18 1 21 0;
#X connect 18 1 30 0;
#X connect 19 0 20 0;
#X connect 19 0 24 0;
#X connect 19 0 23 0;
#X connect 19 0 22 0;
#X connect 19 0 21 0;
#X connect 20 0 25 0;
#X connect 21 0 26 0;
#X connect 22 0 27 0;
#X connect 23 0 28 0;
#X connect 24 0 29 0;
#X connect 25 0 35 0;
#X connect 26 0 31 0;
#X connect 27 0 32 0;
#X connect 28 0 33 0;
#X connect 29 0 34 0;
#X connect 30 0 20 0;
#X connect 37 0 1 0;
#X coords 0 0 1 1 200 140 0;
