#N canvas 354 197 1432 717 10;
#X declare -lib zexy;
#X declare -path mrpeach;
#X obj 15 43 cnv 15 700 700 empty empty empty 20 12 0 14 #fcfcc4 #404040 0;
#X obj 212 203 mrpeach/packOSC;
#X text 27 46 Transmitter;
#X obj 163 308 netsend -u -b;
#X obj 212 237 cyclone/prepend send;
#X obj 731 43 cnv 15 700 700 empty empty empty 20 12 0 14 #c4fcfc #404040 0;
#X text 746 48 Receiver;
#X obj 772 135 mrpeach/unpackOSC;
#X floatatom 772 230 5 0 0 0 - - - 0;
#X text 940 104 Here set the port which the device is listening on for incoming OSC messages;
#X floatatom 815 247 5 0 0 0 - - - 0;
#X floatatom 859 261 5 0 0 0 - - - 0;
#X floatatom 901 278 5 0 0 0 - - - 0;
#X floatatom 933 292 5 0 0 0 - - - 0;
#X floatatom 973 309 5 0 0 0 - - - 0;
#X obj 933 319 s a4;
#X obj 973 336 s a5;
#X floatatom 1015 326 5 0 0 0 - - - 0;
#X floatatom 1055 343 5 0 0 0 - - - 0;
#X floatatom 1095 357 5 0 0 0 - - - 0;
#X floatatom 1135 374 5 0 0 0 - - - 0;
#X floatatom 1176 388 5 0 0 0 - - - 0;
#X floatatom 1216 405 5 0 0 0 - - - 0;
#X obj 1015 353 s x;
#X obj 1055 370 s y;
#X obj 1095 384 s z;
#X obj 1135 401 s d0;
#X obj 1176 415 s d1;
#X obj 1216 432 s d2;
#X obj 1273 462 print warning_message_not_routed;
#X obj 772 109 netreceive -u -b 3333;
#X obj 1449 43 cnv 15 700 700 empty empty empty 20 12 0 14 #c4fcc4 #404040 0;
#X obj 1461 593 mrpeach/packOSC;
#X obj 1461 712 netsend -u -b;
#X obj 1512 657 loadbang;
#X obj 1461 627 cyclone/prepend send;
#X text 1694 675 Here set the address of the device receiving the messages \, and the port which the device is listening on;
#X floatatom 1460 261 5 0 0 0 - - - 0;
#X text 1461 46 Transmitter to laptop (localhost \, where the Processing sketch runs);
#X obj 1571 656 r connect_to_processing;
#X msg 1512 678 connect 127.0.0.1 4444;
#X obj 1460 222 r a0;
#X msg 1460 284 /a0 \$1;
#X floatatom 1520 261 5 0 0 0 - - - 0;
#X obj 1520 222 r a1;
#X msg 1520 284 /a1 \$1;
#X floatatom 1580 261 5 0 0 0 - - - 0;
#X floatatom 1640 261 5 0 0 0 - - - 0;
#X msg 1580 284 /a2 \$1;
#X msg 1640 284 /a3 \$1;
#X obj 1580 222 r a2;
#X obj 1640 222 r a3;
#X floatatom 1730 261 5 0 0 0 - - - 0;
#X floatatom 1790 261 5 0 0 0 - - - 0;
#X floatatom 1850 261 5 0 0 0 - - - 0;
#X obj 1730 222 r x;
#X obj 1790 222 r y;
#X obj 1850 222 r z;
#X msg 1730 284 /x \$1;
#X msg 1790 284 /y \$1;
#X msg 1850 284 /z \$1;
#X floatatom 1930 261 5 0 0 0 - - - 0;
#X floatatom 1990 261 5 0 0 0 - - - 0;
#X floatatom 2050 261 5 0 0 0 - - - 0;
#X obj 1930 222 r do;
#X obj 1990 222 r d1;
#X obj 2050 222 r d2;
#X msg 1930 284 /d0 \$1;
#X msg 1990 284 /d1 \$1;
#X msg 2050 284 /d2 \$1;
#X text 1542 122 Note: in this example I am simply re-routing to Processing the sensors data coming from the Pi (just for the sake of the example);
#X obj 31 158 inlet;
#X text 32 106 Connect and disconnect messages must be sent on inlet 1;
#X obj 318 184 print oscontrol_sending;
#X obj 60 443 cnv 15 300 100 empty empty empty 20 12 0 14 #7c0400 #404040 0;
#X obj 69 453 loadbang;
#X text 62 497 Here set the address of the device receiving the messages \, and the port which the device is listening on, f 46;
#X msg 69 474 connect 192.168.0.101 2222;
#X obj 136 454 r connect_to_pi;
#X text 63 414 Don't use this;
#X obj 212 157 inlet;
#X obj 15 12 declare -lib zexy;
#X obj 137 12 declare -path mrpeach;
#X obj 772 581 s oscrx_state;
#X obj 815 552 s oscrx_emotion;
#X obj 859 523 s oscrx_meter;
#X obj 772 178 mrpeach/routeOSC /state /emotion /meter /handshake /a4 /a5 /x /y /z /d0 /d1 /d2, f 90;
#X obj 901 491 s oscrx_handshake;
#X obj 731 752 bng 25 250 50 0 empty empty empty 17 7 0 10 #e4e4e4 #5a5a5a #5a5a5a;
#X connect 1 0 4 0 empty;
#X connect 4 0 3 0 empty;
#X connect 7 0 86 0 empty;
#X connect 8 0 83 0 empty;
#X connect 10 0 84 0 empty;
#X connect 11 0 85 0 empty;
#X connect 12 0 87 0 empty;
#X connect 12 0 88 0 empty;
#X connect 13 0 15 0 empty;
#X connect 14 0 16 0 empty;
#X connect 17 0 23 0 empty;
#X connect 18 0 24 0 empty;
#X connect 19 0 25 0 empty;
#X connect 20 0 26 0 empty;
#X connect 21 0 27 0 empty;
#X connect 22 0 28 0 empty;
#X connect 30 0 7 0 empty;
#X connect 32 0 35 0 empty;
#X connect 34 0 40 0 empty;
#X connect 35 0 33 0 empty;
#X connect 37 0 42 0 empty;
#X connect 39 0 40 0 empty;
#X connect 40 0 33 0 empty;
#X connect 41 0 37 0 empty;
#X connect 42 0 32 0 empty;
#X connect 43 0 45 0 empty;
#X connect 44 0 43 0 empty;
#X connect 45 0 32 0 empty;
#X connect 46 0 48 0 empty;
#X connect 47 0 49 0 empty;
#X connect 48 0 32 0 empty;
#X connect 49 0 32 0 empty;
#X connect 50 0 46 0 empty;
#X connect 51 0 47 0 empty;
#X connect 52 0 58 0 empty;
#X connect 53 0 59 0 empty;
#X connect 54 0 60 0 empty;
#X connect 55 0 52 0 empty;
#X connect 56 0 53 0 empty;
#X connect 57 0 54 0 empty;
#X connect 58 0 32 0 empty;
#X connect 59 0 32 0 empty;
#X connect 60 0 32 0 empty;
#X connect 61 0 67 0 empty;
#X connect 62 0 68 0 empty;
#X connect 63 0 69 0 empty;
#X connect 64 0 61 0 empty;
#X connect 65 0 62 0 empty;
#X connect 66 0 63 0 empty;
#X connect 67 0 32 0 empty;
#X connect 68 0 32 0 empty;
#X connect 69 0 32 0 empty;
#X connect 71 0 3 0 empty;
#X connect 75 0 77 0 empty;
#X connect 78 0 77 0 empty;
#X connect 80 0 73 0 empty;
#X connect 80 0 1 0 empty;
#X connect 86 0 8 0 empty;
#X connect 86 1 10 0 empty;
#X connect 86 2 11 0 empty;
#X connect 86 3 12 0 empty;
#X connect 86 4 13 0 empty;
#X connect 86 5 14 0 empty;
#X connect 86 6 17 0 empty;
#X connect 86 7 18 0 empty;
#X connect 86 8 19 0 empty;
#X connect 86 9 20 0 empty;
#X connect 86 10 21 0 empty;
#X connect 86 11 22 0 empty;
#X connect 86 12 29 0 empty;
