#N canvas 961 89 958 990 10;
#X declare -lib zexy;
#X declare -path mrpeach;
#X obj 485 209 mrpeach/packOSC;
#X obj 201 591 netsend -u -b;
#X obj 485 243 cyclone/prepend send;
#X obj 41 160 inlet;
#X text 32 106 Connect and disconnect messages must be sent on inlet
1;
#X obj 167 429 print oscontrol_sending;
#X obj 485 163 inlet;
#X obj 15 12 declare -lib zexy;
#X obj 137 12 declare -path mrpeach;
#X obj 195 333 symbol;
#X obj 270 333 i;
#X obj 167 281 bng 15 250 50 0 empty empty empty 17 7 0 10 -262144
-1 -1;
#X obj 167 379 pack s s 0;
#X obj 180 179 route connect;
#X obj 228 269 unpack s 0;
#X floatatom 270 356 5 0 0 0 - - -;
#X msg 167 402 to \$2:\$3;
#X obj 503 187 print oscontrol_sending;
#X obj 290 231 delay 10;
#X obj 290 211 bng 15 250 50 0 empty empty empty 17 7 0 10 -262144
-1 -1;
#X connect 0 0 2 0;
#X connect 2 0 1 0;
#X connect 3 0 1 0;
#X connect 3 0 13 0;
#X connect 6 0 0 0;
#X connect 6 0 19 0;
#X connect 6 0 17 0;
#X connect 9 0 12 1;
#X connect 10 0 15 0;
#X connect 11 0 10 0;
#X connect 11 0 9 0;
#X connect 11 0 12 0;
#X connect 12 0 16 0;
#X connect 13 0 14 0;
#X connect 14 0 9 1;
#X connect 14 1 10 1;
#X connect 15 0 12 2;
#X connect 16 0 5 0;
#X connect 18 0 11 0;
#X connect 19 0 18 0;
