#N canvas 2128 513 1432 717 10;
#X declare -lib zexy;
#X declare -path mrpeach;
#X obj 15 47 cnv 15 700 700 empty empty empty 20 12 0 14 -204800 -66577
0;
#X text 30 52 Receiver;
#X obj 56 139 mrpeach/unpackOSC;
#X floatatom 56 557 5 0 0 0 - - -;
#X text 224 108 Here set the port which the device is listening on
for incoming OSC messages;
#X floatatom 145 496 5 0 0 0 - - -;
#X floatatom 235 323 5 0 0 0 - - -;
#X floatatom 279 322 5 0 0 0 - - -;
#X floatatom 324 339 5 0 0 0 - - -;
#X floatatom 369 356 5 0 0 0 - - -;
#X floatatom 414 370 5 0 0 0 - - -;
#X floatatom 458 387 5 0 0 0 - - -;
#X floatatom 503 401 5 0 0 0 - - -;
#X floatatom 548 418 5 0 0 0 - - -;
#X obj 593 488 print warning_message_not_routed;
#X obj 15 12 declare -lib zexy;
#X obj 137 12 declare -path mrpeach;
#X obj 56 585 s oscrx_state;
#X obj 100 556 s oscrx_emotion;
#X obj 145 527 s oscrx_meter;
#X obj 190 495 s oscrx_handshake;
#X obj 56 113 netreceive -u -b 9042;
#X obj 735 136 mrpeach/unpackOSC;
#X text 903 105 Here set the port which the device is listening on
for incoming OSC messages;
#X obj 735 110 netreceive -u -b 7042;
#X obj 735 215 s pyshake_back;
#X obj 914 215 s py_stopped;
#X obj 735 179 mrpeach/routeOSC /pyshake /stopped /renamed, f 90;
#X obj 1093 217 s py_renamed;
#X obj 56 182 mrpeach/routeOSC /state /emotion /meter /handshake /silence
/a5 /x /y /z /d0 /d1 /d2, f 90;
#X obj 235 471 s oscrx_silence;
#X obj 235 345 - 1;
#X obj 235 368 abs;
#X floatatom 235 447 5 0 0 0 - - -;
#X connect 2 0 29 0;
#X connect 3 0 17 0;
#X connect 5 0 19 0;
#X connect 6 0 31 0;
#X connect 21 0 2 0;
#X connect 22 0 27 0;
#X connect 24 0 22 0;
#X connect 27 0 25 0;
#X connect 27 1 26 0;
#X connect 27 2 28 0;
#X connect 29 0 3 0;
#X connect 29 1 18 0;
#X connect 29 2 5 0;
#X connect 29 3 20 0;
#X connect 29 4 6 0;
#X connect 29 5 7 0;
#X connect 29 6 8 0;
#X connect 29 7 9 0;
#X connect 29 8 10 0;
#X connect 29 9 11 0;
#X connect 29 10 12 0;
#X connect 29 11 13 0;
#X connect 29 12 14 0;
#X connect 31 0 32 0;
#X connect 32 0 33 0;
#X connect 33 0 30 0;
