#N canvas 354 197 1432 717 10;
#X declare -lib zexy;
#X declare -path mrpeach;
#X obj 15 47 cnv 15 700 700 empty empty empty 20 12 0 14 #c4fcfc #404040 0;
#X text 30 52 Receiver;
#X obj 56 139 mrpeach/unpackOSC;
#X floatatom 56 234 5 0 0 0 - - - 0;
#X text 224 108 Here set the port which the device is listening on for incoming OSC messages;
#X floatatom 99 251 5 0 0 0 - - - 0;
#X floatatom 143 265 5 0 0 0 - - - 0;
#X floatatom 185 282 5 0 0 0 - - - 0;
#X floatatom 217 296 5 0 0 0 - - - 0;
#X floatatom 257 313 5 0 0 0 - - - 0;
#X obj 217 323 s a4;
#X obj 257 340 s a5;
#X floatatom 299 330 5 0 0 0 - - - 0;
#X floatatom 339 347 5 0 0 0 - - - 0;
#X floatatom 379 361 5 0 0 0 - - - 0;
#X floatatom 419 378 5 0 0 0 - - - 0;
#X floatatom 460 392 5 0 0 0 - - - 0;
#X floatatom 500 409 5 0 0 0 - - - 0;
#X obj 299 357 s x;
#X obj 339 374 s y;
#X obj 379 388 s z;
#X obj 419 405 s d0;
#X obj 460 419 s d1;
#X obj 500 436 s d2;
#X obj 557 466 print warning_message_not_routed;
#X obj 15 12 declare -lib zexy;
#X obj 137 12 declare -path mrpeach;
#X obj 56 585 s oscrx_state;
#X obj 99 556 s oscrx_emotion;
#X obj 143 527 s oscrx_meter;
#X obj 56 182 mrpeach/routeOSC /state /emotion /meter /handshake /a4 /a5 /x /y /z /d0 /d1 /d2, f 90;
#X obj 185 495 s oscrx_handshake;
#X obj 56 113 netreceive -u -b 9042;
#X connect 2 0 30 0 empty;
#X connect 3 0 27 0 empty;
#X connect 5 0 28 0 empty;
#X connect 6 0 29 0 empty;
#X connect 7 0 31 0 empty;
#X connect 8 0 10 0 empty;
#X connect 9 0 11 0 empty;
#X connect 12 0 18 0 empty;
#X connect 13 0 19 0 empty;
#X connect 14 0 20 0 empty;
#X connect 15 0 21 0 empty;
#X connect 16 0 22 0 empty;
#X connect 17 0 23 0 empty;
#X connect 30 0 3 0 empty;
#X connect 30 1 5 0 empty;
#X connect 30 2 6 0 empty;
#X connect 30 3 7 0 empty;
#X connect 30 4 8 0 empty;
#X connect 30 5 9 0 empty;
#X connect 30 6 12 0 empty;
#X connect 30 7 13 0 empty;
#X connect 30 8 14 0 empty;
#X connect 30 9 15 0 empty;
#X connect 30 10 16 0 empty;
#X connect 30 11 17 0 empty;
#X connect 30 12 24 0 empty;
#X connect 32 0 2 0 empty;
