#N canvas 0 50 450 300 connection_handshake 1;
#N canvas 1 89 450 300 2waytoggler 0;
#X obj 516 205 inlet;
#X text 516 170 Reset;
#X obj 329 241 hradio 20 1 0 2 empty empty empty 0 -8 0 10 #e4e4e4 #585858 #585858 0;
#X msg 308 463 0;
#X msg 285 439 1;
#X msg 357 463 0;
#X msg 334 439 1;
#X obj 516 375 bng 25 250 50 0 empty empty empty 17 7 0 10 #e4e4e4 #585858 #585858;
#X obj 254 205 inlet;
#X obj 245 556 outlet;
#X obj 382 556 outlet;
#X obj 308 375 select 0 1;
#X text 245 170 Value 0-2;
#X text 549 374 Manual Reset;
#X connect 0 0 7 0 empty;
#X connect 3 0 10 0 empty;
#X connect 4 0 9 0 empty;
#X connect 5 0 9 0 empty;
#X connect 6 0 5 0 empty;
#X connect 6 0 10 0 empty;
#X connect 7 0 3 0 empty;
#X connect 7 0 5 0 empty;
#X connect 8 0 2 0 empty;
#X connect 8 0 11 0 empty;
#X connect 11 0 4 0 empty;
#X connect 11 0 3 0 empty;
#X connect 11 1 6 0 empty;
#X connect 11 1 5 0 empty;
#X restore 118 123 pd 2waytoggler;
#X obj 118 67 hradio 20 1 0 2 empty empty empty 0 -8 0 10 #e4e4e4 #5a5a5a #5a5a5a 0;
#X msg 185 64 0;
#X obj 179 34 r dsc;
#X msg 231 63 1;
#X obj 231 34 r oscrx_handshake;
#X obj 118 95 s radio_conn;
#X obj 40 123 loadbang;
#X obj 87 157 s disconnected;
#X obj 198 157 s connected;
#X connect 0 0 8 0 empty;
#X connect 0 1 9 0 empty;
#X connect 1 0 0 0 empty;
#X connect 1 0 6 0 empty;
#X connect 2 0 1 0 empty;
#X connect 3 0 2 0 empty;
#X connect 4 0 1 0 empty;
#X connect 5 0 4 0 empty;
#X connect 7 0 8 0 empty;
