#N canvas 629 125 1217 920 12;
#X text 62 39 Receiver;
#X obj 88 126 mrpeach/unpackOSC;
#X floatatom 88 267 5 0 0 0 - - -;
#X text 256 95 Here set the port which the device is listening on for
incoming OSC messages;
#X floatatom 213 267 5 0 0 0 - - -;
#X obj 577 231 print warning_message_not_routed;
#X obj 88 100 netreceive -u -b 4444;
#X obj 87 297 s oscrx_recstate;
#X obj 213 294 s oscrx_gain;
#X obj 121 221 print received;
#X obj 220 570 r oscrx_recstate;
#X msg 270 818 connect localhost 3333;
#X obj 174 873 netsend -u -b;
#X msg 447 818 disconnect;
#X obj 102 785 mrpeach/packOSC;
#X obj 102 819 cyclone/prepend send;
#X obj 220 628 s osc_tx;
#X obj 102 743 r osc_tx;
#X obj 74 873 print dummy;
#X msg 220 599 /state 1;
#X obj 347 569 r oscrx_classstate;
#X obj 92 569 r oscrx_idlestate;
#X msg 348 602 /state 2;
#X msg 92 602 /state 0;
#X msg 560 367 0;
#X msg 601 367 1;
#X msg 644 367 2;
#X msg 683 367 3;
#X msg 626 434 /emotion \$1;
#X obj 626 459 s osc_tx;
#X obj 91 503 bng 15 250 50 0 empty empty empty 17 7 0 10 -262144 -1
-1;
#X obj 223 504 bng 15 250 50 0 empty empty empty 17 7 0 10 -262144
-1 -1;
#X obj 354 500 bng 15 250 50 0 empty empty empty 17 7 0 10 -262144
-1 -1;
#X obj 91 541 s oscrx_idlestate;
#X obj 219 542 s oscrx_recstate;
#X obj 346 541 s oscrx_classstate;
#X obj 99 383 delay 1000;
#X obj 209 455 delay 5000;
#X obj 202 382 delay 1000;
#X obj 107 327 sel 1 0;
#X obj 591 607 snapshot~;
#X obj 680 524 loadbang;
#X obj 678 547 tgl 15 0 empty empty empty 17 7 0 10 -262144 -1 -1 1
1;
#X obj 591 552 +~ 1;
#X obj 591 577 /~ 2;
#X floatatom 591 708 50 0 0 0 - - -;
#X obj 589 632 * 60;
#X obj 591 657 - 60;
#X msg 590 790 sendtyped /meter f \$1;
#X obj 590 815 s osc_tx;
#X obj 435 352 random 4;
#X floatatom 435 377 5 0 0 0 - - -;
#X obj 435 329 bng 15 250 50 0 empty empty empty 17 7 0 10 -262144
-1 -1;
#X obj 310 784 s osc_tx;
#X obj 311 734 bng 15 250 50 0 empty empty empty 17 7 0 10 -262144
-1 -1;
#X obj 314 208 bng 15 250 50 0 empty empty empty 17 7 0 10 -262144
-1 -1;
#X msg 310 757 /handshake 1;
#X floatatom 780 592 5 0 0 0 - - -;
#X obj 780 567 r oscrx_gain;
#X obj 646 656 * 1;
#X obj 646 631 * 100;
#X obj 646 680 - 100;
#X obj 780 616 + 100;
#X obj 680 567 metro 50;
#X obj 591 527 osc~ 2;
#X obj 89 169 mrpeach/routeOSC /recstate /gain /handshake /disconnect
;
#X obj 472 231 bng 15 250 50 0 empty empty empty 17 7 0 10 -262144
-1 -1;
#X obj 310 268 vsl 15 128 0 127 0 0 empty empty empty 0 -9 0 10 -262144
-1 -1 6528 1;
#X obj 257 239 / 100;
#X obj 257 264 * 127;
#X obj 257 214 + 100;
#X obj 470 792 bng 15 250 50 0 empty empty empty 17 7 0 10 -262144
-1 -1;
#X obj 335 707 delay 1000;
#X obj 445 755 delay 1000;
#X obj 270 785 bng 15 250 50 0 empty empty empty 17 7 0 10 -262144
-1 -1;
#X obj 314 228 s handshakereceived;
#X obj 271 677 r handshakereceived;
#X obj 590 281 s discreceived;
#X obj 444 687 r discreceived;
#X obj 444 724 bng 15 250 50 0 empty empty empty 17 7 0 10 -262144
-1 -1;
#X connect 1 0 65 0;
#X connect 2 0 7 0;
#X connect 2 0 39 0;
#X connect 4 0 8 0;
#X connect 6 0 1 0;
#X connect 10 0 19 0;
#X connect 11 0 12 0;
#X connect 13 0 12 0;
#X connect 14 0 15 0;
#X connect 15 0 12 0;
#X connect 17 0 14 0;
#X connect 17 0 18 0;
#X connect 19 0 16 0;
#X connect 20 0 22 0;
#X connect 21 0 23 0;
#X connect 22 0 16 0;
#X connect 23 0 16 0;
#X connect 24 0 28 0;
#X connect 25 0 28 0;
#X connect 26 0 28 0;
#X connect 27 0 28 0;
#X connect 28 0 29 0;
#X connect 30 0 33 0;
#X connect 31 0 34 0;
#X connect 32 0 35 0;
#X connect 36 0 31 0;
#X connect 37 0 30 0;
#X connect 37 0 52 0;
#X connect 38 0 32 0;
#X connect 38 0 37 0;
#X connect 39 0 36 0;
#X connect 39 1 38 0;
#X connect 40 0 46 0;
#X connect 40 0 60 0;
#X connect 41 0 42 0;
#X connect 42 0 63 0;
#X connect 43 0 44 0;
#X connect 44 0 40 0;
#X connect 45 0 48 0;
#X connect 46 0 47 0;
#X connect 48 0 49 0;
#X connect 50 0 51 0;
#X connect 51 0 28 0;
#X connect 52 0 50 0;
#X connect 54 0 56 0;
#X connect 55 0 75 0;
#X connect 56 0 53 0;
#X connect 57 0 62 0;
#X connect 58 0 57 0;
#X connect 59 0 61 0;
#X connect 60 0 59 0;
#X connect 61 0 45 0;
#X connect 62 0 60 1;
#X connect 63 0 40 0;
#X connect 64 0 43 0;
#X connect 65 0 2 0;
#X connect 65 0 9 0;
#X connect 65 1 4 0;
#X connect 65 1 9 0;
#X connect 65 1 70 0;
#X connect 65 2 55 0;
#X connect 65 3 66 0;
#X connect 65 4 5 0;
#X connect 66 0 77 0;
#X connect 68 0 69 0;
#X connect 69 0 67 0;
#X connect 70 0 68 0;
#X connect 72 0 54 0;
#X connect 73 0 13 0;
#X connect 73 0 71 0;
#X connect 74 0 11 0;
#X connect 76 0 74 0;
#X connect 76 0 72 0;
#X connect 78 0 79 0;
#X connect 79 0 73 0;
