#N canvas 0 50 450 300 10;
#X obj 152 177 hradio 20 1 0 4 empty empty empty 0 -8 0 10 #e4e4e4 #585858 #585858 0;
#X obj 13 398 s oscrx_res_aggressive;
#X obj 34 369 s oscrx_res_relaxed;
#X obj 51 338 s oscrx_res_happy;
#X obj 71 309 s oscrx_res_sad;
#X obj 10 124 r oscrx_emotion;
#X obj 176 58 r oscrx_state;
#X obj 176 119 bng 25 250 50 0 empty empty empty 17 7 0 10 #e4e4e4 #5a5a5a #5a5a5a;
#X obj 176 87 sel 1 2;
#X text 176 18 Reset results if state \; is rec or classf;
#X obj 240 87 r emo_reset;
#X obj 334 87 r disc_m;
#N canvas 1 89 450 300 4waytoggler 1;
#X obj 516 205 inlet;
#X text 516 170 Reset;
#X text 245 170 Value 0-3;
#X obj 329 241 hradio 20 1 0 4 empty empty empty 0 -8 0 10 #e4e4e4 #585858 #585858 0;
#X obj 441 379 select 0 1 2 3;
#X msg 408 467 0;
#X msg 385 443 1;
#X msg 457 467 0;
#X msg 434 443 1;
#X msg 516 467 0;
#X msg 493 443 1;
#X msg 576 467 0;
#X msg 553 443 1;
#X obj 597 379 bng 25 250 50 0 empty empty empty 17 7 0 10 #e4e4e4 #585858 #585858;
#X text 630 378 Reset;
#X obj 254 205 inlet;
#X obj 245 556 outlet;
#X obj 382 556 outlet;
#X obj 522 556 outlet;
#X obj 652 556 outlet;
#X connect 0 0 13 0 empty;
#X connect 4 0 6 0 empty;
#X connect 4 0 5 0 empty;
#X connect 4 1 8 0 empty;
#X connect 4 1 7 0 empty;
#X connect 4 2 10 0 empty;
#X connect 4 2 9 0 empty;
#X connect 4 3 12 0 empty;
#X connect 4 3 11 0 empty;
#X connect 5 0 17 0 empty;
#X connect 5 0 18 0 empty;
#X connect 5 0 19 0 empty;
#X connect 6 0 16 0 empty;
#X connect 7 0 16 0 empty;
#X connect 7 0 18 0 empty;
#X connect 7 0 19 0 empty;
#X connect 8 0 7 0 empty;
#X connect 8 0 17 0 empty;
#X connect 9 0 16 0 empty;
#X connect 9 0 17 0 empty;
#X connect 9 0 19 0 empty;
#X connect 10 0 18 0 empty;
#X connect 11 0 16 0 empty;
#X connect 11 0 17 0 empty;
#X connect 11 0 18 0 empty;
#X connect 12 0 19 0 empty;
#X connect 13 0 5 0 empty;
#X connect 13 0 7 0 empty;
#X connect 13 0 9 0 empty;
#X connect 13 0 11 0 empty;
#X connect 15 0 3 0 empty;
#X connect 15 0 4 0 empty;
#X restore 392 189 pd 4waytoggler;
#X obj 91 275 s oscrx_noemo;
#N canvas 1 89 450 300 5waytoggler 1;
#X obj 516 205 inlet;
#X text 516 170 Reset;
#X text 245 170 Value 0-3;
#X obj 329 241 hradio 20 1 0 4 empty empty empty 0 -8 0 10 #e4e4e4 #585858 #585858 0;
#X msg 408 467 0;
#X msg 385 443 1;
#X msg 457 467 0;
#X msg 434 443 1;
#X msg 516 467 0;
#X msg 493 443 1;
#X msg 576 467 0;
#X msg 553 443 1;
#X obj 597 379 bng 25 250 50 0 empty empty empty 17 7 0 10 #e4e4e4 #585858 #585858;
#X text 630 378 Reset;
#X obj 254 205 inlet;
#X obj 245 556 outlet;
#X obj 382 556 outlet;
#X obj 522 556 outlet;
#X obj 652 556 outlet;
#X obj 441 379 select 0 1 2 3 -1;
#X msg 646 467 0;
#X msg 623 443 1;
#X obj 773 556 outlet;
#X connect 0 0 12 0 empty;
#X connect 4 0 16 0 empty;
#X connect 4 0 17 0 empty;
#X connect 4 0 18 0 empty;
#X connect 4 0 22 0 empty;
#X connect 5 0 15 0 empty;
#X connect 6 0 15 0 empty;
#X connect 6 0 17 0 empty;
#X connect 6 0 18 0 empty;
#X connect 6 0 22 0 empty;
#X connect 7 0 6 0 empty;
#X connect 7 0 16 0 empty;
#X connect 8 0 15 0 empty;
#X connect 8 0 16 0 empty;
#X connect 8 0 18 0 empty;
#X connect 8 0 22 0 empty;
#X connect 9 0 17 0 empty;
#X connect 10 0 15 0 empty;
#X connect 10 0 16 0 empty;
#X connect 10 0 17 0 empty;
#X connect 10 0 22 0 empty;
#X connect 11 0 18 0 empty;
#X connect 12 0 4 0 empty;
#X connect 12 0 6 0 empty;
#X connect 12 0 8 0 empty;
#X connect 12 0 10 0 empty;
#X connect 14 0 3 0 empty;
#X connect 14 0 19 0 empty;
#X connect 19 0 5 0 empty;
#X connect 19 0 4 0 empty;
#X connect 19 1 7 0 empty;
#X connect 19 1 6 0 empty;
#X connect 19 2 9 0 empty;
#X connect 19 2 8 0 empty;
#X connect 19 3 11 0 empty;
#X connect 19 3 10 0 empty;
#X connect 19 4 21 0 empty;
#X connect 19 4 20 0 empty;
#X connect 20 0 18 0 empty;
#X connect 20 0 17 0 empty;
#X connect 20 0 16 0 empty;
#X connect 20 0 15 0 empty;
#X connect 21 0 22 0 empty;
#X restore 11 226 pd 5waytoggler;
#X connect 5 0 0 0 empty;
#X connect 5 0 14 0 empty;
#X connect 6 0 8 0 empty;
#X connect 7 0 14 1 empty;
#X connect 8 0 7 0 empty;
#X connect 8 1 7 0 empty;
#X connect 10 0 7 0 empty;
#X connect 11 0 7 0 empty;
#X connect 14 0 1 0 empty;
#X connect 14 1 2 0 empty;
#X connect 14 2 3 0 empty;
#X connect 14 3 4 0 empty;
#X connect 14 4 13 0 empty;
#X coords 0 0 1 1 200 140 0;
