#N canvas 2431 274 1334 744 10;
#X declare -lib zexy -lib mrpeach;
#X obj 459 39 cnv 15 1250 350 empty empty 2._Control 10 22 0 20 #dcdcdc #000000 0;
#X obj 11 42 cnv 15 330 350 empty empty 1._Establish_Connection 10 22 0 20 #dcdcdc #000000 0;
#X obj 11 405 cnv 15 400 410 empty empty Monitor 20 12 0 20 #fce0c4 #404040 0;
#X obj 106 177 cnv 15 220 50 empty empty empty 20 12 0 14 #fcfcc4 #404040 0;
#X msg 111 202 localhost;
#X obj 25 93 bng 25 250 50 0 conn_m empty empty 17 7 0 10 #c4fcc4 #000000 #000000;
#X obj 67 346 cnv 15 100 20 empty empty empty 20 12 0 14 #c4fcc4 #404040 0;
#X obj 67 316 cnv 15 110 20 empty empty empty 20 12 0 14 #fcc4c4 #404040 0;
#X obj 25 123 bng 25 250 50 0 disc_m empty empty 17 7 0 10 #fcc4c4 #000000 #000000;
#X text 53 123 <---Disconnect;
#X obj 759 115 vsl 18 153 -100 0 0 0 s_gain initial_gain Input\ Gain 0 -10 0 15 #fcfcfc #000000 #000000 0 1;
#X floatatom 759 277 8 0 0 1 dB vis_gain - 16;
#X obj 498 115 bng 40 250 50 0 b_startrec empty Start_Recording 0 -10 1 15 #c4fcc4 #000000 #000000;
#X obj 619 115 bng 40 250 50 0 b_stoprec empty Stop_and_classify 0 -10 1 15 #fcc4c4 #000000 #000000;
#X obj 43 472 vsl 18 153 -90 0 0 0 empty oscrx_meter empty 0 -9 0 10 #fcfcfc #000000 #000000 0 1;
#X obj 25 185 t b b b;
#X obj 10 14 declare -lib zexy -lib mrpeach;
#X text 198 176 PORT_1;
#X text 271 176 PORT_2;
#X obj 427 405 cnv 15 480 410 empty empty Results 20 12 0 20 #c8c8c8 #585858 0;
#X obj 441 469 cnv 15 100 60 empty empty empty 20 12 0 14 #fcfcfc #585858 0;
#X obj 550 469 cnv 15 100 60 empty empty empty 20 12 0 14 #fcfcfc #585858 0;
#X obj 659 469 cnv 15 100 60 empty empty empty 20 12 0 14 #fcfcfc #585858 0;
#X obj 767 469 cnv 15 100 60 empty empty empty 20 12 0 14 #fcfcfc #585858 0;
#X obj 452 487 tgl 40 0 empty oscrx_res_aggressive Aggressive 0 -10 0 18 #d01000 #000000 #000000 0 1;
#X obj 561 487 tgl 40 0 empty oscrx_res_relaxed Relaxed 0 -10 0 18 #00a4cc #000000 #000000 0 1;
#X obj 671 487 tgl 40 0 empty oscrx_res_happy Happy 0 -10 0 18 #2cb000 #000000 #000000 0 1;
#X obj 777 487 tgl 40 0 empty oscrx_res_sad Sad 0 -10 0 18 #a8a8a8 #000000 #000000 0 1;
#X obj 217 559 vradio 48 1 0 3 empty oscrx_state PluginState -15 -12 0 18 #e4e4e4 #585858 #000000 0;
#X text 275 571 Idle;
#X text 275 620 Recording;
#X text 275 664 Classifying;
#X obj 756 414 bng 22 250 50 0 emo_reset main_reset Manual\ Reset 28 10 1 15 #ffffff #000000 #000000;
#X text 52 96 <---- Connect to Classification plugin;
#X obj 217 479 tgl 48 0 empty connected Connection\ Status -40 -15 0 18 #ffffff #008616 #000000 0 1;
#X obj 67 315 tgl 25 0 empty disconnected empty 17 7 0 10 #e4e4e4 #5a5a5a #5a5a5a 0 1;
#X obj 30 327 vradio 20 1 0 2 empty radio_conn empty 0 -8 0 10 #e4e4e4 #5a5a5a #5a5a5a 0;
#X obj 67 346 tgl 25 0 empty connected empty 17 7 0 10 #e4e4e4 #5a5a5a #5a5a5a 0 1;
#X text 58 462 < 0 dB;
#X text 57 610 < -90 dB;
#X obj 918 468 emotion_toggler;
#X obj 995 179 bng 34 250 50 0 main_reset empty MAIN\ RESET 40 16 0 20 #fe6464 #3f3f3f #5a5a5a;
#X obj 919 436 osc_receiver;
#X obj 35 278 osc_connection;
#X obj 55 236 r disc_m;
#X text 86 345 CONNECTED!;
#X text 87 314 disconnected;
#N canvas 0 50 450 300 round1 1;
#X floatatom 47 157 11 0 0 1 - - - 12;
#X obj 47 57 * 10, f 6;
#X obj 47 107 int, f 6;
#X obj 47 131 / 10, f 6;
#X obj 47 82 0.499999, f 26;
#X obj 48 24 inlet;
#X obj 47 184 outlet;
#X connect 0 0 6 0 empty;
#X connect 1 0 4 0 empty;
#X connect 2 0 3 0 empty;
#X connect 3 0 0 0 empty;
#X connect 4 0 2 0 empty;
#X connect 5 0 1 0 empty;
#X restore 39 635 pd round1;
#X floatatom 39 665 8 0 0 1 dB - - 16;
#N canvas 0 50 450 300 cable_management 1;
#X text 27 32 Background program logic for the EmotionClassifier Controller;
#X obj 27 382 loadbang;
#X obj 27 408 delay 1000;
#X msg 27 475 \; pd dsp \$1;
#X obj 27 436 tgl 30 0 empty empty empty 17 7 0 10 #9c9c9c #000000 #000000 0 1;
#X text 66 426 <-Click to \; start/stop DSP;
#N canvas 1 89 450 300 2waytoggler 0;
#X obj 516 205 inlet;
#X text 516 170 Reset;
#X obj 329 241 hradio 20 1 0 2 empty empty empty 0 -8 0 10 #e4e4e4 #585858 #585858 0;
#X msg 308 463 0;
#X msg 285 439 1;
#X msg 357 463 0;
#X msg 334 439 1;
#X obj 516 375 bng 25 250 50 0 empty empty empty 17 7 0 10 #e4e4e4 #585858 #585858;
#X obj 254 205 inlet;
#X obj 245 556 outlet;
#X obj 382 556 outlet;
#X obj 308 375 select 0 1;
#X text 245 170 Value 0-2;
#X text 549 374 Manual Reset;
#X connect 0 0 7 0 empty;
#X connect 3 0 10 0 empty;
#X connect 4 0 9 0 empty;
#X connect 5 0 9 0 empty;
#X connect 6 0 5 0 empty;
#X connect 6 0 10 0 empty;
#X connect 7 0 3 0 empty;
#X connect 7 0 5 0 empty;
#X connect 8 0 2 0 empty;
#X connect 8 0 11 0 empty;
#X connect 11 0 4 0 empty;
#X connect 11 0 3 0 empty;
#X connect 11 1 6 0 empty;
#X connect 11 1 5 0 empty;
#X restore 385 479 pd 2waytoggler;
#X obj 385 423 hradio 20 1 0 2 empty empty empty 0 -8 0 10 #e4e4e4 #5a5a5a #5a5a5a 0;
#X msg 452 420 0;
#X obj 446 390 r dsc;
#X msg 498 419 1;
#X obj 498 390 r oscrx_handshake;
#X obj 385 451 s radio_conn;
#X obj 307 479 loadbang;
#X obj 354 513 s disconnected;
#X obj 465 513 s connected;
#X text 306 359 Mutual exclusive Toggles as better visualizers than array;
#X obj 27 99 cnv 15 100 60 empty empty empty 20 12 0 14 #c8c8c8 #5a5a5a 0;
#X obj 43 181 s disc_m;
#X obj 43 119 r main_reset;
#X obj 43 148 bng 25 250 50 0 empty empty empty 17 7 0 10 #e4e4e4 #5a5a5a #5a5a5a;
#X obj 289 119 loadbang;
#X obj 289 179 s initial_gain;
#X msg 289 152 0;
#X obj 198 119 r main_reset;
#X connect 1 0 2 0 empty;
#X connect 2 0 4 0 empty;
#X connect 4 0 3 0 empty;
#X connect 6 0 14 0 empty;
#X connect 6 1 15 0 empty;
#X connect 7 0 6 0 empty;
#X connect 7 0 12 0 empty;
#X connect 8 0 7 0 empty;
#X connect 9 0 8 0 empty;
#X connect 10 0 7 0 empty;
#X connect 11 0 10 0 empty;
#X connect 13 0 14 0 empty;
#X connect 19 0 20 0 empty;
#X connect 20 0 18 0 empty;
#X connect 21 0 23 0 empty;
#X connect 23 0 22 0 empty;
#X connect 24 0 23 0 empty;
#X restore 918 501 pd cable_management;
#N canvas 0 50 450 300 control_logic 1;
#X msg 39 85 1;
#X msg 118 86 0;
#X obj 39 63 r b_startrec;
#X obj 118 63 r b_stoprec;
#N canvas 0 50 450 300 round1 1;
#X floatatom 47 157 11 0 0 1 - - - 12;
#X obj 47 57 * 10, f 6;
#X obj 47 107 int, f 6;
#X obj 47 131 / 10, f 6;
#X obj 47 82 0.499999, f 26;
#X obj 48 24 inlet;
#X obj 47 184 outlet;
#X connect 0 0 6 0 empty;
#X connect 1 0 4 0 empty;
#X connect 2 0 3 0 empty;
#X connect 3 0 0 0 empty;
#X connect 4 0 2 0 empty;
#X connect 5 0 1 0 empty;
#X restore 409 95 pd round1;
#X obj 409 124 s vis_gain;
#X obj 409 63 r s_gain;
#X obj 39 313 s osc_msg_tosend;
#X obj 941 63 r disc_m;
#X msg 941 138 -100;
#X obj 941 174 s oscrx_meter;
#X obj 941 92 delay 1000;
#X obj 526 125 expr pow(10\\\, $f1/20);
#X floatatom 526 154 22 0 0 0 empty - - 16;
#X obj 526 337 s osc_msg_tosend;
#X msg 526 306 /parameter/emotionclassifier/gain \$1, f 47;
#X msg 39 290 sendtyped /parameter/emotionclassifier/recstate f \$1;
#X connect 0 0 16 0 empty;
#X connect 1 0 16 0 empty;
#X connect 2 0 0 0 empty;
#X connect 3 0 1 0 empty;
#X connect 4 0 5 0 empty;
#X connect 4 0 12 0 empty;
#X connect 6 0 4 0 empty;
#X connect 8 0 11 0 empty;
#X connect 9 0 10 0 empty;
#X connect 11 0 9 0 empty;
#X connect 12 0 13 0 empty;
#X connect 13 0 15 0 empty;
#X connect 15 0 14 0 empty;
#X connect 16 0 7 0 empty;
#X restore 920 405 pd control_logic;
#X text 988 94 You shouldn´t need this \; It disconnects the osc target \; and resets initial slider values;
#X obj 25 154 r conn_m;
#X msg 201 202 4444;
#X msg 274 202 8042;
#X text 118 179 Board IP;
#X text 339 98 IP of this computer \; on the network shared with the board (do not use localhost), f 17;
#X msg 338 202 127.0.0.1;
#X obj 452 540 tgl 40 0 empty oscrx_noemo Recording\ is\ too\ short\ or\ silent 40 20 0 18 #c0d0c4 #000000 #000000 0 1;
#X connect 4 0 43 2 empty;
#X connect 14 0 47 0 empty;
#X connect 15 0 4 0 empty;
#X connect 15 0 43 0 empty;
#X connect 15 1 53 0 empty;
#X connect 15 2 54 0 empty;
#X connect 15 2 57 0 empty;
#X connect 44 0 43 1 empty;
#X connect 47 0 48 0 empty;
#X connect 52 0 15 0 empty;
#X connect 53 0 43 3 empty;
#X connect 54 0 43 4 empty;
#X connect 57 0 43 5 empty;
