#N canvas 599 120 1287 990 10;
#X declare -lib zexy -lib mrpeach;
#X obj 505 7 cnv 15 277 270 empty empty 3._Control 8 16 1 15 -257562
-1 0;
#X obj 15 7 cnv 15 230 270 empty empty 1_Establish_Connection 8 16
1 15 -212671 -1 0;
#X obj 16 292 cnv 15 460 355 empty empty Monitor 12 18 1 18 -261682
-1 0;
#X obj 36 51 bng 25 250 50 0 \$0-conn_m empty <----Connect_to_board
30 13 1 12 -150464 -1 -1;
#X obj 1573 735 declare -lib zexy -lib mrpeach;
#X obj 483 292 cnv 15 350 355 empty empty Results(Predicted_Emotion)
12 18 1 18 -208051 -1 0;
#X obj 502 348 cnv 15 100 60 empty empty empty 20 12 0 14 -262144 -91543
0;
#X obj 502 415 cnv 15 100 60 empty empty empty 20 12 0 14 -262144 -91543
0;
#X obj 502 482 cnv 15 100 60 empty empty empty 20 12 0 14 -262144 -91543
0;
#X obj 502 549 cnv 15 100 60 empty empty empty 20 12 0 14 -262144 -91543
0;
#X obj 505 366 tgl 40 0 empty oscrx_res_aggressive Aggressive 0 -10
1 15 -213249 -1 -1 0 1;
#X obj 504 434 tgl 40 0 empty oscrx_res_relaxed Relaxed 0 -10 1 15
-2676 -1 -1 0 1;
#X obj 504 501 tgl 40 0 empty oscrx_res_happy Happy 0 -10 1 15 -47873
-1 -1 0 1;
#X obj 505 568 tgl 40 0 empty oscrx_res_sad Sad 0 -10 1 15 -174763
-1 -1 0 1;
#X obj 871 595 bng 20 250 50 0 main_reset empty Main_Reset 23 13 1
11 -261234 -1 -1;
#N canvas 567 158 1272 678 control_logic 1;
#X msg 39 85 1;
#X msg 118 86 0;
#X obj 39 63 r b_startrec;
#X obj 118 63 r b_stoprec;
#N canvas 0 50 450 300 round1 0;
#X floatatom 47 157 11 0 0 1 - - -;
#X obj 47 57 * 10, f 6;
#X obj 47 107 int, f 6;
#X obj 47 131 / 10, f 6;
#X obj 47 82 0.499999, f 26;
#X obj 48 24 inlet;
#X obj 47 184 outlet;
#X connect 0 0 6 0;
#X connect 1 0 4 0;
#X connect 2 0 3 0;
#X connect 3 0 0 0;
#X connect 4 0 2 0;
#X connect 5 0 1 0;
#X restore 91 252 pd round1;
#X obj 104 278 s vis_gain;
#X obj 91 220 r s_gain;
#X obj 39 148 s osc_msg_tosend;
#X obj 91 305 expr pow(10\\\, $f1/20);
#X floatatom 91 334 22 0 0 0 empty - -;
#X obj 91 385 s osc_msg_tosend;
#X msg 91 358 /parameter/emotionclassifier/gain \$1, f 47;
#X msg 39 125 sendtyped /parameter/emotionclassifier/recstate f \$1
;
#N canvas 1 89 450 300 round1 0;
#X floatatom 47 157 11 0 0 1 - - -;
#X obj 47 57 * 10, f 6;
#X obj 47 107 int, f 6;
#X obj 47 131 / 10, f 6;
#X obj 47 82 0.499999, f 26;
#X obj 48 24 inlet;
#X obj 47 184 outlet;
#X connect 0 0 6 0;
#X connect 1 0 4 0;
#X connect 2 0 3 0;
#X connect 3 0 0 0;
#X connect 4 0 2 0;
#X connect 5 0 1 0;
#X restore 47 514 pd round1;
#X obj 47 488 r oscrx_meter;
#X obj 47 537 s roundedmeter;
#X connect 0 0 12 0;
#X connect 1 0 12 0;
#X connect 2 0 0 0;
#X connect 3 0 1 0;
#X connect 4 0 5 0;
#X connect 4 0 8 0;
#X connect 6 0 4 0;
#X connect 8 0 9 0;
#X connect 9 0 11 0;
#X connect 11 0 10 0;
#X connect 12 0 7 0;
#X connect 13 0 15 0;
#X connect 14 0 13 0;
#X restore 1573 759 pd control_logic;
#X text 869 545 You shouldn´t need this \; It disconnects the osc
target \; and resets initial slider values;
#X obj 159 329 cnv 15 310 125 empty empty Connection_State 13 19 1
14 -248615 -1 0;
#X obj 167 404 cnv 15 120 25 empty empty empty 20 12 1 15 -204786 -66577
0;
#X obj 167 379 cnv 15 120 25 empty empty empty 20 12 0 14 -261234 -66577
0;
#X obj 167 379 tgl 25 0 empty disconnected Disconnected 28 15 1 10
-261234 -91543 -258113 1 1;
#X obj 167 404 tgl 25 0 empty connected CONNECTED! 28 15 1 10 -237178
-91543 -13381 0 1;
#X obj 22 329 cnv 15 125 300 empty empty empty 8 12 1 14 -248615 -66577
0;
#X floatatom 57 599 10 0 0 1 dB roundedmeter -;
#X obj 159 465 cnv 15 310 165 empty empty empty 8 12 1 14 -248615 -66577
0;
#X obj 254 500 vradio 40 1 0 3 empty oscrx_state PluginState 0 -16
1 15 -237178 -91543 -1 0;
#X obj 608 348 cnv 15 200 261 empty empty empty 20 12 0 14 -228856
-91543 0;
#X obj 874 487 bng 20 250 50 0 emo_reset main_reset Reset_Display_manually
23 10 1 10 -261234 -1 -86277;
#X obj 612 457 tgl 40 0 empty oscrx_noemo empty 46 21 1 14 -262144
-258113 -1 0 1;
#X floatatom 524 240 8 0 0 1 dB vis_gain -;
#X obj 613 36 cnv 15 150 70 empty empty empty 20 12 0 14 -262144 -66577
0;
#X obj 627 57 bng 40 250 50 0 b_startrec empty Start_Recording 0 -10
1 11 -204786 -1 -1;
#X obj 613 110 cnv 15 150 70 empty empty empty 20 12 0 14 -262144 -66577
0;
#X obj 627 131 bng 40 250 50 0 b_stoprec empty Stop_and_classify 0
-10 1 11 -261234 -1 -1;
#X obj 1572 783 _osc_receiver;
#X obj 1571 808 _emotion_toggler;
#X obj 301 511 cnv 15 50 18 empty empty Idle 8 12 1 14 -248615 -1 0
;
#X obj 302 550 cnv 15 50 18 empty empty Recording 8 12 1 14 -248615
-1 0;
#X obj 302 587 cnv 15 50 18 empty empty Classifying 8 12 1 14 -248615
-1 0;
#X text 871 464 Reset only the emotion display;
#X obj 100 360 cnv 15 30 18 empty empty ----|0dB 0 12 1 8 -248615 -1
0;
#X obj 99 563 cnv 15 30 18 empty empty ----|-90dB 0 12 1 8 -248615
-1 0;
#X obj 71 372 vsl 25 200 -90 0 0 0 empty oscrx_meter Record_level -43
-26 1 15 -262144 -1 -1 0 1;
#X obj 36 90 bng 25 250 50 0 \$0-disc_m empty <----Disconnect 30 13
1 12 -261234 -1 -1;
#X obj 33 156 cnv 15 70 20 empty empty empty 20 12 0 14 -204786 -66577
0;
#X obj 537 71 vsl 20 160 -100 0 0 0 s_gain initial_gain Recording_gain
-28 -12 1 10 -262144 -1 -1 15900 1;
#X text 117 135 Computer IP;
#X obj 296 382 tgl 18 0 empty plg_electric Electric_Plugin_Started
22 11 1 10 -262144 -1 -1 0 1;
#X obj 296 432 tgl 18 0 empty plg_piano Piano_Plugin_Started 22 11
1 10 -262144 -1 -1 0 1;
#X obj 296 407 tgl 18 0 empty plg_acoustic Acoustic_Plugin_Started
22 11 1 10 -262144 -1 -1 0 1;
#X obj 296 358 tgl 18 0 empty plg_no NO_PLUGIN_STARTED 22 11 1 10 -261234
-1 -1 0 1;
#X obj 118 156 cnv 15 70 20 empty empty empty 20 12 0 14 -204786 -66577
0;
#X text 46 136 Board IP;
#X obj 89 255 _osc_conn2;
#X obj 23 206 r \$0-conn_m;
#X obj 100 238 r \$0-disc_m;
#X obj 255 7 cnv 15 240 270 empty empty 2._Start_A_Plugin 8 16 1 15
-233467 -66577 0;
#X obj 271 85 bng 25 250 50 0 start_electric empty Start_Electric_Guitar_Plugin
30 14 1 11 -204786 -1 -1;
#X obj 271 116 bng 25 250 50 0 start_acoustic empty Start_Acoustic_Guitar_Plugin
30 14 1 11 -204786 -1 -1;
#X obj 271 147 bng 25 250 50 0 start_piano empty Start_Piano_Plugin
30 14 1 11 -204786 -1 -1;
#X obj 271 201 bng 25 250 50 0 stop_plugin empty Stop_Plugin 30 14
1 11 -261234 -1 -1;
#X obj 146 204 r \$0-handshake;
#X obj 1233 1191 cnv 15 360 355 empty empty Renamer_logic 20 12 1 14
-228856 -33289 0;
#X obj 1244 1251 cnv 25 160 25 empty empty empty 20 12 0 14 -204786
-66577 0;
#X obj 1344 1358 cnv 25 100 25 empty empty empty 20 12 0 14 -262130
-66577 0;
#X obj 1394 1481 cnv 25 100 25 empty empty empty 20 12 0 14 -262130
-66577 0;
#X obj 1300 1323 cnv 25 160 25 empty empty empty 20 12 0 14 -204786
-66577 0;
#X obj 1366 1412 cnv 25 100 25 empty empty empty 20 12 0 14 -262130
-66577 0;
#X obj 1375 1447 cnv 25 100 25 empty empty empty 20 12 0 14 -262130
-66577 0;
#X obj 1408 1514 cnv 25 70 25 empty empty empty 20 12 0 14 -204786
-66577 0;
#X obj 1252 1525 s \$0-ns;
#X msg 1252 1257 read data/filenames.csv;
#X obj 1252 1222 loadbang;
#X msg 1391 1451 nextName;
#X msg 1407 1485 prevName;
#X msg 1380 1417 resetName;
#X msg 1321 1325 customname ciao.wav;
#X obj 1380 1392 loadbang;
#X msg 1420 1517 SELECT;
#X obj 1275 1287 cnv 25 120 25 empty empty empty 20 12 0 14 -204786
-66577 0;
#X msg 1291 1292 SELECT_AND_NEXT;
#X obj 15 733 cnv 15 670 330 empty empty Script_handshake_+_plugin_start_mechanism
20 12 1 14 -233017 -66577 0;
#X obj 53 797 r pyshake_back;
#X obj 53 826 bng 15 250 50 0 empty empty empty 17 7 0 10 -262144 -1
-1;
#N canvas 1 89 920 689 4waytoggler 0;
#X obj 516 205 inlet;
#X text 516 170 Reset;
#X text 245 170 Value 0-3;
#X obj 329 241 hradio 20 1 0 4 empty empty empty 0 -8 0 10 -237178
-91543 -91543 1;
#X obj 441 379 select 0 1 2 3;
#X msg 408 467 0;
#X msg 385 443 1;
#X msg 457 467 0;
#X msg 434 443 1;
#X msg 516 467 0;
#X msg 493 443 1;
#X msg 576 467 0;
#X msg 553 443 1;
#X obj 597 379 bng 25 250 50 0 empty empty empty 17 7 0 10 -237178
-91543 -91543;
#X text 630 378 Reset;
#X obj 254 205 inlet;
#X obj 245 556 outlet;
#X obj 382 556 outlet;
#X obj 522 556 outlet;
#X obj 652 556 outlet;
#X connect 0 0 13 0;
#X connect 4 0 6 0;
#X connect 4 0 5 0;
#X connect 4 1 8 0;
#X connect 4 1 7 0;
#X connect 4 2 10 0;
#X connect 4 2 9 0;
#X connect 4 3 12 0;
#X connect 4 3 11 0;
#X connect 5 0 17 0;
#X connect 5 0 18 0;
#X connect 5 0 19 0;
#X connect 6 0 16 0;
#X connect 7 0 16 0;
#X connect 7 0 18 0;
#X connect 7 0 19 0;
#X connect 8 0 7 0;
#X connect 8 0 17 0;
#X connect 9 0 16 0;
#X connect 9 0 17 0;
#X connect 9 0 19 0;
#X connect 10 0 18 0;
#X connect 11 0 16 0;
#X connect 11 0 17 0;
#X connect 11 0 18 0;
#X connect 12 0 19 0;
#X connect 13 0 5 0;
#X connect 13 0 7 0;
#X connect 13 0 9 0;
#X connect 13 0 11 0;
#X connect 15 0 3 0;
#X connect 15 0 4 0;
#X restore 53 947 pd 4waytoggler;
#X obj 53 1032 s plg_no;
#X obj 80 1010 s plg_electric;
#X obj 107 989 s plg_acoustic;
#X obj 134 968 s plg_piano;
#X msg 53 853 0;
#X obj 151 782 r oscrx_handshake;
#X obj 196 804 r start_electric;
#X obj 231 825 r start_acoustic;
#X obj 265 847 r start_piano;
#X msg 196 825 1;
#X msg 231 846 2;
#X msg 265 868 3;
#X obj 151 865 bng 15 250 50 0 empty empty empty 17 7 0 10 -262144
-1 -1;
#X msg 151 917 \$2;
#X obj 31 772 r py_stopped;
#X obj 31 795 bng 15 250 50 0 empty empty empty 17 7 0 10 -262144 -1
-1;
#X text 363 776 1 We send pyshake \; 2 We receive pyshake from python
script \; 3 We send start plugin \; 4 We receive started plugin \,
we send handshake \; 5 We receive handshake and show plugin as started
\;, f 51;
#X obj 694 734 cnv 15 370 330 empty empty Filename_selector/renamer
20 12 1 14 -233017 -66577 0;
#X obj 732 882 nameselector, f 16;
#X obj 825 920 print Next file will be named;
#X obj 813 946 print Renaming;
#X obj 732 856 r \$0-ns;
#X obj 732 991 s osc_msg_tosend3;
#X msg 732 968 /rename \$1;
#X obj 732 945 pack s;
#X text 730 821 Filename selector/renamer \; Control from the purple
canvas controls;
#X obj 663 450 cnv 15 140 20 empty empty Recording_too 0 12 1 14 -228856
-33289 0;
#X obj 663 472 cnv 15 140 20 empty empty short_or 0 12 1 14 -228856
-33289 0;
#X obj 663 495 cnv 15 140 20 empty empty silent 0 12 1 14 -228856 -33289
0;
#X obj 151 894 pack f f;
#X obj 1073 734 cnv 15 490 330 empty empty React_to_response_to_/rename
20 12 1 14 -233017 -66577 0;
#X obj 1187 761 r py_renamed;
#X obj 1187 806 bng 15 250 50 0 empty empty empty 17 7 0 10 -262144
-1 -1;
#X obj 1264 807 bng 15 250 50 0 empty empty empty 17 7 0 10 -262144
-1 -1;
#X obj 1344 807 bng 15 250 50 0 empty empty empty 17 7 0 10 -262144
-1 -1;
#N canvas 2269 302 863 427 blinlyErrorLight 0;
#X obj 118 155 bng 15 250 50 0 empty empty empty 17 7 0 10 -262144
-1 -1;
#X obj 118 198 int;
#X obj 177 225 + 1;
#X floatatom 190 193 5 0 0 0 - - -;
#X floatatom 118 220 5 0 0 0 - - -;
#X msg 161 148 0;
#X msg 161 170 1;
#X obj 50 251 metro;
#X obj 50 204 bng 15 250 50 0 empty empty empty 17 7 0 10 -262144 -1
-1;
#X obj 50 276 bng 15 250 50 0 empty empty empty 17 7 0 10 -262144 -1
-1;
#X msg 76 198 stop;
#X msg 74 224 200;
#X obj 50 30 inlet;
#X obj 50 296 outlet;
#X obj 142 30 inlet reset;
#X text 281 188 Blink 40 times (or see moses) when bang is received
;
#X obj 118 241 moses 40;
#X connect 0 0 1 0;
#X connect 1 0 2 0;
#X connect 1 0 4 0;
#X connect 2 0 1 1;
#X connect 3 0 2 1;
#X connect 4 0 16 0;
#X connect 5 0 4 0;
#X connect 5 0 6 0;
#X connect 6 0 1 1;
#X connect 7 0 9 0;
#X connect 8 0 7 0;
#X connect 8 0 11 0;
#X connect 9 0 1 0;
#X connect 9 0 13 0;
#X connect 10 0 7 0;
#X connect 11 0 7 1;
#X connect 12 0 8 0;
#X connect 14 0 5 0;
#X connect 14 0 10 0;
#X connect 16 1 5 0;
#X connect 16 1 10 0;
#X restore 1438 852 pd blinlyErrorLight;
#X obj 1486 827 r \$0-reserr;
#X obj 1438 874 s \$0-blinker;
#X msg 1187 826 1;
#X msg 1139 863 0;
#X obj 1187 889 s \$0-rnm_ok_toggle;
#X obj 1081 814 r b_startrec;
#X obj 1099 834 r b_stoprec;
#X msg 1189 914 Error in renaming last recording: There are multiple
recordings that have not been renamed yet. I don't know if you want
to keep the last or one of the previous ones, f 21;
#X msg 1344 914 Error in renaming: There are no recordings, f 10;
#X obj 1344 1043 print, f 7;
#X obj 1946 1379 print;
#X obj 1231 1073 cnv 15 130 110 empty empty empty 20 12 0 14 -233017
-66577 0;
#X obj 1244 1083 r \$0-b_deletelast;
#X obj 1244 1106 bng 15 250 50 0 empty empty empty 17 7 0 10 -262144
-1 -1;
#X obj 1244 1150 s osc_msg_tosend3;
#X obj 617 195 cnv 15 150 77 empty empty DANGER:Delete_recordings 4
11 1 8 -261234 -1 0;
#X obj 624 222 bng 20 250 50 0 \$0-b_deletelast empty Delete_unnamed
22 10 1 11 -261234 -1 -1;
#X obj 624 247 bng 20 250 50 0 \$0-b_deleteallbutlast empty Delete_AllButLast
22 10 1 11 -261234 -1 -1;
#X msg 1244 1127 /deleteUnnamed;
#X obj 1367 1073 cnv 15 160 110 empty empty empty 20 12 0 14 -233017
-66577 0;
#X obj 1377 1106 bng 15 250 50 0 empty empty empty 17 7 0 10 -262144
-1 -1;
#X obj 1377 1150 s osc_msg_tosend3;
#X obj 1377 1083 r \$0-b_deleteallbutlast;
#X msg 1377 1127 /deleteAllButLast;
#X obj 1187 783 route ok errorTooManyFiles errorNoFile errorOverwrite
;
#X obj 1423 806 bng 15 250 50 0 empty empty empty 17 7 0 10 -262144
-1 -1;
#X msg 1423 914 Error in renaming: Name already exists!, f 9;
#X obj 14 1072 cnv 15 290 230 empty empty Set_Date_on_board 20 12 1
14 -233017 -66577 0;
#X floatatom 239 1187 0 0 0 0 - - -;
#X floatatom 204 1187 0 0 0 0 - - -;
#X floatatom 170 1187 0 0 0 0 - - -;
#X obj 137 1159 time, f 11;
#X obj 66 1159 date, f 10;
#X floatatom 135 1187 0 0 0 0 - - -;
#X floatatom 101 1187 0 0 0 0 - - -;
#X floatatom 66 1187 0 0 0 0 - - -;
#X obj 32 1100 r \$0-b_setDate;
#X obj 32 1122 bng 15 250 50 0 empty empty empty 17 7 0 10 -262144
-1 -1;
#X obj 32 1218 pack f f f f f f f, f 35;
#X obj 32 1266 s osc_msg_tosend3;
#X msg 32 1244 /setDate \$2 \$3 \$4 \$5 \$6 \$7;
#X obj 149 1118 bng 20 250 50 0 \$0-b_setDate empty SetDateOnBoard
23 12 1 10 -262144 -1 -1;
#X obj 134 221 r \$0-connplug;
#X obj 242 899 bng 15 250 50 0 empty empty empty 17 7 0 10 -262144
-1 -1;
#X obj 242 977 s \$0-connplug;
#X obj 242 919 delay 1000;
#X obj 331 977 s \$0-handshake;
#X obj 331 954 delay 500;
#X obj 23 223 t b b;
#X obj 315 1073 cnv 15 160 230 empty empty Start_DSP 20 12 1 14 -233017
-66577 0;
#X obj 329 1110 loadbang;
#X obj 329 1136 delay 1000;
#X msg 329 1203 \; pd dsp \$1;
#X obj 329 1164 tgl 30 0 empty empty empty 17 7 0 10 -162280 -1 -1
1 1;
#X text 368 1154 <-Click to \; start/stop DSP;
#X obj 484 1073 cnv 15 190 230 empty empty Init+reset 20 12 1 14 -233017
-66577 0;
#X obj 493 1270 s disc_m;
#X obj 493 1115 r main_reset;
#X obj 493 1249 bng 15 250 50 0 empty empty empty 17 7 0 10 -237178
-91543 -91543;
#X obj 504 1140 loadbang;
#X obj 504 1224 s initial_gain;
#X msg 504 1173 0;
#X obj 514 1202 s oscrx_state;
#X obj 682 1073 cnv 15 210 230 empty empty Connected_Toggles 20 12
1 14 -233017 -66577 0;
#N canvas 1 89 450 300 2waytoggler 0;
#X obj 516 205 inlet;
#X text 516 170 Reset;
#X obj 329 241 hradio 20 1 0 2 empty empty empty 0 -8 0 10 -237178
-91543 -91543 0;
#X msg 308 463 0;
#X msg 285 439 1;
#X msg 357 463 0;
#X msg 334 439 1;
#X obj 516 375 bng 25 250 50 0 empty empty empty 17 7 0 10 -237178
-91543 -91543;
#X obj 254 205 inlet;
#X obj 245 556 outlet;
#X obj 382 556 outlet;
#X obj 308 375 select 0 1;
#X text 245 170 Value 0-2;
#X text 549 374 Manual Reset;
#X connect 0 0 7 0;
#X connect 3 0 10 0;
#X connect 4 0 9 0;
#X connect 5 0 9 0;
#X connect 6 0 5 0;
#X connect 6 0 10 0;
#X connect 7 0 3 0;
#X connect 7 0 5 0;
#X connect 8 0 2 0;
#X connect 8 0 11 0;
#X connect 11 0 4 0;
#X connect 11 0 3 0;
#X connect 11 1 6 0;
#X connect 11 1 5 0;
#X restore 694 1207 pd 2waytoggler;
#X obj 694 1151 hradio 20 1 0 2 empty empty empty 0 -8 0 10 -228856
-91543 -91543 0;
#X msg 694 1127 0;
#X obj 694 1102 r dsc;
#X msg 733 1128 1;
#X obj 694 1179 s radio_conn;
#X obj 802 1213 loadbang;
#X obj 788 1275 s disconnected;
#X obj 713 1231 s connected;
#X text 784 1131 Mutual exclusive Toggles as better visualizers than
array, f 17;
#X obj 694 1275 s oscrx_state;
#X msg 694 1253 0;
#X obj 733 1102 r pyshake_back;
#X msg 802 1236 1;
#X obj 902 1073 cnv 15 320 230 empty empty Send_Start_plugin 20 12
1 14 -233017 -66577 0;
#X obj 916 1099 r start_electric;
#X obj 996 1124 r start_acoustic;
#X obj 1034 1205 r start_piano;
#X obj 924 1123 bng 15 250 50 0 empty empty empty 17 7 0 10 -262144
-1 -1;
#X obj 1004 1146 bng 15 250 50 0 empty empty empty 17 7 0 10 -262144
-1 -1;
#X obj 1042 1227 bng 15 250 50 0 empty empty empty 17 7 0 10 -262144
-1 -1;
#X msg 996 1166 acoustic;
#X msg 915 1252 /startPlugin \$1;
#X obj 915 1275 s osc_msg_tosend3;
#X obj 915 1230 pack s;
#X obj 1105 1163 s osc_msg_tosend3;
#X obj 1105 1098 r stop_plugin;
#X obj 1105 1120 bng 15 250 50 0 empty empty empty 17 7 0 10 -262144
-1 -1;
#X msg 916 1141 electric;
#X msg 1034 1246 piano;
#X msg 1105 1140 /stopPlugin;
#X obj 583 1106 r disc_m;
#X msg 583 1150 -100;
#X obj 583 1173 s oscrx_meter;
#X obj 583 1128 delay 1000;
#X obj 1470 1296 r \$0-printfilename;
#X obj 1470 1320 bng 15 250 50 0 empty empty empty 17 7 0 10 -262144
-1 -1;
#X obj 1424 1263 bng 15 250 50 0 empty empty empty 17 7 0 10 -262144
-1 -1;
#X obj 1424 1240 r \$0-rename;
#X obj 1491 1403 r \$0-prevname;
#X obj 1480 1345 r \$0-nextname;
#X obj 1491 1430 bng 15 250 50 0 empty empty empty 17 7 0 10 -262144
-1 -1;
#X obj 1480 1370 bng 15 250 50 0 empty empty empty 17 7 0 10 -262144
-1 -1;
#X obj 790 8 cnv 15 420 270 empty empty 4._Renamer 8 16 1 15 -228856
-1 0;
#X obj 1005 164 bng 50 250 50 0 empty \$0-blinker empty 17 7 0 10 -232576
-258113 -1;
#X obj 811 254 bng 15 250 50 0 \$0-reserr empty Reset_ERR 20 9 1 8
-232576 -1 -1;
#X obj 1005 220 tgl 50 0 \$0-resetme \$0-rnm_ok_toggle Renamed_OK 54
27 1 17 -232576 -13381 -33289 0 1;
#X obj 808 96 bng 19 250 50 0 \$0-printfilename empty Print_next_filename
25 11 1 10 -232576 -1 -1;
#X obj 808 51 bng 21 250 50 0 \$0-rename empty Rename_&_prepare_NextName
25 11 1 10 -232576 -1 -1;
#X obj 811 209 bng 15 250 50 0 \$0-prevname empty Prev.Name 25 11 1
10 -232576 -1 -1;
#X obj 811 231 bng 15 250 50 0 \$0-nextname empty Next.Name 25 11 1
10 -232576 -1 -1;
#X msg 809 145 customname ciao.wav;
#X obj 809 168 s \$0-ns;
#X obj 809 121 bng 19 250 50 0 empty empty Prepare_Custom_name 25 11
1 10 -232576 -1 -1;
#X text 1069 165 Rename error if blinking: look at Pd console, f 15
;
#X msg 1369 1361 preselect;
#X msg 36 157 10.42.0.47;
#X msg 123 157 10.42.0.1;
#X text 1165 312 To copy the files to to this computer you should copy
the public SSH key of the board to the authorized_keys file in the
ssh config folder. \; This allows the board to copy file to this computer
without entering your password. \; It's a good idea to remove the key
from your auth list after you are done. \; \; \; Copy the public key
to this pc with: \; ssh mind@10.42.0.47 "cat .ssh/id_rsa.pub" >> .ssh/authorized_keys
, f 78;
#X obj 138 181 s \$0-cIP;
#X obj 1179 498 cnv 15 130 25 empty empty empty 20 12 0 14 -204786
-66577 0;
#X obj 1469 493 cnv 15 130 25 empty empty empty 20 12 0 14 -204786
-66577 0;
#X obj 1350 632 cnv 15 130 25 empty empty empty 20 12 0 14 -204786
-66577 0;
#X obj 1488 635 cnv 15 130 25 empty empty empty 20 12 0 14 -204786
-66577 0;
#X obj 1635 639 cnv 15 130 25 empty empty empty 20 12 0 14 -204786
-66577 0;
#X obj 1716 499 cnv 15 130 25 empty empty empty 20 12 0 14 -204786
-66577 0;
#X obj 1726 509 cnv 15 130 25 empty empty empty 20 12 0 14 -204786
-66577 0;
#X obj 1736 519 cnv 15 130 25 empty empty empty 20 12 0 14 -204786
-66577 0;
#X obj 1746 529 cnv 15 130 25 empty empty empty 20 12 0 14 -204786
-66577 0;
#X obj 1756 539 cnv 15 130 25 empty empty empty 20 12 0 14 -204786
-66577 0;
#X obj 1766 549 cnv 15 130 25 empty empty empty 20 12 0 14 -204786
-66577 0;
#X obj 1776 559 cnv 15 130 25 empty empty empty 20 12 0 14 -204786
-66577 0;
#X obj 1191 606 pack s s s, f 40;
#X msg 1191 502 cimil-01;
#X obj 1335 528 r \$0-cIP;
#X obj 1191 549 cyclone/prepend symbol;
#X obj 1335 551 cyclone/prepend symbol;
#X obj 1481 548 cyclone/prepend symbol;
#X obj 1191 457 bng 15 250 50 0 empty empty empty 17 7 0 10 -262144
-1 -1;
#X obj 1191 477 t b b;
#X text 1196 584 ControllerUser ControllerIP PathWhereToCopy, f 67
;
#X obj 1191 681 s osc_msg_tosend3;
#X msg 1493 638 /copyAllRenamed;
#X msg 1644 643 /copyLastRenamed;
#X msg 1356 635 /alwaysCopyRenamed;
#X msg 1191 635 /setCopyDetails \$1@\$2:\$3;
#X msg 1481 496 ~/Desktop/RemoteRecsEmo;
#X obj 1088 790 r main_reset;
#X connect 54 0 169 0;
#X connect 55 0 53 1;
#X connect 61 0 53 5;
#X connect 71 0 70 0;
#X connect 72 0 71 0;
#X connect 73 0 70 0;
#X connect 74 0 70 0;
#X connect 75 0 70 0;
#X connect 76 0 70 0;
#X connect 77 0 75 0;
#X connect 78 0 70 0;
#X connect 80 0 70 0;
#X connect 82 0 83 0;
#X connect 83 0 89 0;
#X connect 84 0 85 0;
#X connect 84 1 86 0;
#X connect 84 2 87 0;
#X connect 84 3 88 0;
#X connect 89 0 84 0;
#X connect 90 0 97 0;
#X connect 91 0 94 0;
#X connect 91 0 164 0;
#X connect 92 0 95 0;
#X connect 92 0 164 0;
#X connect 93 0 96 0;
#X connect 93 0 164 0;
#X connect 94 0 114 1;
#X connect 95 0 114 1;
#X connect 96 0 114 1;
#X connect 97 0 114 0;
#X connect 98 0 84 0;
#X connect 99 0 100 0;
#X connect 100 0 89 0;
#X connect 103 0 105 0;
#X connect 103 0 109 0;
#X connect 103 1 104 0;
#X connect 106 0 103 0;
#X connect 108 0 107 0;
#X connect 109 0 108 0;
#X connect 114 0 98 0;
#X connect 116 0 145 0;
#X connect 117 0 123 0;
#X connect 118 0 120 0;
#X connect 118 0 124 0;
#X connect 118 0 128 0;
#X connect 119 0 120 0;
#X connect 119 0 124 0;
#X connect 119 0 129 0;
#X connect 120 0 122 0;
#X connect 121 0 120 1;
#X connect 121 0 124 0;
#X connect 123 0 125 0;
#X connect 124 0 125 0;
#X connect 126 0 124 0;
#X connect 127 0 124 0;
#X connect 128 0 130 0;
#X connect 129 0 130 0;
#X connect 133 0 134 0;
#X connect 134 0 139 0;
#X connect 139 0 135 0;
#X connect 141 0 144 0;
#X connect 143 0 141 0;
#X connect 144 0 142 0;
#X connect 145 0 117 0;
#X connect 145 1 118 0;
#X connect 145 2 119 0;
#X connect 145 3 146 0;
#X connect 146 0 120 0;
#X connect 146 0 124 0;
#X connect 146 0 147 0;
#X connect 147 0 130 0;
#X connect 149 0 159 6;
#X connect 150 0 159 5;
#X connect 151 0 159 4;
#X connect 152 0 151 0;
#X connect 152 1 150 0;
#X connect 152 2 149 0;
#X connect 153 0 156 0;
#X connect 153 1 155 0;
#X connect 153 2 154 0;
#X connect 154 0 159 3;
#X connect 155 0 159 2;
#X connect 156 0 159 1;
#X connect 157 0 158 0;
#X connect 158 0 153 0;
#X connect 158 0 152 0;
#X connect 158 0 159 0;
#X connect 159 0 161 0;
#X connect 161 0 160 0;
#X connect 163 0 53 4;
#X connect 164 0 166 0;
#X connect 166 0 165 0;
#X connect 166 0 168 0;
#X connect 168 0 167 0;
#X connect 169 0 53 0;
#X connect 169 0 241 0;
#X connect 169 1 242 0;
#X connect 172 0 174 0;
#X connect 174 0 173 0;
#X connect 178 0 179 0;
#X connect 178 0 182 0;
#X connect 179 0 177 0;
#X connect 180 0 182 0;
#X connect 182 0 181 0;
#X connect 182 0 183 0;
#X connect 185 0 192 0;
#X connect 185 0 196 0;
#X connect 185 1 193 0;
#X connect 186 0 185 0;
#X connect 186 0 190 0;
#X connect 187 0 186 0;
#X connect 188 0 187 0;
#X connect 189 0 186 0;
#X connect 191 0 198 0;
#X connect 196 0 195 0;
#X connect 197 0 189 0;
#X connect 198 0 192 0;
#X connect 200 0 203 0;
#X connect 200 0 213 0;
#X connect 201 0 204 0;
#X connect 201 0 206 0;
#X connect 202 0 205 0;
#X connect 202 0 214 0;
#X connect 206 0 209 0;
#X connect 207 0 208 0;
#X connect 209 0 207 0;
#X connect 211 0 212 0;
#X connect 212 0 215 0;
#X connect 213 0 209 0;
#X connect 214 0 209 0;
#X connect 215 0 210 0;
#X connect 216 0 219 0;
#X connect 217 0 218 0;
#X connect 219 0 217 0;
#X connect 220 0 221 0;
#X connect 221 0 240 0;
#X connect 222 0 80 0;
#X connect 223 0 222 0;
#X connect 224 0 226 0;
#X connect 225 0 227 0;
#X connect 226 0 74 0;
#X connect 227 0 73 0;
#X connect 236 0 237 0;
#X connect 238 0 236 0;
#X connect 240 0 70 0;
#X connect 241 0 53 2;
#X connect 242 0 53 3;
#X connect 242 0 244 0;
#X connect 257 0 270 0;
#X connect 258 0 260 0;
#X connect 259 0 261 0;
#X connect 260 0 257 0;
#X connect 261 0 257 1;
#X connect 262 0 257 2;
#X connect 263 0 264 0;
#X connect 264 0 258 0;
#X connect 264 1 271 0;
#X connect 267 0 266 0;
#X connect 268 0 266 0;
#X connect 269 0 266 0;
#X connect 270 0 266 0;
#X connect 271 0 262 0;
#X connect 272 0 124 0;
