#N canvas 2441 284 1334 744 10;
#X declare -lib zexy -lib mrpeach;
#X obj 363 42 cnv 15 1250 350 empty empty 2._Control 10 22 0 14 #dcdcdc #000000 0;
#X obj 10 41 cnv 15 330 350 empty empty 1._Establish_Connection 10 22 0 14 #dcdcdc #000000 0;
#X obj 11 461 cnv 15 950 300 empty empty empty 20 12 0 14 #fce0c4 #404040 0;
#X obj 32 568 vsl 15 128 0 1 0 0 empty empty empty 0 -9 0 10 #dcdcdc #000000 #000000 0 1;
#X obj 773 568 tgl 40 0 empty empty empty 17 7 0 10 #dcdcdc #000000 #000000 0 1;
#X text 28 467 Monitor GUI;
#X obj 1038 71 loadbang;
#X msg 1038 97 1;
#X obj 32 544 r a0;
#X text 31 498 Displays sensors value;
#X floatatom 32 705 5 0 0 0 - - - 0;
#X obj 82 568 vsl 15 128 0 1 0 0 empty empty empty 0 -9 0 10 #dcdcdc #000000 #000000 0 1;
#X floatatom 82 705 5 0 0 0 - - - 0;
#X obj 132 568 vsl 15 128 0 1 0 0 empty empty empty 0 -9 0 10 #dcdcdc #000000 #000000 0 1;
#X floatatom 132 705 5 0 0 0 - - - 0;
#X obj 182 568 vsl 15 128 0 1 0 0 empty empty empty 0 -9 0 10 #dcdcdc #000000 #000000 0 1;
#X floatatom 182 705 5 0 0 0 - - - 0;
#X obj 232 568 vsl 15 128 0 1 0 0 empty empty empty 0 -9 0 10 #dcdcdc #000000 #000000 0 1;
#X floatatom 232 705 5 0 0 0 - - - 0;
#X obj 282 568 vsl 15 128 0 1 0 0 empty empty empty 0 -9 0 10 #dcdcdc #000000 #000000 0 1;
#X floatatom 282 705 5 0 0 0 - - - 0;
#X obj 82 544 r a1;
#X obj 132 544 r a2;
#X obj 182 544 r a3;
#X obj 232 544 r a4;
#X obj 282 544 r a5;
#X obj 773 545 r d0;
#X obj 833 568 tgl 40 0 empty empty empty 17 7 0 10 #dcdcdc #000000 #000000 0 1;
#X obj 893 568 tgl 40 0 empty empty empty 17 7 0 10 #dcdcdc #000000 #000000 0 1;
#X obj 833 545 r d1;
#X obj 893 545 r d2;
#X obj 485 568 vsl 15 128 0 1 0 0 empty empty empty 0 -9 0 10 #dcdcdc #000000 #000000 0 1;
#X floatatom 485 705 5 0 0 0 - - - 0;
#X obj 535 568 vsl 15 128 0 1 0 0 empty empty empty 0 -9 0 10 #dcdcdc #000000 #000000 0 1;
#X floatatom 535 705 5 0 0 0 - - - 0;
#X obj 585 568 vsl 15 128 0 1 0 0 empty empty empty 0 -9 0 10 #dcdcdc #000000 #000000 0 1;
#X floatatom 585 705 5 0 0 0 - - - 0;
#X obj 485 544 r x;
#X obj 535 544 r y;
#X obj 585 544 r z;
#X obj 1015 462 loadbang;
#X obj 1015 484 delay 1000;
#X msg 1015 547 \; pd dsp \$1;
#X obj 1015 505 tgl 30 0 empty empty empty 17 7 0 10 #9c9c9c #000000 #000000 0 1;
#X text 1055 510 <-Click to start/stop DSP;
#X obj 71 158 cnv 15 220 50 empty empty empty 20 12 0 14 #fcfcc4 #404040 0;
#X obj 26 358 _osc_control;
#X msg 76 183 localhost;
#X msg 183 183 4444;
#X obj 26 267 cyclone/prepend connect;
#X obj 25 93 bng 25 250 50 0 empty empty empty 17 7 0 10 #c4fcc4 #000000 #000000;
#X obj 26 242 pack s f;
#X obj 39 289 r disc_m;
#X obj 60 95 cnv 15 100 20 empty empty empty 20 12 0 14 #c4fcc4 #404040 0;
#X text 72 97 <---- Connect;
#X obj 76 128 cnv 15 110 20 empty empty empty 20 12 0 14 #fcc4c4 #404040 0;
#X obj 35 125 bng 25 250 50 0 disc_m empty empty 17 7 0 10 #fcc4c4 #000000 #000000;
#X msg 39 311 disconnect;
#X text 88 130 <---Disconnect;
#X obj 663 134 vsl 20 128 0 1 0 0 empty initial_gain empty 0 -9 0 10 #fce0c4 #000000 #000000 0 1;
#X floatatom 663 277 5 0 0 0 - - - 0;
#X obj 663 330 s osc_message_tosend;
#X obj 402 118 bng 40 250 50 0 b_startrec empty Start_Recording -25 -7 1 10 #c4fcc4 #000000 #000000;
#X obj 523 118 bng 40 250 50 0 b_stoprec empty Stop_and_classify -25 -7 1 10 #fcc4c4 #000000 #000000;
#X msg 406 297 1;
#X msg 485 298 0;
#X msg 406 323 sendtyped /recstate f \$1;
#X obj 406 346 s osc_message_tosend;
#X msg 663 307 /gain \$1;
#X text 658 99 Recording Gain, f 10;
#X obj 757 136 vsl 15 128 0 1 0 0 empty initial_volume empty 0 -9 0 10 #fcfcfc #000000 #000000 0 1;
#X text 748 99 Meter (dB);
#X obj 406 275 r b_startrec;
#X obj 485 275 r b_stoprec;
#X obj 1038 120 s initial_gain;
#X obj 48 335 r osc_message_tosend;
#X msg 246 183 4445;
#X obj 25 165 t b b b;
#X obj 179 266 cyclone/prepend connect;
#X obj 179 241 pack s f;
#X obj 179 360 _osc_control;
#X obj 201 337 r osc_message_tosend2;
#X msg 885 315 /p22 \$1;
#X obj 885 338 s osc_message_tosend2;
#X text 83 160 IP PORT_1 PORT_2;
#X obj 10 14 declare -lib zexy -lib mrpeach;
#X connect 3 0 10 0 empty;
#X connect 6 0 7 0 empty;
#X connect 7 0 74 0 empty;
#X connect 8 0 3 0 empty;
#X connect 11 0 12 0 empty;
#X connect 13 0 14 0 empty;
#X connect 15 0 16 0 empty;
#X connect 17 0 18 0 empty;
#X connect 19 0 20 0 empty;
#X connect 21 0 11 0 empty;
#X connect 22 0 13 0 empty;
#X connect 23 0 15 0 empty;
#X connect 24 0 17 0 empty;
#X connect 25 0 19 0 empty;
#X connect 26 0 4 0 empty;
#X connect 29 0 27 0 empty;
#X connect 30 0 28 0 empty;
#X connect 31 0 32 0 empty;
#X connect 33 0 34 0 empty;
#X connect 35 0 36 0 empty;
#X connect 37 0 31 0 empty;
#X connect 38 0 33 0 empty;
#X connect 39 0 35 0 empty;
#X connect 40 0 41 0 empty;
#X connect 41 0 43 0 empty;
#X connect 43 0 42 0 empty;
#X connect 47 0 51 0 empty;
#X connect 47 0 79 0 empty;
#X connect 48 0 51 1 empty;
#X connect 49 0 46 0 empty;
#X connect 50 0 77 0 empty;
#X connect 51 0 49 0 empty;
#X connect 52 0 57 0 empty;
#X connect 57 0 46 0 empty;
#X connect 57 0 80 0 empty;
#X connect 59 0 60 0 empty;
#X connect 60 0 68 0 empty;
#X connect 64 0 66 0 empty;
#X connect 65 0 66 0 empty;
#X connect 66 0 67 0 empty;
#X connect 68 0 61 0 empty;
#X connect 72 0 64 0 empty;
#X connect 73 0 65 0 empty;
#X connect 75 0 46 1 empty;
#X connect 76 0 79 1 empty;
#X connect 77 0 47 0 empty;
#X connect 77 1 48 0 empty;
#X connect 77 2 76 0 empty;
#X connect 78 0 80 0 empty;
#X connect 79 0 78 0 empty;
#X connect 81 0 80 1 empty;
#X connect 82 0 83 0 empty;
