#N canvas 1921 96 1278 1315 10;
#X declare -lib zexy -lib mrpeach;
#X obj 1195 693 bng 20 250 50 0 main_reset empty Main_Reset 23 13 1
11 -261234 -1 -1;
#X text 1193 643 You shouldn´t need this \; It disconnects the osc
target \; and resets initial slider values;
#X obj 1197 608 bng 20 250 50 0 emo_reset main_reset Reset_Display_manually
23 10 1 10 -261234 -1 -86277;
#X text 1194 585 Reset only the emotion display;
#X obj 1397 1174 cnv 15 360 355 empty empty Renamer_logic 20 12 1 14
-228856 -33289 0;
#X obj 1408 1234 cnv 25 160 25 empty empty empty 20 12 0 14 -204786
-66577 0;
#X obj 1508 1341 cnv 25 100 25 empty empty empty 20 12 0 14 -262130
-66577 0;
#X obj 1558 1464 cnv 25 100 25 empty empty empty 20 12 0 14 -262130
-66577 0;
#X obj 1464 1306 cnv 25 160 25 empty empty empty 20 12 0 14 -204786
-66577 0;
#X obj 1530 1395 cnv 25 100 25 empty empty empty 20 12 0 14 -262130
-66577 0;
#X obj 1539 1430 cnv 25 100 25 empty empty empty 20 12 0 14 -262130
-66577 0;
#X obj 1572 1497 cnv 25 70 25 empty empty empty 20 12 0 14 -204786
-66577 0;
#X obj 1416 1508 s \$0-ns;
#X msg 1416 1240 read data/filenames.csv;
#X obj 1416 1205 loadbang;
#X msg 1555 1434 nextName;
#X msg 1571 1468 prevName;
#X msg 1544 1400 resetName;
#X msg 1485 1308 customname ciao.wav;
#X obj 1544 1375 loadbang;
#X msg 1584 1500 SELECT;
#X obj 1439 1270 cnv 25 120 25 empty empty empty 20 12 0 14 -204786
-66577 0;
#X msg 1455 1275 SELECT_AND_NEXT;
#X obj 15 834 cnv 15 670 330 empty empty Script_handshake_+_plugin_start_mechanism
20 12 1 14 -233017 -66577 0;
#X obj 53 898 r pyshake_back;
#X obj 53 927 bng 15 250 50 0 empty empty empty 17 7 0 10 -262144 -1
-1;
#N canvas 1 89 920 689 4waytoggler 0;
#X obj 516 205 inlet;
#X text 516 170 Reset;
#X text 245 170 Value 0-3;
#X obj 329 241 hradio 20 1 0 4 empty empty empty 0 -8 0 10 -237178
-91543 -91543 1;
#X obj 441 379 select 0 1 2 3;
#X msg 408 467 0;
#X msg 385 443 1;
#X msg 457 467 0;
#X msg 434 443 1;
#X msg 516 467 0;
#X msg 493 443 1;
#X msg 576 467 0;
#X msg 553 443 1;
#X obj 597 379 bng 25 250 50 0 empty empty empty 17 7 0 10 -237178
-91543 -91543;
#X text 630 378 Reset;
#X obj 254 205 inlet;
#X obj 245 556 outlet;
#X obj 382 556 outlet;
#X obj 522 556 outlet;
#X obj 652 556 outlet;
#X connect 0 0 13 0;
#X connect 4 0 6 0;
#X connect 4 0 5 0;
#X connect 4 1 8 0;
#X connect 4 1 7 0;
#X connect 4 2 10 0;
#X connect 4 2 9 0;
#X connect 4 3 12 0;
#X connect 4 3 11 0;
#X connect 5 0 17 0;
#X connect 5 0 18 0;
#X connect 5 0 19 0;
#X connect 6 0 16 0;
#X connect 7 0 16 0;
#X connect 7 0 18 0;
#X connect 7 0 19 0;
#X connect 8 0 7 0;
#X connect 8 0 17 0;
#X connect 9 0 16 0;
#X connect 9 0 17 0;
#X connect 9 0 19 0;
#X connect 10 0 18 0;
#X connect 11 0 16 0;
#X connect 11 0 17 0;
#X connect 11 0 18 0;
#X connect 12 0 19 0;
#X connect 13 0 5 0;
#X connect 13 0 7 0;
#X connect 13 0 9 0;
#X connect 13 0 11 0;
#X connect 15 0 3 0;
#X connect 15 0 4 0;
#X restore 53 1048 pd 4waytoggler;
#X obj 53 1133 s plg_no;
#X obj 80 1111 s plg_electric;
#X obj 107 1090 s plg_acoustic;
#X obj 134 1069 s plg_piano;
#X msg 53 954 0;
#X obj 151 883 r oscrx_handshake;
#X obj 196 905 r start_electric;
#X obj 231 926 r start_acoustic;
#X obj 265 948 r start_piano;
#X msg 196 926 1;
#X msg 231 947 2;
#X msg 265 969 3;
#X obj 151 966 bng 15 250 50 0 empty empty empty 17 7 0 10 -262144
-1 -1;
#X msg 151 1018 \$2;
#X obj 31 873 r py_stopped;
#X obj 31 896 bng 15 250 50 0 empty empty empty 17 7 0 10 -262144 -1
-1;
#X text 363 877 1 We send pyshake \; 2 We receive pyshake from python
script \; 3 We send start plugin \; 4 We receive started plugin \,
we send handshake \; 5 We receive handshake and show plugin as started
\;, f 51;
#X obj 694 835 cnv 15 370 330 empty empty Filename_selector/renamer
20 12 1 14 -233017 -66577 0;
#X obj 732 983 nameselector, f 16;
#X obj 825 1021 print Next file will be named;
#X obj 813 1047 print Renaming;
#X obj 732 957 r \$0-ns;
#X obj 732 1092 s osc_msg_tosend3;
#X msg 732 1069 /rename \$1;
#X obj 732 1046 pack s;
#X text 730 922 Filename selector/renamer \; Control from the purple
canvas controls;
#X obj 151 995 pack f f;
#X obj 1072 835 cnv 15 490 330 empty empty React_to_response_to_/rename
20 12 1 14 -233017 -66577 0;
#X obj 1187 862 r py_renamed;
#X obj 1187 907 bng 15 250 50 0 empty empty empty 17 7 0 10 -262144
-1 -1;
#X obj 1264 908 bng 15 250 50 0 empty empty empty 17 7 0 10 -262144
-1 -1;
#X obj 1344 908 bng 15 250 50 0 empty empty empty 17 7 0 10 -262144
-1 -1;
#N canvas 2269 302 863 427 blinlyErrorLight 0;
#X obj 118 155 bng 15 250 50 0 empty empty empty 17 7 0 10 -262144
-1 -1;
#X obj 118 198 int;
#X obj 177 225 + 1;
#X floatatom 190 193 5 0 0 0 - - -;
#X floatatom 118 220 5 0 0 0 - - -;
#X msg 161 148 0;
#X msg 161 170 1;
#X obj 50 251 metro;
#X obj 50 204 bng 15 250 50 0 empty empty empty 17 7 0 10 -262144 -1
-1;
#X obj 50 276 bng 15 250 50 0 empty empty empty 17 7 0 10 -262144 -1
-1;
#X msg 76 198 stop;
#X msg 74 224 200;
#X obj 50 30 inlet;
#X obj 50 296 outlet;
#X obj 142 30 inlet reset;
#X text 281 188 Blink 40 times (or see moses) when bang is received
;
#X obj 118 241 moses 40;
#X connect 0 0 1 0;
#X connect 1 0 2 0;
#X connect 1 0 4 0;
#X connect 2 0 1 1;
#X connect 3 0 2 1;
#X connect 4 0 16 0;
#X connect 5 0 4 0;
#X connect 5 0 6 0;
#X connect 6 0 1 1;
#X connect 7 0 9 0;
#X connect 8 0 7 0;
#X connect 8 0 11 0;
#X connect 9 0 1 0;
#X connect 9 0 13 0;
#X connect 10 0 7 0;
#X connect 11 0 7 1;
#X connect 12 0 8 0;
#X connect 14 0 5 0;
#X connect 14 0 10 0;
#X connect 16 1 5 0;
#X connect 16 1 10 0;
#X restore 1438 953 pd blinlyErrorLight;
#X obj 1486 928 r \$0-reserr;
#X obj 1438 975 s \$0-blinker;
#X msg 1187 927 1;
#X msg 1139 964 0;
#X obj 1187 990 s \$0-rnm_ok_toggle;
#X obj 1081 915 r b_startrec;
#X obj 1099 935 r b_stoprec;
#X msg 1189 1015 Error in renaming last recording: There are multiple
recordings that have not been renamed yet. I don't know if you want
to keep the last or one of the previous ones, f 21;
#X msg 1344 1015 Error in renaming: There are no recordings, f 10
;
#X obj 1344 1144 print, f 7;
#X obj 2477 2181 print;
#X obj 897 1174 cnv 15 130 110 empty empty empty 20 12 0 14 -233017
-66577 0;
#X obj 910 1184 r \$0-b_deletelast;
#X obj 910 1207 bng 15 250 50 0 empty empty empty 17 7 0 10 -262144
-1 -1;
#X obj 910 1251 s osc_msg_tosend3;
#X msg 910 1228 /deleteUnnamed;
#X obj 898 1293 cnv 15 160 110 empty empty empty 20 12 0 14 -233017
-66577 0;
#X obj 908 1326 bng 15 250 50 0 empty empty empty 17 7 0 10 -262144
-1 -1;
#X obj 908 1370 s osc_msg_tosend3;
#X obj 908 1303 r \$0-b_deleteallbutlast;
#X msg 908 1347 /deleteAllButLast;
#X obj 1187 884 route ok errorTooManyFiles errorNoFile errorOverwrite
;
#X obj 1423 907 bng 15 250 50 0 empty empty empty 17 7 0 10 -262144
-1 -1;
#X msg 1423 1015 Error in renaming: Name already exists!, f 9;
#X obj 14 1173 cnv 15 290 230 empty empty Set_Date_on_board 20 12 1
14 -233017 -66577 0;
#X floatatom 239 1288 0 0 0 0 - - -;
#X floatatom 204 1288 0 0 0 0 - - -;
#X floatatom 170 1288 0 0 0 0 - - -;
#X obj 137 1260 time, f 11;
#X obj 66 1260 date, f 10;
#X floatatom 135 1288 0 0 0 0 - - -;
#X floatatom 101 1288 0 0 0 0 - - -;
#X floatatom 66 1288 0 0 0 0 - - -;
#X obj 32 1201 r \$0-b_setDate;
#X obj 32 1223 bng 15 250 50 0 empty empty empty 17 7 0 10 -262144
-1 -1;
#X obj 32 1319 pack f f f f f f f, f 35;
#X obj 32 1367 s osc_msg_tosend3;
#X msg 32 1345 /setDate \$2 \$3 \$4 \$5 \$6 \$7;
#X obj 149 1219 bng 20 250 50 0 \$0-b_setDate empty SetDateOnBoard
23 12 1 10 -262144 -1 -1;
#X obj 242 1000 bng 15 250 50 0 empty empty empty 17 7 0 10 -262144
-1 -1;
#X obj 242 1097 s \$0-connplug;
#X obj 331 1097 s \$0-handshake;
#X obj 315 1174 cnv 15 160 230 empty empty Start_DSP 20 12 1 14 -233017
-66577 0;
#X obj 329 1211 loadbang;
#X obj 329 1237 delay 1000;
#X msg 329 1304 \; pd dsp \$1;
#X obj 329 1265 tgl 30 0 empty empty empty 17 7 0 10 -162280 -1 -1
0 1;
#X text 368 1255 <-Click to \; start/stop DSP;
#X obj 484 1174 cnv 15 190 230 empty empty Init+reset 20 12 1 14 -233017
-66577 0;
#X obj 493 1371 s disc_m;
#X obj 493 1216 r main_reset;
#X obj 493 1350 bng 15 250 50 0 empty empty empty 17 7 0 10 -237178
-91543 -91543;
#X obj 504 1241 loadbang;
#X obj 504 1325 s initial_gain;
#X msg 504 1274 0;
#X obj 514 1303 s oscrx_state;
#X obj 682 1174 cnv 15 210 230 empty empty Connected_Toggles 20 12
1 14 -233017 -66577 0;
#N canvas 1 89 450 300 2waytoggler 0;
#X obj 516 205 inlet;
#X text 516 170 Reset;
#X obj 329 241 hradio 20 1 0 2 empty empty empty 0 -8 0 10 -237178
-91543 -91543 1;
#X msg 308 463 0;
#X msg 285 439 1;
#X msg 357 463 0;
#X msg 334 439 1;
#X obj 516 375 bng 25 250 50 0 empty empty empty 17 7 0 10 -237178
-91543 -91543;
#X obj 254 205 inlet;
#X obj 245 556 outlet;
#X obj 382 556 outlet;
#X obj 308 375 select 0 1;
#X text 245 170 Value 0-2;
#X text 549 374 Manual Reset;
#X connect 0 0 7 0;
#X connect 3 0 10 0;
#X connect 4 0 9 0;
#X connect 5 0 9 0;
#X connect 6 0 5 0;
#X connect 6 0 10 0;
#X connect 7 0 3 0;
#X connect 7 0 5 0;
#X connect 8 0 2 0;
#X connect 8 0 11 0;
#X connect 11 0 4 0;
#X connect 11 0 3 0;
#X connect 11 1 6 0;
#X connect 11 1 5 0;
#X restore 694 1308 pd 2waytoggler;
#X obj 694 1252 hradio 20 1 0 2 empty empty empty 0 -8 0 10 -228856
-91543 -91543 1;
#X msg 694 1228 0;
#X obj 694 1203 r dsc;
#X msg 733 1229 1;
#X obj 694 1280 s radio_conn;
#X obj 802 1314 loadbang;
#X obj 788 1376 s disconnected;
#X obj 713 1332 s connected;
#X text 784 1232 Mutual exclusive Toggles as better visualizers than
array, f 17;
#X obj 694 1376 s oscrx_state;
#X msg 694 1354 0;
#X obj 733 1203 r pyshake_back;
#X msg 802 1337 1;
#X obj 1066 1173 cnv 15 320 230 empty empty Send_Start_plugin 20 12
1 14 -233017 -66577 0;
#X obj 1080 1199 r start_electric;
#X obj 1160 1224 r start_acoustic;
#X obj 1198 1305 r start_piano;
#X obj 1088 1223 bng 15 250 50 0 empty empty empty 17 7 0 10 -262144
-1 -1;
#X obj 1168 1246 bng 15 250 50 0 empty empty empty 17 7 0 10 -262144
-1 -1;
#X obj 1206 1327 bng 15 250 50 0 empty empty empty 17 7 0 10 -262144
-1 -1;
#X msg 1160 1266 acoustic;
#X msg 1079 1352 /startPlugin \$1;
#X obj 1079 1375 s osc_msg_tosend3;
#X obj 1079 1330 pack s;
#X obj 1269 1263 s osc_msg_tosend3;
#X obj 1269 1198 r stop_plugin;
#X obj 1269 1220 bng 15 250 50 0 empty empty empty 17 7 0 10 -262144
-1 -1;
#X msg 1080 1241 electric;
#X msg 1198 1346 piano;
#X msg 1269 1240 /stopPlugin;
#X obj 583 1207 r disc_m;
#X msg 583 1251 -100;
#X obj 583 1274 s oscrx_meter;
#X obj 583 1229 delay 1000;
#X obj 1634 1279 r \$0-printfilename;
#X obj 1634 1303 bng 15 250 50 0 empty empty empty 17 7 0 10 -262144
-1 -1;
#X obj 1588 1246 bng 15 250 50 0 empty empty empty 17 7 0 10 -262144
-1 -1;
#X obj 1588 1223 r \$0-rename;
#X obj 1655 1386 r \$0-prevname;
#X obj 1644 1328 r \$0-nextname;
#X obj 1655 1413 bng 15 250 50 0 empty empty empty 17 7 0 10 -262144
-1 -1;
#X obj 1644 1353 bng 15 250 50 0 empty empty empty 17 7 0 10 -262144
-1 -1;
#X msg 1533 1344 preselect;
#X obj 16 1414 cnv 15 1000 285 empty empty empty 20 12 0 14 -228856
-66577 0;
#X obj 1088 891 r main_reset;
#X msg 571 1354 -60;
#X obj 571 1377 s initial_sdthresh;
#X obj 242 1020 delay 2000;
#X obj 331 1055 delay 1500;
#X obj 242 1076 bng 15 250 50 0 empty empty empty 17 7 0 10 -262144
-1 -1;
#X obj 331 1077 bng 15 250 50 0 empty empty empty 17 7 0 10 -262144
-1 -1;
#X obj 356 1616 r \$0-CopyLASTrenamed;
#X obj 356 1640 bng 15 250 50 0 empty empty empty 17 7 0 10 -262144
-1 -1;
#X obj 355 1542 bng 15 250 50 0 empty empty empty 17 7 0 10 -262144
-1 -1;
#X obj 355 1520 r \$0-CopyALLrenamed;
#X obj 151 1433 cnv 15 130 25 empty empty empty 20 12 0 14 -204786
-66577 0;
#X obj 188 1610 cnv 15 130 25 empty empty empty 20 12 0 14 -204786
-66577 0;
#X obj 350 1561 cnv 15 130 25 empty empty empty 20 12 0 14 -204786
-66577 0;
#X obj 347 1663 cnv 15 130 25 empty empty empty 20 12 0 14 -204786
-66577 0;
#X obj 256 1433 cnv 15 130 25 empty empty empty 20 12 0 14 -204786
-66577 0;
#X obj 29 1541 pack s s s, f 40;
#X msg 29 1437 cimil-01;
#X obj 173 1463 r \$0-cIP;
#X obj 29 1484 cyclone/prepend symbol;
#X obj 173 1486 cyclone/prepend symbol;
#X obj 319 1483 cyclone/prepend symbol;
#X text 34 1519 ControllerUser ControllerIP PathWhereToCopy, f 44
;
#X obj 29 1659 s osc_msg_tosend3;
#X msg 355 1564 /copyAllRenamed;
#X msg 356 1667 /copyLastRenamed;
#X msg 194 1613 /alwaysCopyRenamed;
#X msg 29 1613 /setCopyDetails \$1@\$2:\$3;
#X obj 194 1593 bng 15 250 50 0 empty empty empty 17 7 0 10 -262144
-1 -1;
#X obj 167 1437 r \$0-usern;
#X obj 271 1437 r \$0-cdir;
#X obj 194 1568 delay 1000;
#X text 495 1430 To copy the files to to this computer you should copy
the public SSH key of the board to the authorized_keys file in the
ssh config folder. \; This allows the board to copy file to this computer
without entering your password. \; It's a good idea to remove the key
from your auth list after you are done. \; \; \; Copy the public key
to this pc with: \; ssh mind@elk-pi.local "cat .ssh/id_rsa.pub" >>
.ssh/authorized_keys, f 78;
#X obj 7 6 cnv 15 1170 720 empty empty empty 20 12 1 14 -249661 -66577
0;
#X obj 636 51 cnv 15 530 305 empty empty 3._Control 8 16 1 15 -257562
-1 0;
#X obj 19 50 cnv 15 360 305 empty empty 1_Establish_Connection 8 16
1 15 -212671 -1 0;
#X obj 204 92 bng 25 250 50 0 \$0-conn_m empty Connect_to_board 30
13 1 12 -150464 -1 -1;
#X obj 317 363 cnv 15 345 355 empty empty 4._Results(Predicted_Emotion)
12 18 1 18 -54094 -249661 0;
#X obj 328 407 cnv 15 110 70 empty empty empty 20 12 0 14 -262144 -91543
0;
#X obj 328 482 cnv 15 110 70 empty empty empty 20 12 0 14 -262144 -91543
0;
#X obj 328 557 cnv 15 110 70 empty empty empty 20 12 0 14 -262144 -91543
0;
#X obj 328 632 cnv 15 110 70 empty empty empty 20 16 0 14 -262144 -91543
0;
#X obj 331 429 tgl 40 0 empty oscrx_res_aggressive Aggressive 0 -10
1 15 -213249 -1 -1 0 1;
#X obj 330 505 tgl 40 0 empty oscrx_res_relaxed Relaxed 0 -10 1 15
-2676 -1 -1 0 1;
#X obj 330 580 tgl 40 0 empty oscrx_res_happy Happy 0 -10 1 15 -47873
-1 -1 0 1;
#X obj 331 655 tgl 40 0 empty oscrx_res_sad Sad 0 -10 1 15 -174763
-1 -1 0 1;
#X obj 30 200 cnv 15 160 100 empty empty Connection_State 13 19 1 14
-33289 -262144 0;
#X obj 50 261 cnv 15 120 25 empty empty empty 20 12 1 15 -204786 -66577
0;
#X obj 50 236 cnv 15 120 25 empty empty empty 20 12 0 14 -261234 -66577
0;
#X obj 50 236 tgl 25 0 empty disconnected Disconnected 28 15 1 10 -261234
-91543 -258113 0 1;
#X obj 50 261 tgl 25 0 empty connected CONNECTED! 28 15 1 10 -237178
-91543 -13381 1 1;
#X obj 747 71 cnv 15 110 280 empty empty empty 8 12 1 10 -33289 -262144
0;
#X obj 992 212 cnv 15 160 140 empty empty empty 8 12 1 14 -33289 -66577
0;
#X obj 1004 251 vradio 30 1 0 3 empty oscrx_state PluginState 0 -16
1 15 -237178 -91543 -262144 0;
#X obj 444 407 cnv 15 200 296 empty empty empty 20 12 0 14 -228856
-91543 0;
#X obj 458 526 tgl 50 0 empty oscrx_noemo empty 46 21 1 14 -262144
-258113 -1 0 1;
#X floatatom 654 331 8 0 0 1 dB vis_gain -;
#X obj 992 60 cnv 15 160 70 empty empty empty 20 12 0 14 -262144 -66577
0;
#X obj 1006 81 bng 40 250 50 0 b_startrec empty Start_Recording 0 -10
1 11 -204786 -1 -1;
#X obj 992 134 cnv 15 160 70 empty empty empty 20 12 0 14 -262144 -66577
0;
#X obj 1006 155 bng 40 250 50 0 b_stoprec empty Stop_and_classify 0
-10 1 11 -261234 -1 -1;
#X obj 1037 254 cnv 15 50 18 empty empty Idle 8 12 1 14 -33289 -262144
0;
#X obj 1038 286 cnv 15 50 18 empty empty Recording 8 12 1 14 -33289
-262144 0;
#X obj 1038 314 cnv 15 50 18 empty empty Classifying 8 12 1 14 -33289
-262144 0;
#X obj 812 102 cnv 15 30 18 empty empty ----|0dB 0 12 1 8 -33289 -262144
0;
#X obj 811 286 cnv 15 30 18 empty empty ----|-90dB 0 12 1 8 -33289
-262144 0;
#X obj 783 114 vsl 25 180 -90 0 0 0 empty oscrx_meter Record_level
-32 -20 1 13 -228856 -13381 -262144 13196 1;
#X obj 204 131 bng 25 250 50 0 \$0-disc_m empty Disconnect 30 13 1
12 -261234 -1 -1;
#X obj 24 112 cnv 15 70 20 empty empty empty 20 12 0 14 -204786 -66577
0;
#X obj 668 106 vsl 20 210 -50 0 0 0 s_gain initial_gain Recording_gain
-28 -12 1 10 -262144 -1 -1 19300 1;
#X text 108 91 Computer IP;
#X obj 109 112 cnv 15 70 20 empty empty empty 20 12 0 14 -204786 -66577
0;
#X text 37 92 Board IP;
#X obj 388 50 cnv 15 240 305 empty empty 2._Start_A_Plugin 8 16 1 15
-233467 -66577 0;
#X obj 404 81 bng 25 250 50 0 start_electric empty Start_Electric_Guitar_Plugin
30 14 1 11 -204786 -1 -1;
#X obj 404 112 bng 25 250 50 0 start_acoustic empty Start_Acoustic_Guitar_Plugin
30 14 1 11 -204786 -1 -1;
#X obj 404 143 bng 25 250 50 0 start_piano empty Start_Piano_Plugin
30 14 1 11 -204786 -1 -1;
#X obj 404 173 bng 25 250 50 0 stop_plugin empty Stop_Plugin 30 14
1 11 -261234 -1 -1;
#X obj 517 518 cnv 15 110 20 empty empty Recording_too 0 12 1 14 -228856
-33289 0;
#X obj 517 540 cnv 15 110 20 empty empty short_or 0 12 1 14 -228856
-33289 0;
#X obj 517 563 cnv 15 110 20 empty empty silent 0 12 1 14 -228856 -33289
0;
#X obj 671 363 cnv 15 495 355 empty empty 5._RenameRecording 8 16 1
15 -261682 -1 0;
#X obj 891 528 bng 20 250 50 0 \$0-reserr empty Reset_Error 25 12 1
9 -262144 -1 -1;
#X obj 688 462 bng 19 250 50 0 \$0-printfilename empty Print_next_filename
25 11 1 10 -262144 -1 -1;
#X obj 683 406 bng 30 250 50 0 \$0-rename empty RENAME&advance 35 17
1 13 -262144 -1 -1;
#X msg 688 647 customname ciao.wav;
#X obj 688 670 s \$0-ns;
#X obj 688 623 bng 19 250 50 0 empty empty Prepare_Custom_name 25 11
1 10 -262144 -1 -1;
#X floatatom 895 267 8 0 0 1 dB vis_sdthresh -;
#X obj 908 96 vsl 20 160 -120 0 0 0 s_sdthresh initial_sdthresh SilenceThreshold
-36 -12 1 10 -262144 -1 -1 7950 1;
#X msg 27 113 10.42.0.47;
#X msg 114 113 10.42.0.1;
#X obj 412 209 cnv 15 180 140 empty empty Plugin_State 13 19 1 14 -33289
-262144 0;
#X obj 422 268 tgl 18 0 empty plg_electric Electric_Plugin_Started
22 11 1 10 -262144 -1 -262144 1 1;
#X obj 422 318 tgl 18 0 empty plg_piano Piano_Plugin_Started 22 11
1 10 -262144 -1 -262144 0 1;
#X obj 422 293 tgl 18 0 empty plg_acoustic Acoustic_Plugin_Started
22 11 1 10 -262144 -1 -262144 0 1;
#X obj 422 244 tgl 18 0 empty plg_no NO_PLUGIN_STARTED 22 11 1 10 -261234
-1 -262144 0 1;
#X obj 872 291 cnv 15 100 60 empty empty Sound_detected 5 8 1 9 -33289
-262144 0;
#X obj 902 311 tgl 35 0 empty oscrx_silence empty 17 7 0 10 -262144
-4160 -1 1 1;
#X obj 761 311 cnv 15 80 30 empty empty empty 20 12 0 14 -262144 -66577
0;
#X floatatom 764 318 10 0 0 1 dB roundedmeter -;
#X obj 19 355 cnv 15 290 362 empty empty COPY_recordings_here 8 23
1 15 -212671 -1 0;
#X obj 125 422 cnv 15 160 45 empty empty Local_Copy_Directory 25 12
1 9 -204786 -66577 0;
#X obj 35 500 bng 25 250 50 0 \$0-CopyALLrenamed empty CopyALLrenamed
30 12 0 10 -262144 -1 -1;
#X obj 35 530 bng 25 250 50 0 \$0-CopyLASTrenamed empty CopyLASTrenamed
30 12 0 10 -262144 -1 -1;
#X msg 132 446 ~/Desktop/RemoteRecsEmo;
#X obj 29 423 cnv 15 90 45 empty empty Username 25 12 1 9 -204786 -66577
0;
#X obj 235 265 bng 25 250 50 0 \$0-setCopyDETAILS empty setCopyDETAILS
30 12 0 10 -204786 -1 -1;
#X msg 38 446 cimil-01;
#X obj 38 469 s \$0-usern;
#X obj 132 469 s \$0-cdir;
#X obj 38 398 t b b;
#X text 234 218 Change Username and directory below before pressing
, f 21;
#X obj 907 617 cnv 15 240 95 empty empty DANGER:_Delete_recordings
6 17 1 13 -259603 -1 0;
#X obj 963 658 bng 20 250 50 0 \$0-b_deletelast empty Delete_unnamed
27 10 1 11 -258113 -1 -1;
#X obj 963 683 bng 20 250 50 0 \$0-b_deleteallbutlast empty Delete_AllButLast
27 10 1 11 -258113 -1 -1;
#X obj 877 379 cnv 15 280 140 empty empty empty 8 12 1 14 -33289 -66577
0;
#X obj 886 452 tgl 50 0 \$0-resetme \$0-rnm_ok_toggle Renamed_OK 54
27 1 17 -262144 -1 -262144 0 1;
#X obj 940 399 cnv 15 200 45 empty empty empty 20 12 0 14 -262144 -66577
0;
#X text 943 424 If blinking: look at Pd console, f 34;
#X obj 886 396 bng 50 250 50 0 empty \$0-blinker Rename-ERROR 54 17
1 14 -262144 -258113 -258113;
#X obj 19 18 cnv 15 1147 28 empty empty Metering_information_in_black_boxes:_do_not_use_elements_in_black_boxes_as_con*
8 14 1 14 -49933 -249661 0;
#X text 26 572 To copy the files to to this computer you must copy
the public SSH key of the board to the authorized_keys file in the
ssh config folder. \; Remove the key after you are done. \; \; \; Copy
the public key to this pc with: \; ssh mind@elk-pi.local "cat .ssh/id_rsa.pub"
>> .ssh/authorized_keys, f 44;
#X text 209 225 >;
#X text 209 235 >;
#X text 209 247 >;
#X text 209 257 >;
#X obj 1568 836 cnv 15 210 330 empty empty Extra 20 12 1 14 -233017
-66577 0;
#X obj 1576 879 declare -lib zexy -lib mrpeach;
#N canvas 1921 96 2558 1315 control_logic 0;
#X msg 39 85 1;
#X msg 118 86 0;
#X obj 39 63 r b_startrec;
#X obj 118 63 r b_stoprec;
#N canvas 0 50 450 300 round1 0;
#X floatatom 47 157 11 0 0 1 - - -;
#X obj 47 57 * 10, f 6;
#X obj 47 107 int, f 6;
#X obj 47 131 / 10, f 6;
#X obj 47 82 0.499999, f 26;
#X obj 48 24 inlet;
#X obj 47 184 outlet;
#X connect 0 0 6 0;
#X connect 1 0 4 0;
#X connect 2 0 3 0;
#X connect 3 0 0 0;
#X connect 4 0 2 0;
#X connect 5 0 1 0;
#X restore 91 252 pd round1;
#X obj 104 278 s vis_gain;
#X obj 91 220 r s_gain;
#X obj 39 148 s osc_msg_tosend;
#X obj 91 305 expr pow(10\\\, $f1/20);
#X floatatom 91 334 22 0 0 0 - - -;
#X obj 91 512 s osc_msg_tosend;
#X msg 91 358 /parameter/emotionclassifier/gain \$1, f 38;
#X msg 39 125 sendtyped /parameter/emotionclassifier/recstate f \$1
;
#N canvas 1 89 450 300 round1 0;
#X floatatom 47 157 11 0 0 1 - - -;
#X obj 47 57 * 10, f 6;
#X obj 47 107 int, f 6;
#X obj 47 131 / 10, f 6;
#X obj 47 82 0.499999, f 26;
#X obj 48 24 inlet;
#X obj 47 184 outlet;
#X connect 0 0 6 0;
#X connect 1 0 4 0;
#X connect 2 0 3 0;
#X connect 3 0 0 0;
#X connect 4 0 2 0;
#X connect 5 0 1 0;
#X restore 487 130 pd round1;
#X obj 487 62 r oscrx_meter;
#X obj 487 153 s roundedmeter;
#N canvas 1 89 450 300 round1 0;
#X floatatom 47 157 11 0 0 1 - - -;
#X obj 47 57 * 10, f 6;
#X obj 47 107 int, f 6;
#X obj 47 131 / 10, f 6;
#X obj 47 82 0.499999, f 26;
#X obj 48 24 inlet;
#X obj 47 184 outlet;
#X connect 0 0 6 0;
#X connect 1 0 4 0;
#X connect 2 0 3 0;
#X connect 3 0 0 0;
#X connect 4 0 2 0;
#X connect 5 0 1 0;
#X restore 345 254 pd round1;
#X floatatom 345 336 22 0 0 0 - - -;
#X obj 345 222 r s_sdthresh;
#X obj 358 280 s vis_sdthresh;
#X msg 345 470 sendtyped /parameter/emotionclassifier/silenceThresh
f \$1;
#X obj 345 382 / 120;
#X obj 345 404 + 1;
#X floatatom 345 443 5 0 0 0 - - -;
#X text 390 383 Rescale between O and 1 because elkos seems to be already
doing an automatic remapping of the 0-1 range to the parameter range
, f 27;
#X obj 577 60 r stop_plugin;
#X msg 577 112 -90;
#X obj 622 200 s oscrx_meter;
#X obj 577 83 delay 1500;
#X connect 0 0 12 0;
#X connect 1 0 12 0;
#X connect 2 0 0 0;
#X connect 3 0 1 0;
#X connect 4 0 5 0;
#X connect 4 0 8 0;
#X connect 6 0 4 0;
#X connect 8 0 9 0;
#X connect 9 0 11 0;
#X connect 11 0 10 0;
#X connect 12 0 7 0;
#X connect 13 0 15 0;
#X connect 14 0 13 0;
#X connect 16 0 19 0;
#X connect 16 0 17 0;
#X connect 17 0 21 0;
#X connect 18 0 16 0;
#X connect 20 0 10 0;
#X connect 21 0 22 0;
#X connect 22 0 23 0;
#X connect 23 0 20 0;
#X connect 25 0 28 0;
#X connect 26 0 13 0;
#X connect 26 0 27 0;
#X connect 28 0 26 0;
#X restore 1575 936 pd control_logic;
#X obj 1575 1005 _osc_receiver;
#X obj 1576 1059 _emotion_toggler;
#X obj 793 555 cnv 15 30 30 empty empty > 0 15 1 16 -261682 -66577
0;
#X obj 715 555 cnv 15 30 30 empty empty < 0 15 1 16 -261682 -66577
0;
#X obj 732 559 bng 20 250 50 0 \$0-prevname empty Prev -2 -10 1 10
-262144 -1 -1;
#X obj 770 559 bng 20 250 50 0 \$0-nextname empty Next -3 -10 1 10
-262144 -1 -1;
#N canvas 3201 96 1278 1315 connAbstraction 0;
#X obj 303 77 inlet;
#X obj 365 78 inlet;
#X obj 45 267 outlet;
#X obj 112 267 outlet;
#X text 361 57 Computer IP;
#X text 291 56 Board IP;
#X obj 180 212 _osc_conn2, f 52;
#X obj 45 107 r \$0-conn_m;
#X obj 241 132 r \$0-disc_m;
#X obj 489 170 r \$0-handshake;
#X obj 427 150 r \$0-connplug;
#X obj 383 109 s \$0-cIP;
#X text 13 290 Bang Board IP;
#X text 109 290 Bang Computer IP;
#X obj 45 159 t b b b, f 23;
#X connect 0 0 6 2;
#X connect 1 0 11 0;
#X connect 1 0 6 3;
#X connect 7 0 14 0;
#X connect 8 0 6 1;
#X connect 9 0 6 5;
#X connect 10 0 6 4;
#X connect 14 0 2 0;
#X connect 14 1 3 0;
#X connect 14 2 6 0;
#X restore 27 147 pd connAbstraction;
#X f 15;
#X connect 13 0 12 0;
#X connect 14 0 13 0;
#X connect 15 0 12 0;
#X connect 16 0 12 0;
#X connect 17 0 12 0;
#X connect 18 0 12 0;
#X connect 19 0 17 0;
#X connect 20 0 12 0;
#X connect 22 0 12 0;
#X connect 24 0 25 0;
#X connect 25 0 31 0;
#X connect 26 0 27 0;
#X connect 26 1 28 0;
#X connect 26 2 29 0;
#X connect 26 3 30 0;
#X connect 31 0 26 0;
#X connect 32 0 39 0;
#X connect 33 0 36 0;
#X connect 33 0 99 0;
#X connect 34 0 37 0;
#X connect 34 0 99 0;
#X connect 35 0 38 0;
#X connect 35 0 99 0;
#X connect 36 0 53 1;
#X connect 37 0 53 1;
#X connect 38 0 53 1;
#X connect 39 0 53 0;
#X connect 40 0 26 0;
#X connect 41 0 42 0;
#X connect 42 0 31 0;
#X connect 45 0 47 0;
#X connect 45 0 51 0;
#X connect 45 1 46 0;
#X connect 48 0 45 0;
#X connect 50 0 49 0;
#X connect 51 0 50 0;
#X connect 53 0 40 0;
#X connect 55 0 81 0;
#X connect 56 0 62 0;
#X connect 57 0 59 0;
#X connect 57 0 63 0;
#X connect 57 0 67 0;
#X connect 58 0 59 0;
#X connect 58 0 63 0;
#X connect 58 0 68 0;
#X connect 59 0 61 0;
#X connect 60 0 59 1;
#X connect 60 0 63 0;
#X connect 62 0 64 0;
#X connect 63 0 64 0;
#X connect 65 0 63 0;
#X connect 66 0 63 0;
#X connect 67 0 69 0;
#X connect 68 0 69 0;
#X connect 72 0 73 0;
#X connect 73 0 75 0;
#X connect 75 0 74 0;
#X connect 77 0 80 0;
#X connect 79 0 77 0;
#X connect 80 0 78 0;
#X connect 81 0 56 0;
#X connect 81 1 57 0;
#X connect 81 2 58 0;
#X connect 81 3 82 0;
#X connect 82 0 59 0;
#X connect 82 0 63 0;
#X connect 82 0 83 0;
#X connect 83 0 69 0;
#X connect 85 0 95 6;
#X connect 86 0 95 5;
#X connect 87 0 95 4;
#X connect 88 0 87 0;
#X connect 88 1 86 0;
#X connect 88 2 85 0;
#X connect 89 0 92 0;
#X connect 89 1 91 0;
#X connect 89 2 90 0;
#X connect 90 0 95 3;
#X connect 91 0 95 2;
#X connect 92 0 95 1;
#X connect 93 0 94 0;
#X connect 94 0 89 0;
#X connect 94 0 88 0;
#X connect 94 0 95 0;
#X connect 95 0 97 0;
#X connect 97 0 96 0;
#X connect 99 0 165 0;
#X connect 104 0 106 0;
#X connect 106 0 105 0;
#X connect 110 0 111 0;
#X connect 110 0 114 0;
#X connect 110 0 163 0;
#X connect 111 0 109 0;
#X connect 112 0 114 0;
#X connect 112 0 163 0;
#X connect 114 0 113 0;
#X connect 114 0 115 0;
#X connect 117 0 124 0;
#X connect 117 0 128 0;
#X connect 117 1 125 0;
#X connect 118 0 117 0;
#X connect 118 0 122 0;
#X connect 119 0 118 0;
#X connect 120 0 119 0;
#X connect 121 0 118 0;
#X connect 123 0 130 0;
#X connect 128 0 127 0;
#X connect 129 0 121 0;
#X connect 130 0 124 0;
#X connect 132 0 135 0;
#X connect 132 0 145 0;
#X connect 133 0 136 0;
#X connect 133 0 138 0;
#X connect 134 0 137 0;
#X connect 134 0 146 0;
#X connect 138 0 141 0;
#X connect 139 0 140 0;
#X connect 141 0 139 0;
#X connect 143 0 144 0;
#X connect 144 0 147 0;
#X connect 145 0 141 0;
#X connect 146 0 141 0;
#X connect 147 0 142 0;
#X connect 148 0 151 0;
#X connect 149 0 150 0;
#X connect 151 0 149 0;
#X connect 152 0 153 0;
#X connect 153 0 160 0;
#X connect 154 0 22 0;
#X connect 155 0 154 0;
#X connect 156 0 158 0;
#X connect 157 0 159 0;
#X connect 158 0 16 0;
#X connect 159 0 15 0;
#X connect 160 0 12 0;
#X connect 162 0 63 0;
#X connect 163 0 164 0;
#X connect 165 0 166 0;
#X connect 165 0 167 0;
#X connect 166 0 168 0;
#X connect 167 0 100 0;
#X connect 168 0 101 0;
#X connect 169 0 170 0;
#X connect 170 0 187 0;
#X connect 171 0 186 0;
#X connect 172 0 171 0;
#X connect 178 0 189 0;
#X connect 179 0 181 0;
#X connect 180 0 182 0;
#X connect 181 0 178 0;
#X connect 182 0 178 1;
#X connect 183 0 178 2;
#X connect 186 0 185 0;
#X connect 187 0 185 0;
#X connect 188 0 185 0;
#X connect 189 0 185 0;
#X connect 190 0 188 0;
#X connect 191 0 181 0;
#X connect 191 0 193 0;
#X connect 192 0 183 0;
#X connect 193 0 190 0;
#X connect 247 0 248 0;
#X connect 249 0 247 0;
#X connect 252 0 298 0;
#X connect 253 0 298 1;
#X connect 267 0 272 0;
#X connect 269 0 273 0;
#X connect 270 0 271 0;
#X connect 273 0 270 0;
#X connect 273 1 267 0;
#X connect 298 0 252 0;
#X connect 298 1 253 0;
