#N canvas 1920 96 1920 1075 12;
#X msg 150 380 nextName;
#X msg 205 411 prevName;
#X msg 255 439 resetName;
#X msg 56 260 read data/filenames.csv;
#X msg 113 354 start;
#X msg 293 511 customname ciao.wav;
#X obj 58 629 nameselector, f 16;
#X text 50 51 This is used to select filenames from a file and spit
them out when the SELECT message is received;
#X text 248 261 To read the filename list from file;
#X text 173 354 Read first name;
#X text 230 382 Go to next name;
#X text 287 413 Go to previous name;
#X text 343 441 Go to fist name;
#X obj 167 667 print Preselected;
#X obj 58 694 print SELECTED;
#X msg 313 595 SELECT;
#X text 448 513 Overwrite preselection with custom filename;
#X text 381 598 Finally \, output preselection to first inlet;
#X text 53 117 comment;
#X connect 0 0 6 0;
#X connect 1 0 6 0;
#X connect 2 0 6 0;
#X connect 3 0 6 0;
#X connect 4 0 6 0;
#X connect 5 0 6 0;
#X connect 6 0 14 0;
#X connect 6 1 13 0;
#X connect 15 0 6 0;
