#N canvas 1 89 1355 990 12;
#X msg 45 417 1;
#X msg 119 417 -1;
#X obj 44 560 +;
#X obj 82 561 i;
#X floatatom 102 671 5 0 0 0 - - -;
#X msg 193 479 0;
#X obj 102 615 expr $i1 *($i1>0);
#X msg 267 592 \$1;
#X text 309 591 To get rid of symbol;
#X obj 251 366 bng 15 250 50 0 empty empty empty 17 7 0 10 -262144
-1 -1;
#X obj 312 418 pack s s;
#X msg 312 443 read \$1;
#X obj 341 354 bng 15 250 50 0 empty empty empty 17 7 0 10 -262144
-1 -1;
#X obj 489 574 pack s s;
#X msg 536 599 \$2;
#X obj 489 354 bng 15 250 50 0 empty empty empty 17 7 0 10 -262144
-1 -1;
#X msg 542 444 symbol \$1;
#X obj 415 391 pack s s;
#X obj 45 246 inlet;
#X obj 109 757 outlet, f 10;
#X obj 263 731 outlet;
#X obj 267 474 pbank boasdf 21 64;
#X obj 203 449 loadbang;
#X msg 598 600 \$1;
#X obj 267 555 symbol;
#X obj 267 528 unpack s;
#X msg 528 263 nextName;
#X msg 600 263 prevName;
#X msg 675 263 resetName;
#X msg 272 262 read data/filenames.csv;
#X msg 754 264 customname ciao.wav;
#X msg 903 265 SELECT;
#X obj 45 354 bng 15 250 50 0 empty empty empty 17 7 0 10 -262144 -1
-1;
#X obj 119 355 bng 15 250 50 0 empty empty empty 17 7 0 10 -262144
-1 -1;
#X text 501 228 These are here just to test;
#X msg 965 265 SELECT_AND_NEXT;
#X obj 563 354 bng 15 250 50 0 empty empty empty 17 7 0 10 -262144
-1 -1;
#X obj 193 358 bng 15 250 50 0 empty empty empty 17 7 0 10 -262144
-1 -1;
#X msg 341 373 0;
#X obj 45 330 route nextName prevName resetName read preselect customname
SELECT SELECT_AND_NEXT, f 85;
#X msg 450 263 preselect;
#X obj 102 643 * 1;
#X connect 0 0 2 0;
#X connect 1 0 2 0;
#X connect 2 0 3 0;
#X connect 3 0 6 0;
#X connect 4 0 21 0;
#X connect 5 0 2 1;
#X connect 5 0 2 0;
#X connect 6 0 41 0;
#X connect 7 0 20 0;
#X connect 10 0 11 0;
#X connect 11 0 21 0;
#X connect 12 0 38 0;
#X connect 13 0 14 0;
#X connect 14 0 19 0;
#X connect 15 0 13 0;
#X connect 16 0 13 1;
#X connect 16 0 23 0;
#X connect 17 0 16 0;
#X connect 18 0 39 0;
#X connect 21 0 25 0;
#X connect 22 0 5 0;
#X connect 23 0 20 0;
#X connect 24 0 7 0;
#X connect 24 0 13 1;
#X connect 25 0 24 0;
#X connect 26 0 39 0;
#X connect 27 0 39 0;
#X connect 28 0 39 0;
#X connect 29 0 39 0;
#X connect 30 0 39 0;
#X connect 31 0 39 0;
#X connect 32 0 0 0;
#X connect 33 0 1 0;
#X connect 35 0 39 0;
#X connect 36 0 13 0;
#X connect 36 0 0 0;
#X connect 37 0 5 0;
#X connect 38 0 2 0;
#X connect 39 0 32 0;
#X connect 39 1 33 0;
#X connect 39 2 37 0;
#X connect 39 3 9 0;
#X connect 39 3 10 0;
#X connect 39 3 21 0;
#X connect 39 4 12 0;
#X connect 39 5 17 0;
#X connect 39 6 15 0;
#X connect 39 7 36 0;
#X connect 40 0 39 0;
#X connect 41 0 4 0;
#X connect 41 0 2 1;
