#N canvas 0 50 450 300 10;
#X obj 285 174 cnv 15 220 50 empty empty empty 20 12 0 14 #fcfcc4 #404040 0;
#X obj 99 337 cyclone/prepend connect;
#X obj 99 312 pack s f;
#X obj 290 360 r disc_m;
#X msg 290 416 disconnect;
#X obj 266 337 cyclone/prepend connect;
#X obj 266 311 pack s f;
#X text 366 173 PORT_1;
#X text 439 173 PORT_2;
#X obj 285 466 r osc_msg_tosend2;
#X obj 123 469 r osc_msg_tosend;
#X obj 290 443 s dsc;
#X obj 539 339 delay 1000;
#X obj 623 339 bng 25 250 50 0 empty empty empty 17 7 0 10 #e4e4e4 #5a5a5a #5a5a5a;
#X obj 416 496 s osc_msg_tosend;
#X obj 290 389 delay 200;
#X msg 390 416 /disconnect 1;
#X obj 99 496 osc_sender;
#X obj 266 496 osc_sender;
#X obj 299 199 inlet;
#X obj 371 199 inlet;
#X obj 444 199 inlet;
#X obj 59 196 inlet;
#X obj 109 196 inlet;
#X text 59 166 Con;
#X text 111 166 Disc;
#X obj 619 459 s osc_msg_tosend2;
#X obj 559 499 s osc_msg_tosend2;
#X obj 519 199 inlet;
#X text 297 176 IP of board;
#X text 519 178 IP OF THIS COMPUTER;
#X obj 539 259 cyclone/prepend symbol;
#X obj 659 379 pack s s;
#X msg 619 419 /handshake \$2;
#X connect 1 0 17 0 empty;
#X connect 2 0 1 0 empty;
#X connect 3 0 16 0 empty;
#X connect 3 0 15 0 empty;
#X connect 4 0 11 0 empty;
#X connect 4 0 17 0 empty;
#X connect 4 0 18 0 empty;
#X connect 5 0 18 0 empty;
#X connect 6 0 5 0 empty;
#X connect 9 0 18 1 empty;
#X connect 10 0 17 1 empty;
#X connect 12 0 13 0 empty;
#X connect 12 0 32 0 empty;
#X connect 15 0 4 0 empty;
#X connect 16 0 14 0 empty;
#X connect 16 0 27 0 empty;
#X connect 19 0 6 0 empty;
#X connect 19 0 2 0 empty;
#X connect 20 0 2 1 empty;
#X connect 21 0 6 1 empty;
#X connect 22 0 12 0 empty;
#X connect 23 0 15 0 empty;
#X connect 28 0 31 0 empty;
#X connect 31 0 32 1 empty;
#X connect 32 0 33 0 empty;
#X connect 33 0 26 0 empty;
