#N canvas 827 239 527 327 12;
#X obj 265 495 _osc_control;
#X obj 265 354 cyclone/prepend connect;
#X obj 265 329 pack s f;
#X msg 503 406 disconnect;
#X obj 479 355 cyclone/prepend connect;
#X obj 479 329 pack s f;
#X obj 479 496 _osc_control;
#X obj 498 466 r osc_msg_tosend2;
#X obj 289 468 r osc_msg_tosend;
#X obj 503 435 s dsc;
#X msg 289 414 /handshake;
#X obj 289 440 s osc_msg_tosend;
#X obj 289 384 delay 1000;
#X obj 373 384 bng 25 250 50 0 empty empty empty 17 7 0 10 #e4e4e4 #5a5a5a #5a5a5a;
#X obj 265 244 inlet ip;
#X obj 489 244 inlet tx_port2;
#X obj 344 244 inlet tx_port1;
#X obj 147 244 inlet disconnect;
#X obj 49 218 bng 25 250 50 0 empty empty empty 17 7 0 10 #e4e4e4 #5a5a5a #5a5a5a;
#X obj 49 189 inlet;
#X connect 1 0 0 0 empty;
#X connect 2 0 1 0 empty;
#X connect 3 0 6 0 empty;
#X connect 3 0 9 0 empty;
#X connect 3 0 0 0 empty;
#X connect 4 0 6 0 empty;
#X connect 5 0 4 0 empty;
#X connect 7 0 6 1 empty;
#X connect 8 0 0 1 empty;
#X connect 10 0 11 0 empty;
#X connect 12 0 10 0 empty;
#X connect 12 0 13 0 empty;
#X connect 14 0 2 0 empty;
#X connect 14 0 5 0 empty;
#X connect 15 0 5 1 empty;
#X connect 16 0 2 1 empty;
#X connect 17 0 3 0 empty;
#X connect 18 0 12 0 empty;
#X connect 19 0 18 0 empty;
