#N canvas 2005 122 1123 920 12;
#X text 62 39 Receiver;
#X obj 1039 299 mrpeach/unpackOSC;
#X floatatom 88 267 5 0 0 0 - - -;
#X text 1207 268 Here set the port which the device is listening on
for incoming OSC messages;
#X floatatom 481 209 5 0 0 0 - - -;
#X obj 1309 368 print warning_message_not_routed;
#X obj 87 297 s oscrx_recstate;
#X obj 481 236 s oscrx_gain;
#X obj 148 600 r oscrx_recstate;
#X obj 174 873 netsend -u -b;
#X msg 447 818 disconnect;
#X obj 102 785 mrpeach/packOSC;
#X obj 102 819 cyclone/prepend send;
#X obj 148 658 s osc_tx;
#X obj 102 743 r osc_tx;
#X obj 74 873 print dummy;
#X msg 148 629 /state 1;
#X obj 275 599 r oscrx_classstate;
#X obj 20 599 r oscrx_idlestate;
#X msg 276 632 /state 2;
#X msg 20 632 /state 0;
#X obj 572 604 s osc_tx;
#X obj 19 533 bng 15 250 50 0 empty empty empty 17 7 0 10 -262144 -1
-1;
#X obj 151 534 bng 15 250 50 0 empty empty empty 17 7 0 10 -262144
-1 -1;
#X obj 282 530 bng 15 250 50 0 empty empty empty 17 7 0 10 -262144
-1 -1;
#X obj 19 571 s oscrx_idlestate;
#X obj 147 572 s oscrx_recstate;
#X obj 274 571 s oscrx_classstate;
#X obj 99 383 delay 1000;
#X obj 202 382 delay 1000;
#X obj 107 327 sel 1 0;
#X obj 1094 602 snapshot~;
#X obj 1183 519 loadbang;
#X obj 1181 542 tgl 15 0 empty empty empty 17 7 0 10 -262144 -1 -1
1 1;
#X obj 1094 547 +~ 1;
#X obj 1094 572 /~ 2;
#X floatatom 1093 787 50 0 0 0 - - -;
#X msg 1093 817 sendtyped /meter f \$1;
#X obj 1093 842 s osc_tx;
#X obj 485 462 bng 15 250 50 0 empty empty empty 17 7 0 10 -262144
-1 -1;
#X obj 310 784 s osc_tx;
#X obj 311 734 bng 15 250 50 0 empty empty empty 17 7 0 10 -262144
-1 -1;
#X obj 1039 393 bng 15 250 50 0 empty empty empty 17 7 0 10 -262144
-1 -1;
#X msg 310 757 /handshake 1;
#X floatatom 1283 587 5 0 0 0 - - -;
#X obj 1283 562 r oscrx_gain;
#X obj 1094 637 * 1;
#X obj 1093 754 - 100;
#X obj 1183 562 metro 50;
#X obj 1094 522 osc~ 2;
#X obj 1174 367 bng 15 250 50 0 empty empty empty 17 7 0 10 -262144
-1 -1;
#X obj 298 266 * 127;
#X obj 470 792 bng 15 250 50 0 empty empty empty 17 7 0 10 -262144
-1 -1;
#X obj 335 707 delay 1000;
#X obj 445 755 delay 1000;
#X obj 270 785 bng 15 250 50 0 empty empty empty 17 7 0 10 -262144
-1 -1;
#X obj 1039 413 s handshakereceived;
#X obj 271 677 r handshakereceived;
#X obj 1174 387 s discreceived;
#X obj 444 687 r discreceived;
#X obj 444 724 bng 15 250 50 0 empty empty empty 17 7 0 10 -262144
-1 -1;
#X msg 270 818 connect localhost 9042;
#X obj 1039 273 netreceive -u -b 8042;
#X obj 88 121 mrpeach/unpackOSC;
#X obj 88 95 netreceive -u -b 24024;
#X obj 88 176 print;
#X obj 301 295 hsl 128 15 0 127 0 0 empty empty empty -2 -8 0 10 -262144
-1 -1 0 1;
#X obj 1039 335 mrpeach/routeOSC /handshake /disconnect;
#X obj 87 151 mrpeach/routeOSC /parameter/emotionclassifier/recstate
/parameter/emotionclassifier/gain, f 97;
#X obj 298 190 rmstodb;
#X floatatom 298 215 5 0 0 0 - - -;
#X obj 298 239 / 100;
#X obj 1094 661 rmstodb;
#X floatatom 1093 723 5 0 0 0 - - -;
#X obj 1093 692 * 1;
#X obj 1400 611 r discreceived;
#X obj 1400 648 bng 15 250 50 0 empty empty empty 17 7 0 10 -262144
-1 -1;
#X msg 1400 668 0;
#X obj 1516 611 r handshakereceived;
#X obj 1515 649 bng 15 250 50 0 empty empty empty 17 7 0 10 -262144
-1 -1;
#X msg 1515 669 1;
#X msg 572 578 sendtyped /emotion iiii \$1 \$2 \$3 \$4;
#X obj 334 426 delay 3000;
#X obj 572 543 pack i i i i;
#X obj 484 490 random 2;
#X obj 553 490 random 2;
#X obj 621 490 random 2;
#X obj 690 490 random 2;
#X text 331 374 Mimic classification latency, f 15;
#X text 521 457 Send random bool for 4 classes;
#X connect 1 0 67 0;
#X connect 2 0 6 0;
#X connect 2 0 30 0;
#X connect 4 0 7 0;
#X connect 8 0 16 0;
#X connect 10 0 9 0;
#X connect 11 0 12 0;
#X connect 12 0 9 0;
#X connect 14 0 11 0;
#X connect 16 0 13 0;
#X connect 17 0 19 0;
#X connect 18 0 20 0;
#X connect 19 0 13 0;
#X connect 20 0 13 0;
#X connect 22 0 25 0;
#X connect 23 0 26 0;
#X connect 24 0 27 0;
#X connect 28 0 23 0;
#X connect 29 0 24 0;
#X connect 29 0 82 0;
#X connect 30 0 28 0;
#X connect 30 1 29 0;
#X connect 31 0 46 0;
#X connect 32 0 33 0;
#X connect 33 0 48 0;
#X connect 34 0 35 0;
#X connect 35 0 31 0;
#X connect 36 0 37 0;
#X connect 37 0 38 0;
#X connect 39 0 84 0;
#X connect 39 0 85 0;
#X connect 39 0 86 0;
#X connect 39 0 87 0;
#X connect 41 0 43 0;
#X connect 42 0 56 0;
#X connect 43 0 40 0;
#X connect 44 0 46 1;
#X connect 45 0 44 0;
#X connect 46 0 72 0;
#X connect 47 0 36 0;
#X connect 48 0 31 0;
#X connect 49 0 34 0;
#X connect 50 0 58 0;
#X connect 51 0 66 0;
#X connect 53 0 41 0;
#X connect 54 0 10 0;
#X connect 54 0 52 0;
#X connect 55 0 61 0;
#X connect 57 0 55 0;
#X connect 57 0 53 0;
#X connect 59 0 60 0;
#X connect 60 0 54 0;
#X connect 61 0 9 0;
#X connect 62 0 1 0;
#X connect 63 0 68 0;
#X connect 64 0 63 0;
#X connect 67 0 42 0;
#X connect 67 1 50 0;
#X connect 67 2 5 0;
#X connect 68 0 65 0;
#X connect 68 0 2 0;
#X connect 68 1 4 0;
#X connect 68 1 69 0;
#X connect 69 0 70 0;
#X connect 70 0 71 0;
#X connect 71 0 51 0;
#X connect 72 0 74 0;
#X connect 73 0 47 0;
#X connect 74 0 73 0;
#X connect 75 0 76 0;
#X connect 76 0 77 0;
#X connect 77 0 74 1;
#X connect 78 0 79 0;
#X connect 79 0 80 0;
#X connect 80 0 74 1;
#X connect 81 0 21 0;
#X connect 82 0 22 0;
#X connect 82 0 39 0;
#X connect 83 0 81 0;
#X connect 84 0 83 0;
#X connect 85 0 83 1;
#X connect 86 0 83 2;
#X connect 87 0 83 3;
